<svg width="197" height="86" viewBox="0 0 197 86" fill="none" xmlns="http://www.w3.org/2000/svg">
<path d="M2.66463 83.3768C1.08316 82.461 0.949754 80.3424 2.13598 78.9522C3.30561 77.5815 5.3317 77.4271 6.93829 78.243C8.88715 79.2328 10.9382 79.7277 13.0914 79.7277C14.095 79.7277 14.8636 79.5649 15.3972 79.2394C15.9308 78.9014 16.1975 78.4194 16.1975 77.7934C16.1975 77.2175 15.8799 76.748 15.2447 76.385C14.6222 76.0219 13.409 75.6338 11.6051 75.2207C10.6777 75.0078 9.87097 74.8138 9.18496 74.6385C8.51165 74.4507 7.79387 74.2191 7.03164 73.9437C6.2694 73.6682 5.6215 73.3803 5.08793 73.0798C4.55437 72.7793 4.0335 72.4163 3.52535 71.9906C3.01719 71.5649 2.61066 71.108 2.30577 70.6197C2.00087 70.1189 1.75315 69.5368 1.56259 68.8732C1.38473 68.2097 1.2958 67.4836 1.2958 66.6948C1.2958 64.1534 2.2486 62.0814 4.15419 60.4789C6.07249 58.8764 8.64504 58.0751 11.8718 58.0751C15.102 58.0751 17.9498 58.6922 20.4154 59.9263C22.0188 60.7289 22.291 62.7896 21.2447 64.2457C20.1776 65.7306 18.1345 66.0352 16.4566 65.3083C14.8623 64.6176 13.2706 64.2723 11.6813 64.2723C10.792 64.2723 10.1123 64.4413 9.6423 64.7793C9.17225 65.1049 8.93723 65.5368 8.93723 66.0751C8.93723 66.7011 9.24848 67.1894 9.87097 67.5399C10.5062 67.8779 11.7702 68.2598 13.6631 68.6854C15.34 69.0485 16.7629 69.4491 17.9316 69.8873C19.1004 70.313 20.1485 70.8513 21.0759 71.5023C22.0159 72.1534 22.7147 72.9484 23.172 73.8873C23.6293 74.8138 23.858 75.903 23.858 77.1549C23.858 79.8717 22.8544 82.0125 20.8472 83.5775C18.84 85.1424 16.1594 85.9249 12.8056 85.9249C10.341 85.9249 8.00349 85.5493 5.793 84.7981C4.67926 84.4133 3.63647 83.9396 2.66463 83.3768Z" fill="#FF9E0A"/>
<path d="M33.9261 85.4554C30.6124 85.4554 27.9261 82.7691 27.9261 79.4554V64.5258C27.9261 61.2121 30.6124 58.5258 33.9261 58.5258H46.7239C48.4766 58.5258 49.8976 59.9467 49.8976 61.6995C49.8976 63.4523 48.4766 64.8732 46.7239 64.8732H35.4151V68.9484H45.5772C47.2055 68.9484 48.5255 70.2684 48.5255 71.8967C48.5255 73.525 47.2055 74.8451 45.5772 74.8451H35.4151V79.108H46.9144C48.6672 79.108 50.0881 80.5289 50.0881 82.2817C50.0881 84.0345 48.6672 85.4554 46.9144 85.4554H33.9261Z" fill="#FF9E0A"/>
<path d="M58.3478 85.4554C55.7379 85.4554 53.979 82.786 55.0087 80.3878L63.0368 61.6901C63.91 59.6563 65.9107 58.338 68.1241 58.338C70.3386 58.338 72.3401 59.6577 73.2126 61.6932L81.1771 80.2731C82.2287 82.7263 80.4293 85.4554 77.7602 85.4554C76.2589 85.4554 74.9049 84.5524 74.328 83.1663L74.2803 83.0516C73.6745 81.5961 72.2527 80.6479 70.6762 80.6479H65.3347C63.7677 80.6479 62.3574 81.5989 61.7701 83.0516L61.7167 83.1836C61.1616 84.5566 59.8288 85.4554 58.3478 85.4554ZM64.9715 74.8451H71.1075L68.0585 67.1831L64.9715 74.8451Z" fill="#FF9E0A"/>
<path d="M87.1861 83.3768C85.6046 82.461 85.4712 80.3424 86.6574 78.9522C87.827 77.5815 89.8531 77.4271 91.4597 78.243C93.4086 79.2328 95.4596 79.7277 97.6128 79.7277C98.6164 79.7277 99.385 79.5649 99.9186 79.2394C100.452 78.9014 100.719 78.4194 100.719 77.7934C100.719 77.2175 100.401 76.748 99.7662 76.385C99.1437 76.0219 97.9304 75.6338 96.1265 75.2207C95.1991 75.0078 94.3924 74.8138 93.7064 74.6385C93.0331 74.4507 92.3153 74.2191 91.5531 73.9437C90.7908 73.6682 90.1429 73.3803 89.6094 73.0798C89.0758 72.7793 88.5549 72.4163 88.0468 71.9906C87.5386 71.5649 87.1321 71.108 86.8272 70.6197C86.5223 70.1189 86.2746 69.5368 86.084 68.8732C85.9062 68.2097 85.8172 67.4836 85.8172 66.6948C85.8172 64.1534 86.77 62.0814 88.6756 60.4789C90.5939 58.8764 93.1665 58.0751 96.3933 58.0751C99.6234 58.0751 102.471 58.6922 104.937 59.9263C106.54 60.7289 106.812 62.7896 105.766 64.2457C104.699 65.7306 102.656 66.0352 100.978 65.3083C99.3838 64.6176 97.792 64.2723 96.2027 64.2723C95.3134 64.2723 94.6338 64.4413 94.1637 64.7793C93.6937 65.1049 93.4586 65.5368 93.4586 66.0751C93.4586 66.7011 93.7699 67.1894 94.3924 67.5399C95.0276 67.8779 96.2916 68.2598 98.1845 68.6854C99.8614 69.0485 101.284 69.4491 102.453 69.8873C103.622 70.313 104.67 70.8513 105.597 71.5023C106.537 72.1534 107.236 72.9484 107.693 73.8873C108.151 74.8138 108.379 75.903 108.379 77.1549C108.379 79.8717 107.376 82.0125 105.369 83.5775C103.361 85.1424 100.681 85.9249 97.327 85.9249C94.8624 85.9249 92.5249 85.5493 90.3144 84.7981C89.2007 84.4133 88.1579 83.9396 87.1861 83.3768Z" fill="#FF9E0A"/>
<path d="M111.243 71.9906C111.243 70.0876 111.618 68.2786 112.367 66.5634C113.129 64.8357 114.158 63.3459 115.454 62.0939C116.75 60.8419 118.312 59.8466 120.142 59.108C121.971 58.3693 123.921 58 125.992 58C128.063 58 130.006 58.3693 131.823 59.108C133.653 59.8341 135.209 60.8232 136.492 62.0751C137.788 63.3146 138.804 64.7981 139.541 66.5258C140.29 68.241 140.665 70.0626 140.665 71.9906C140.665 73.8936 140.284 75.7089 139.522 77.4366C138.772 79.1643 137.75 80.6541 136.454 81.9061C135.158 83.1581 133.595 84.1534 131.766 84.892C129.937 85.6307 127.987 86 125.916 86C123.159 86 120.656 85.3803 118.408 84.1408C116.159 82.8889 114.4 81.1987 113.129 79.0704C111.872 76.9296 111.243 74.5696 111.243 71.9906ZM118.998 71.9906C118.998 73.9812 119.659 75.6901 120.98 77.1174C122.302 78.5446 123.972 79.2582 125.992 79.2582C128.037 79.2582 129.708 78.5571 131.004 77.1549C132.3 75.7402 132.947 74.0188 132.947 71.9906C132.947 70 132.287 68.2911 130.966 66.8638C129.644 65.4366 127.961 64.723 125.916 64.723C123.896 64.723 122.238 65.4304 120.942 66.8451C119.646 68.2473 118.998 69.9624 118.998 71.9906Z" fill="#FF9E0A"/>
<path d="M147.931 85.4554C145.863 85.4554 144.187 83.7789 144.187 81.7109V63.2867C144.187 60.6573 146.318 58.5258 148.948 58.5258C150.406 58.5258 151.783 59.194 152.686 60.3389L162.481 72.7606V62.2798C162.481 60.2066 164.161 58.5258 166.235 58.5258C168.308 58.5258 169.989 60.2066 169.989 62.2798V80.9864C169.989 83.4545 167.988 85.4554 165.52 85.4554C164.154 85.4554 162.863 84.8308 162.015 83.7597L151.676 70.6948V81.7109C151.676 83.7789 149.999 85.4554 147.931 85.4554Z" fill="#FF9E0A"/>
<path d="M175.807 83.3768C174.225 82.461 174.092 80.3424 175.278 78.9522C176.448 77.5815 178.474 77.4271 180.08 78.243C182.029 79.2328 184.08 79.7277 186.233 79.7277C187.237 79.7277 188.006 79.5649 188.539 79.2394C189.073 78.9014 189.34 78.4194 189.34 77.7934C189.34 77.2175 189.022 76.748 188.387 76.385C187.764 76.0219 186.551 75.6338 184.747 75.2207C183.82 75.0078 183.013 74.8138 182.327 74.6385C181.654 74.4507 180.936 74.2191 180.174 73.9437C179.411 73.6682 178.763 73.3803 178.23 73.0798C177.696 72.7793 177.175 72.4163 176.667 71.9906C176.159 71.5649 175.753 71.108 175.448 70.6197C175.143 70.1189 174.895 69.5368 174.705 68.8732C174.527 68.2097 174.438 67.4836 174.438 66.6948C174.438 64.1534 175.391 62.0814 177.296 60.4789C179.214 58.8764 181.787 58.0751 185.014 58.0751C188.244 58.0751 191.092 58.6922 193.557 59.9263C195.161 60.7289 195.433 62.7896 194.387 64.2457C193.32 65.7306 191.276 66.0352 189.599 65.3083C188.004 64.6176 186.413 64.2723 184.823 64.2723C183.934 64.2723 183.254 64.4413 182.784 64.7793C182.314 65.1049 182.079 65.5368 182.079 66.0751C182.079 66.7011 182.39 67.1894 183.013 67.5399C183.648 67.8779 184.912 68.2598 186.805 68.6854C188.482 69.0485 189.905 69.4491 191.074 69.8873C192.242 70.313 193.29 70.8513 194.218 71.5023C195.158 72.1534 195.857 72.9484 196.314 73.8873C196.771 74.8138 197 75.903 197 77.1549C197 79.8717 195.996 82.0125 193.989 83.5775C191.982 85.1424 189.301 85.9249 185.948 85.9249C183.483 85.9249 181.145 85.5493 178.935 84.7981C177.821 84.4133 176.778 83.9396 175.807 83.3768Z" fill="#FF9E0A"/>
<g clip-path="url(#clip0_701_7144)">
<path d="M121.613 25.1756C121.923 41.0337 115.539 50.3962 112.746 52.1433C112.125 52.5016 111.283 52.2776 110.973 52.0089C110.396 51.4265 110.352 50.7546 110.751 50.0826C112.347 47.5292 118.377 41.5712 118.377 25.3996C105.209 24.2797 107.204 9.36239 107.204 2.28451C107.204 -2.32955 114.253 4.47955 114.963 5.06191C120.017 -0.492887 118.731 -0.492887 123.785 5.06191C124.672 4.34516 131.544 -2.32955 131.544 2.28451C131.544 9.98955 133.495 22.7566 121.613 25.1756ZM113.189 19.576C116.603 23.2494 122.145 23.2494 125.736 19.576C129.15 16.0819 128.263 10.7063 128.263 5.59947C122.677 10.0343 124.096 10.2135 119.441 5.06191C114.741 10.2135 116.027 10.0343 110.441 5.59947C110.441 10.3927 109.598 16.0371 113.189 19.576Z" fill="#FF9E0A"/>
<path d="M183.852 31.6718C184.647 31.443 185.177 30.5276 184.956 29.7038C184.691 28.8799 183.897 28.3307 183.058 28.5596C181.91 28.8799 180.719 29.2003 179.571 29.5207C177.717 30.0242 175.863 30.5734 174.009 31.0768C173.788 31.1226 173.568 31.2141 173.391 31.2599C172.199 30.5276 171.008 29.8411 169.816 29.1088C168.359 28.2392 166.947 27.3696 165.49 26.5C166.461 25.905 167.432 25.3558 168.403 24.7608C170.081 23.7539 171.714 22.7927 173.391 21.7858C174.362 22.0604 175.289 22.335 176.26 22.5639C178.114 23.0673 179.968 23.6166 181.822 24.12C182.263 24.2573 182.661 24.3489 183.102 24.4862C183.897 24.715 184.824 24.2116 185 23.342C185.177 22.4723 184.735 21.6027 183.897 21.3739C182.749 21.0535 181.557 20.7331 180.41 20.4128C179.35 20.0924 178.247 19.8178 177.187 19.4974C177.673 19.2228 178.158 18.9024 178.688 18.6278C179.836 17.9413 180.939 17.2547 182.087 16.614C182.617 16.2936 183.146 15.9732 183.676 15.6528C183.676 15.6528 183.72 15.6071 183.764 15.6071C184.47 15.1951 184.779 14.1425 184.338 13.4102C183.897 12.6779 182.97 12.3575 182.219 12.8152C181.866 13.044 181.469 13.2729 181.116 13.4559C180.101 14.0509 179.129 14.6459 178.114 15.2409C177.32 15.7444 176.481 16.2021 175.687 16.7055C176.172 14.829 176.658 12.9525 177.143 11.076C177.276 10.6183 177.364 10.2064 177.496 9.74869C177.717 8.92485 177.231 7.96371 176.393 7.78064C175.554 7.59757 174.715 8.05525 174.495 8.92485C174.186 10.1148 173.877 11.3506 173.568 12.5406C173.082 14.4629 172.553 16.3851 172.067 18.3074C172.023 18.5363 171.935 18.7651 171.89 18.9939C170.699 19.7262 169.507 20.4128 168.315 21.1451C166.858 22.0147 165.446 22.8843 163.989 23.7539C163.989 22.6097 163.989 21.4197 163.989 20.2755C163.989 18.2616 163.989 16.2936 163.989 14.2798C164.696 13.5475 165.402 12.8152 166.108 12.0829C167.476 10.6641 168.845 9.24523 170.169 7.87218C170.478 7.5518 170.787 7.23142 171.096 6.91104C171.67 6.31605 171.714 5.2176 171.096 4.62261C170.478 4.02762 169.507 3.98185 168.889 4.62261C168.05 5.49221 167.167 6.40758 166.329 7.27719C165.534 8.10102 164.74 8.92486 163.989 9.70292C163.989 9.10793 163.989 8.51294 163.989 7.91795C163.989 6.54489 163.989 5.2176 163.989 3.84454C163.989 3.20378 163.989 2.56302 163.989 1.92226C163.989 1.8765 163.989 1.8765 163.989 1.83073C163.989 1.00689 163.283 0.183059 162.444 0.228828C161.429 0.274596 160.723 0.915356 160.723 1.83073C160.723 2.28841 160.723 2.70033 160.723 3.15802C160.723 4.348 160.723 5.53798 160.723 6.72796C160.723 7.6891 160.723 8.69601 160.723 9.65715C159.399 8.28409 158.074 6.91104 156.75 5.53798C156.441 5.2176 156.132 4.89722 155.823 4.57684C155.249 3.98185 154.19 3.93608 153.616 4.57684C153.042 5.2176 152.998 6.22451 153.616 6.86527C154.455 7.73487 155.338 8.65024 156.176 9.51985C157.545 10.9387 158.913 12.3575 160.237 13.7306C160.414 13.9136 160.546 14.0509 160.723 14.234C160.723 15.6528 160.723 17.1174 160.723 18.5363C160.723 20.2755 160.723 21.9689 160.723 23.7081C159.752 23.1131 158.781 22.5639 157.81 21.9689C156.132 20.962 154.455 19.9551 152.822 18.9939C152.557 17.987 152.292 17.0259 152.027 16.019C151.542 14.0967 151.012 12.1744 150.526 10.2521C150.394 9.79446 150.306 9.38254 150.173 8.92485C149.953 8.10102 149.07 7.5518 148.275 7.78064C147.481 8.05525 146.951 8.87909 147.172 9.74869C147.481 10.9387 147.79 12.1744 148.099 13.3644C148.364 14.4629 148.673 15.5613 148.937 16.7055C148.452 16.4309 147.966 16.1105 147.481 15.8359C146.333 15.1494 145.23 14.4629 144.082 13.8221C143.552 13.5017 143.023 13.1813 142.493 12.861C142.449 12.861 142.449 12.8152 142.405 12.8152C141.698 12.4033 140.683 12.6321 140.286 13.4102C139.889 14.1882 140.109 15.1494 140.86 15.6071C141.213 15.8359 141.61 16.0647 141.963 16.2478C142.978 16.8428 143.95 17.4378 144.965 18.0328C145.803 18.5363 146.598 18.9939 147.437 19.4974C145.627 20.0008 143.773 20.5043 141.963 21.0078C141.522 21.1451 141.125 21.2366 140.683 21.3739C139.889 21.6027 139.359 22.5181 139.58 23.342C139.844 24.1658 140.639 24.715 141.478 24.4862C142.625 24.1658 143.817 23.8454 144.965 23.525C146.819 23.0216 148.673 22.4723 150.526 21.9689C150.747 21.9231 150.968 21.8316 151.189 21.7858C152.38 22.5181 153.572 23.2046 154.764 23.9369C156.221 24.8065 157.633 25.6761 159.09 26.5458C158.119 27.1407 157.148 27.69 156.176 28.285C154.499 29.2919 152.866 30.2988 151.189 31.2599C150.217 30.9853 149.291 30.7107 148.319 30.4818C146.466 29.9784 144.612 29.4292 142.758 28.9257C142.316 28.7884 141.919 28.6969 141.478 28.5596C140.683 28.3307 139.756 28.8342 139.58 29.7038C139.403 30.5734 139.844 31.443 140.683 31.6718C141.831 31.9922 143.023 32.3126 144.17 32.633C145.23 32.9534 146.333 33.228 147.393 33.5483C146.907 33.823 146.421 34.1433 145.936 34.4179C144.788 35.1045 143.685 35.791 142.537 36.4318C142.007 36.7521 141.478 37.0725 140.948 37.3929C140.948 37.3929 140.904 37.4387 140.86 37.4387C140.153 37.8506 139.844 38.9033 140.286 39.6356C140.727 40.3679 141.654 40.6882 142.405 40.2306C142.758 40.0017 143.155 39.7729 143.508 39.5898C144.523 38.9948 145.494 38.3998 146.51 37.8048C147.304 37.3014 148.143 36.8437 148.937 36.3402C148.452 38.2167 147.966 40.0932 147.481 41.9698C147.348 42.4274 147.26 42.8394 147.128 43.297C146.907 44.1209 147.393 45.082 148.231 45.2651C149.07 45.4482 149.909 44.9905 150.129 44.1209C150.438 42.9309 150.747 41.6951 151.056 40.5052C151.542 38.5829 152.071 36.6606 152.557 34.7383C152.601 34.5095 152.689 34.2806 152.733 34.0518C153.925 33.3195 155.117 32.633 156.353 31.9007C157.81 31.0311 159.222 30.1615 160.679 29.3376C160.679 30.4818 160.679 31.6718 160.679 32.816C160.679 34.8299 160.679 36.7979 160.679 38.8117C159.973 39.544 159.266 40.2763 158.56 41.0086C157.192 42.4274 155.823 43.8463 154.499 45.2193C154.19 45.5397 153.881 45.8601 153.572 46.1805C152.998 46.7755 152.954 47.8739 153.572 48.4689C154.19 49.0639 155.161 49.1097 155.779 48.4689C156.618 47.5993 157.501 46.6839 158.339 45.8143C159.134 44.9905 159.928 44.1666 160.679 43.3886C160.679 43.9836 160.679 44.5786 160.679 45.1736C160.679 46.5466 160.679 47.8739 160.679 49.247C160.679 49.8877 160.679 50.5285 160.679 51.1692C160.679 51.215 160.679 51.215 160.679 51.2608C160.679 52.0846 161.385 52.9084 162.224 52.8627C163.062 52.8169 163.769 52.1304 163.769 51.2608C163.769 50.8031 163.769 50.3912 163.769 49.9335C163.769 48.7435 163.769 47.5535 163.769 46.3635C163.769 45.4024 163.769 44.3955 163.769 43.4343C165.093 44.8074 166.417 46.1805 167.741 47.5535C168.05 47.8739 168.359 48.1943 168.668 48.5147C169.242 49.1097 170.301 49.1554 170.875 48.5147C171.449 47.8739 171.493 46.867 170.875 46.2262C170.037 45.3566 169.154 44.4413 168.315 43.5717C166.947 42.1528 165.578 40.734 164.254 39.3609C164.078 39.1779 163.945 39.0406 163.769 38.8575C163.769 37.4387 163.769 35.9741 163.769 34.5552C163.769 32.816 163.769 31.0768 163.769 29.3834C164.74 29.9784 165.711 30.5276 166.682 31.1226C168.359 32.1295 169.992 33.1364 171.67 34.0976C171.935 35.1045 172.199 36.1114 172.464 37.1183C172.95 39.0406 173.479 40.9628 173.965 42.8851C174.097 43.3428 174.186 43.7547 174.318 44.2124C174.539 45.0363 175.422 45.5855 176.216 45.3566C177.011 45.082 177.54 44.2582 177.32 43.3886C177.011 42.1986 176.702 40.9628 176.393 39.7729C176.084 38.6744 175.819 37.5302 175.51 36.4318C175.995 36.7064 176.481 37.0268 177.011 37.3014C178.158 37.9879 179.262 38.6744 180.41 39.3152C180.939 39.6356 181.469 39.9559 181.999 40.2763C182.043 40.2763 182.043 40.3221 182.087 40.3221C182.793 40.734 183.808 40.5052 184.206 39.7271C184.603 38.949 184.382 37.9879 183.632 37.5302C183.279 37.3014 182.881 37.0725 182.528 36.8894C181.513 36.2945 180.542 35.6995 179.527 35.1045C178.732 34.601 177.894 34.1433 177.099 33.6399C178.909 33.1364 180.719 32.633 182.528 32.1295C182.97 31.9007 183.411 31.7634 183.852 31.6718Z" fill="#FF9E0A"/>
<path d="M30.994 2.92916L28.787 0.594961C28.478 0.274581 28.0807 0.091507 27.6393 0.091507C27.1979 0.091507 26.8006 0.274581 26.4917 0.594961L24.3288 2.88339L24.2846 2.92916C11.3074 17.6209 12.455 28.8342 17.8401 34.4179L26.0061 42.8851V51.1692C26.0061 52.0846 26.7124 52.8627 27.6393 52.8627C28.5663 52.8627 29.2725 52.1304 29.2725 51.1692V42.9309L37.4385 34.4637C42.8236 28.8342 43.9271 17.6666 30.994 2.92916ZM29.2725 29.4292L34.2162 24.3031C34.5252 23.9827 34.7018 23.5708 34.7018 23.1131C34.7018 22.6554 34.5252 22.2435 34.2162 21.9231C33.5983 21.2824 32.5389 21.2824 31.9209 21.9231L29.2725 24.6692V15.2867C29.2725 14.3713 28.5663 13.5932 27.6393 13.5932C26.7124 13.5932 26.0061 14.3255 26.0061 15.2867V24.715L23.3577 21.9689C22.7397 21.3281 21.6804 21.3281 21.0624 21.9689C20.7534 22.2893 20.5768 22.7012 20.5768 23.1589C20.5768 23.6165 20.7534 24.0285 21.0624 24.3488L26.0061 29.4749V38.2167L20.1354 32.038C14.6179 26.3169 17.0898 16.019 26.6241 5.21759L27.6393 4.16491L28.6104 5.17182C38.1447 16.0647 40.6607 26.3627 35.1432 32.038L29.2725 38.171V29.4292Z" fill="#FF9E0A"/>
<path d="M97.7345 24.9897H88.1119C87.8029 22.1062 86.6994 19.4974 85.0662 17.3463L92.526 9.61142C93.1439 8.97066 93.1439 7.91799 92.526 7.32299C91.908 6.68223 90.8928 6.68223 90.3189 7.32299L82.8592 15.0579C80.7846 13.3187 78.2686 12.2202 75.4878 11.8999C75.4878 11.8541 75.4878 11.8541 75.4878 11.8083V1.87653C75.4878 0.961164 74.7815 0.228867 73.8987 0.228867C73.0159 0.228867 72.3097 0.961164 72.3097 1.87653V11.7625C72.3097 11.8083 72.3097 11.8083 72.3097 11.8541C69.5288 12.1745 67.0128 13.3187 64.9382 15.0121L58.0964 7.96375C57.4785 7.32299 56.4632 7.32299 55.8453 7.96375C55.2273 8.60451 55.2273 9.65719 55.8453 10.298L62.6429 17.3463C61.0097 19.4974 59.9062 22.1062 59.5972 24.9897H50.0187C49.1359 24.9897 48.4297 25.722 48.4297 26.6373C48.4297 27.5527 49.1359 28.285 50.0187 28.285H59.6414C59.9503 31.1684 61.0538 33.7772 62.687 35.9283L56.8605 41.924C56.2425 42.5648 56.2425 43.6175 56.8605 44.2125C57.4785 44.8074 58.4937 44.8532 59.0675 44.2125L64.8941 38.171C66.9687 39.9102 69.4847 41.0087 72.2655 41.329C72.2655 41.4206 72.2655 41.4663 72.2655 41.5579V51.3066C72.2655 52.222 72.9718 52.9543 73.8546 52.9543C74.7374 52.9543 75.4436 52.222 75.4436 51.3066V41.6037C75.4436 41.5121 75.4436 41.4663 75.4436 41.3748C78.2245 41.0544 80.7405 39.9102 82.8151 38.2168L89.6127 45.2651C90.2307 45.9059 91.2459 45.9059 91.8639 45.2651C92.4818 44.6244 92.4818 43.5717 91.8639 42.9309L85.0662 35.8826C86.6994 33.7315 87.8029 31.1227 88.1119 28.2392H97.7345C98.6173 28.2392 99.3236 27.5069 99.3236 26.5916C99.3236 25.6762 98.6173 24.9897 97.7345 24.9897ZM73.8546 38.171C67.7191 38.171 62.7312 32.9992 62.7312 26.6373C62.7312 20.2755 67.7191 15.1037 73.8546 15.1037C79.9901 15.1037 84.978 20.2755 84.978 26.6373C84.978 32.9992 80.0342 38.171 73.8546 38.171Z" fill="#FF9E0A"/>
</g>
<defs>
<clipPath id="clip0_701_7144">
<rect width="171" height="53" fill="white" transform="translate(14)"/>
</clipPath>
</defs>
</svg>
