<svg width="16" height="16" viewBox="0 0 16 16" fill="none" xmlns="http://www.w3.org/2000/svg">
<path fill-rule="evenodd" clip-rule="evenodd" d="M16 8C16 8.4658 15.6224 8.84341 15.1566 8.84341H0.843412C0.377608 8.84341 -3.55471e-07 8.4658 0 8C-2.4883e-07 7.5342 0.377608 7.15659 0.843412 7.15659H15.1566C15.6224 7.15659 16 7.5342 16 8Z" fill="white"/>
<path fill-rule="evenodd" clip-rule="evenodd" d="M8 0C8.4658 -3.55472e-08 8.84341 0.377608 8.84341 0.843412L8.84341 15.1566C8.84341 15.6224 8.4658 16 8 16C7.5342 16 7.15659 15.6224 7.15659 15.1566L7.15659 0.843412C7.15659 0.377608 7.5342 -3.55472e-08 8 0Z" fill="white"/>
</svg>
