<svg width="11" height="12" viewBox="0 0 11 12" fill="none" xmlns="http://www.w3.org/2000/svg">
<path d="M5.03458 0.85391C5.18108 0.38203 5.81892 0.38203 5.96542 0.853911L6.9283 3.95556C6.99382 4.16659 7.18171 4.30947 7.39372 4.30947H10.5097C10.9838 4.30947 11.1809 4.94438 10.7973 5.23601L8.27646 7.15294C8.10494 7.28336 8.03317 7.51454 8.09869 7.72558L9.06158 10.8272C9.20807 11.2991 8.69204 11.6915 8.30852 11.3999L5.78764 9.48294C5.61613 9.35251 5.38387 9.35251 5.21236 9.48294L2.69148 11.3999C2.30796 11.6915 1.79193 11.2991 1.93842 10.8272L2.90131 7.72558C2.96683 7.51454 2.89506 7.28336 2.72354 7.15294L0.202662 5.23601C-0.180861 4.94438 0.0162441 4.30947 0.490305 4.30947H3.60628C3.81829 4.30947 4.00618 4.16659 4.0717 3.95556L5.03458 0.85391Z" fill="#FF9E0A"/>
</svg>
