<svg width="26" height="26" viewBox="0 0 26 26" fill="none" xmlns="http://www.w3.org/2000/svg">
<mask id="path-1-outside-1_720_7266" maskUnits="userSpaceOnUse" x="0" y="0" width="26" height="26" fill="black">
<rect fill="white" width="26" height="26"/>
<path fill-rule="evenodd" clip-rule="evenodd" d="M13.544 6.51868C13.544 6.79577 13.3191 7.02065 13.0413 7.02065C12.7649 7.02065 12.54 6.79577 12.54 6.51868V1.5016C12.54 1.2245 12.7649 1 13.0413 1C13.3191 1 13.544 1.2245 13.544 1.5016V6.51868ZM10.0312 7.82723C9.79156 7.9658 9.48436 7.88349 9.34617 7.64351L6.83706 3.29853C6.69887 3.05859 6.78118 2.75173 7.02079 2.61321C7.26185 2.47464 7.56758 2.55695 7.70724 2.79693L10.2149 7.14191C10.3545 7.38185 10.2722 7.68871 10.0312 7.82723ZM2.79764 7.70602L7.14263 10.2148C7.38223 10.3533 7.68942 10.271 7.82762 10.031C7.96581 9.79109 7.8835 9.48423 7.64389 9.34571L3.29891 6.83698C3.05931 6.69845 2.75211 6.78077 2.61392 7.0207C2.47573 7.26063 2.55804 7.56745 2.79764 7.70602ZM6.51943 13.5429H1.50272C1.22488 13.5429 1 13.3184 1 13.0413C1 12.7643 1.22488 12.5393 1.50272 12.5393H6.51943C6.79723 12.5393 7.02065 12.7642 7.02065 13.0413C7.02065 13.3184 6.79723 13.5429 6.51943 13.5429ZM19.062 13.0413C19.062 13.3184 19.2869 13.5429 19.5647 13.5429H24.5814C24.8578 13.5429 25.0827 13.3184 25.0827 13.0413C25.0827 12.7642 24.8578 12.5393 24.5814 12.5393H19.5647C19.2869 12.5393 19.062 12.7643 19.062 13.0413ZM18.9415 10.2143C18.7019 10.3529 18.3947 10.271 18.2565 10.031C18.1169 9.79105 18.1992 9.48418 18.4388 9.34566L22.7852 6.83693C23.0249 6.69836 23.332 6.78072 23.4702 7.02065C23.6084 7.26059 23.5261 7.56745 23.2865 7.70597L18.9415 10.2143ZM16.0515 7.82728C16.2926 7.9658 16.5983 7.88349 16.738 7.64356L19.2456 3.29857C19.3853 3.05859 19.303 2.75178 19.0619 2.61325C18.8223 2.47473 18.5151 2.55705 18.3769 2.79698L15.8678 7.14196C15.7296 7.38189 15.8119 7.68871 16.0515 7.82728ZM18.0595 13.0413C18.0595 13.3981 18.0213 13.7461 17.9507 14.082C22.1546 15.9605 25.0826 20.1776 25.0826 25.0797H1.00146C1.00146 20.1784 3.92948 15.9605 8.1334 14.082C8.06284 13.7461 8.0246 13.3981 8.0246 13.0413C8.0246 10.2702 10.2705 8.02385 13.0413 8.02385C15.8121 8.02385 18.0595 10.2702 18.0595 13.0413ZM24.0346 24.0765C23.9332 22.9403 23.6583 21.8372 23.2129 20.784C22.6735 19.5073 21.9062 18.3572 20.9331 17.3628C20.7127 17.6289 20.4128 18.0426 20.1217 18.621C19.6043 19.6515 19.0046 21.4278 19.0928 24.0391L18.0889 24.0729C17.9478 19.8734 19.4324 17.5745 20.1967 16.6757C19.3398 15.9429 18.3814 15.3506 17.3378 14.9096C17.1497 14.8302 16.9601 14.7567 16.7689 14.6876C16.3074 15.0463 15.5445 15.7665 14.8581 16.7984C14.2496 17.7134 13.7821 18.7364 13.4691 19.8396C13.0971 21.1463 12.9428 22.5706 13.0075 24.0765H24.0346ZM13.0413 14.0423C12.7091 14.0423 12.3784 14.0578 12.0521 14.0864C11.592 14.3775 10.6101 15.1543 9.68993 16.3551C8.97413 17.2878 8.39205 18.3373 7.95988 19.472C7.42484 20.8817 7.11911 22.4309 7.05297 24.0765H12.0036C11.9374 22.4648 12.1094 20.9361 12.5136 19.5279C12.8605 18.3204 13.3794 17.1989 14.0541 16.195C14.6097 15.3696 15.1786 14.7611 15.6269 14.3466C14.7861 14.1452 13.9218 14.0423 13.0413 14.0423ZM10.203 10.2029C9.446 10.961 9.02855 11.969 9.02855 13.0413C9.02855 13.2659 9.04764 13.4878 9.08297 13.7049C10.3236 13.2735 11.6552 13.0387 13.0414 13.0387C14.4289 13.0387 15.7607 13.2735 17.0013 13.7049C17.0365 13.4874 17.0556 13.2658 17.0556 13.0413C17.0556 11.969 16.6382 10.961 15.8797 10.2029C15.1213 9.44486 14.1144 9.02741 13.0414 9.02741C11.9698 9.02741 10.9615 9.44486 10.203 10.2029ZM5.2377 17.2753C4.22346 18.2888 3.4268 19.4699 2.87116 20.784C2.42582 21.8371 2.15094 22.9403 2.04953 24.0765H6.04762C6.11672 22.2943 6.44889 20.6135 7.03538 19.0818C7.50725 17.8508 8.1437 16.7146 8.92568 15.7018C9.30489 15.2123 9.68118 14.7993 10.0266 14.4583C9.59298 14.5817 9.16524 14.7317 8.74633 14.9095C7.43223 15.4652 6.25044 16.2611 5.2377 17.2753Z"/>
</mask>
<path fill-rule="evenodd" clip-rule="evenodd" d="M13.544 6.51868C13.544 6.79577 13.3191 7.02065 13.0413 7.02065C12.7649 7.02065 12.54 6.79577 12.54 6.51868V1.5016C12.54 1.2245 12.7649 1 13.0413 1C13.3191 1 13.544 1.2245 13.544 1.5016V6.51868ZM10.0312 7.82723C9.79156 7.9658 9.48436 7.88349 9.34617 7.64351L6.83706 3.29853C6.69887 3.05859 6.78118 2.75173 7.02079 2.61321C7.26185 2.47464 7.56758 2.55695 7.70724 2.79693L10.2149 7.14191C10.3545 7.38185 10.2722 7.68871 10.0312 7.82723ZM2.79764 7.70602L7.14263 10.2148C7.38223 10.3533 7.68942 10.271 7.82762 10.031C7.96581 9.79109 7.8835 9.48423 7.64389 9.34571L3.29891 6.83698C3.05931 6.69845 2.75211 6.78077 2.61392 7.0207C2.47573 7.26063 2.55804 7.56745 2.79764 7.70602ZM6.51943 13.5429H1.50272C1.22488 13.5429 1 13.3184 1 13.0413C1 12.7643 1.22488 12.5393 1.50272 12.5393H6.51943C6.79723 12.5393 7.02065 12.7642 7.02065 13.0413C7.02065 13.3184 6.79723 13.5429 6.51943 13.5429ZM19.062 13.0413C19.062 13.3184 19.2869 13.5429 19.5647 13.5429H24.5814C24.8578 13.5429 25.0827 13.3184 25.0827 13.0413C25.0827 12.7642 24.8578 12.5393 24.5814 12.5393H19.5647C19.2869 12.5393 19.062 12.7643 19.062 13.0413ZM18.9415 10.2143C18.7019 10.3529 18.3947 10.271 18.2565 10.031C18.1169 9.79105 18.1992 9.48418 18.4388 9.34566L22.7852 6.83693C23.0249 6.69836 23.332 6.78072 23.4702 7.02065C23.6084 7.26059 23.5261 7.56745 23.2865 7.70597L18.9415 10.2143ZM16.0515 7.82728C16.2926 7.9658 16.5983 7.88349 16.738 7.64356L19.2456 3.29857C19.3853 3.05859 19.303 2.75178 19.0619 2.61325C18.8223 2.47473 18.5151 2.55705 18.3769 2.79698L15.8678 7.14196C15.7296 7.38189 15.8119 7.68871 16.0515 7.82728ZM18.0595 13.0413C18.0595 13.3981 18.0213 13.7461 17.9507 14.082C22.1546 15.9605 25.0826 20.1776 25.0826 25.0797H1.00146C1.00146 20.1784 3.92948 15.9605 8.1334 14.082C8.06284 13.7461 8.0246 13.3981 8.0246 13.0413C8.0246 10.2702 10.2705 8.02385 13.0413 8.02385C15.8121 8.02385 18.0595 10.2702 18.0595 13.0413ZM24.0346 24.0765C23.9332 22.9403 23.6583 21.8372 23.2129 20.784C22.6735 19.5073 21.9062 18.3572 20.9331 17.3628C20.7127 17.6289 20.4128 18.0426 20.1217 18.621C19.6043 19.6515 19.0046 21.4278 19.0928 24.0391L18.0889 24.0729C17.9478 19.8734 19.4324 17.5745 20.1967 16.6757C19.3398 15.9429 18.3814 15.3506 17.3378 14.9096C17.1497 14.8302 16.9601 14.7567 16.7689 14.6876C16.3074 15.0463 15.5445 15.7665 14.8581 16.7984C14.2496 17.7134 13.7821 18.7364 13.4691 19.8396C13.0971 21.1463 12.9428 22.5706 13.0075 24.0765H24.0346ZM13.0413 14.0423C12.7091 14.0423 12.3784 14.0578 12.0521 14.0864C11.592 14.3775 10.6101 15.1543 9.68993 16.3551C8.97413 17.2878 8.39205 18.3373 7.95988 19.472C7.42484 20.8817 7.11911 22.4309 7.05297 24.0765H12.0036C11.9374 22.4648 12.1094 20.9361 12.5136 19.5279C12.8605 18.3204 13.3794 17.1989 14.0541 16.195C14.6097 15.3696 15.1786 14.7611 15.6269 14.3466C14.7861 14.1452 13.9218 14.0423 13.0413 14.0423ZM10.203 10.2029C9.446 10.961 9.02855 11.969 9.02855 13.0413C9.02855 13.2659 9.04764 13.4878 9.08297 13.7049C10.3236 13.2735 11.6552 13.0387 13.0414 13.0387C14.4289 13.0387 15.7607 13.2735 17.0013 13.7049C17.0365 13.4874 17.0556 13.2658 17.0556 13.0413C17.0556 11.969 16.6382 10.961 15.8797 10.2029C15.1213 9.44486 14.1144 9.02741 13.0414 9.02741C11.9698 9.02741 10.9615 9.44486 10.203 10.2029ZM5.2377 17.2753C4.22346 18.2888 3.4268 19.4699 2.87116 20.784C2.42582 21.8371 2.15094 22.9403 2.04953 24.0765H6.04762C6.11672 22.2943 6.44889 20.6135 7.03538 19.0818C7.50725 17.8508 8.1437 16.7146 8.92568 15.7018C9.30489 15.2123 9.68118 14.7993 10.0266 14.4583C9.59298 14.5817 9.16524 14.7317 8.74633 14.9095C7.43223 15.4652 6.25044 16.2611 5.2377 17.2753Z" fill="#FF9E0A"/>
<path d="M9.34617 7.64351L9.69281 7.4439L9.69256 7.44348L9.34617 7.64351ZM10.0312 7.82723L9.83187 7.48041L9.83091 7.48097L10.0312 7.82723ZM6.83706 3.29853L6.49045 3.49817L6.49067 3.49856L6.83706 3.29853ZM7.02079 2.61321L6.82144 2.26642L6.82059 2.26691L7.02079 2.61321ZM7.70724 2.79693L8.05368 2.59698L8.05296 2.59574L7.70724 2.79693ZM10.2149 7.14191L9.86844 7.34186L9.86918 7.34313L10.2149 7.14191ZM7.14263 10.2148L7.34283 9.86846L7.34264 9.86835L7.14263 10.2148ZM2.79764 7.70602L2.59739 8.05228L2.59763 8.05243L2.79764 7.70602ZM7.82762 10.031L8.17423 10.2307L8.17423 10.2307L7.82762 10.031ZM7.64389 9.34571L7.8441 8.99941L7.8439 8.9993L7.64389 9.34571ZM3.29891 6.83698L3.09871 7.18327L3.0989 7.18338L3.29891 6.83698ZM18.2565 10.031L18.6032 9.83137L18.6022 9.82977L18.2565 10.031ZM18.9415 10.2143L18.7415 9.86791L18.7413 9.86807L18.9415 10.2143ZM18.4388 9.34566L18.2388 8.99923L18.2386 8.99937L18.4388 9.34566ZM22.7852 6.83693L22.9852 7.18336L22.9855 7.18319L22.7852 6.83693ZM23.4702 7.02065L23.8169 6.82102L23.8169 6.82101L23.4702 7.02065ZM23.2865 7.70597L23.4865 8.05239L23.4867 8.05227L23.2865 7.70597ZM16.738 7.64356L17.0837 7.84477L17.0844 7.8435L16.738 7.64356ZM16.0515 7.82728L15.8513 8.17355L15.8523 8.1741L16.0515 7.82728ZM19.2456 3.29857L18.8999 3.09739L18.8992 3.09863L19.2456 3.29857ZM19.0619 2.61325L18.8617 2.95955L18.8626 2.96007L19.0619 2.61325ZM18.3769 2.79698L18.7233 2.99701L18.7235 2.99662L18.3769 2.79698ZM15.8678 7.14196L15.5214 6.94193L15.5212 6.94232L15.8678 7.14196ZM17.9507 14.082L17.5593 13.9998L17.4929 14.3155L17.7875 14.4472L17.9507 14.082ZM25.0826 25.0797V25.4797H25.4826V25.0797H25.0826ZM1.00146 25.0797H0.601465V25.4797H1.00146V25.0797ZM8.1334 14.082L8.29659 14.4472L8.59119 14.3155L8.52486 13.9998L8.1334 14.082ZM23.2129 20.784L22.8445 20.9397L22.8445 20.9398L23.2129 20.784ZM24.0346 24.0765V24.4765H24.4719L24.433 24.0409L24.0346 24.0765ZM20.9331 17.3628L21.219 17.0831L20.9084 16.7657L20.6251 17.1076L20.9331 17.3628ZM20.1217 18.621L19.7644 18.4412L19.7643 18.4416L20.1217 18.621ZM19.0928 24.0391L19.1063 24.4388L19.5061 24.4254L19.4926 24.0256L19.0928 24.0391ZM18.0889 24.0729L17.6891 24.0863L17.7025 24.4861L18.1023 24.4727L18.0889 24.0729ZM20.1967 16.6757L20.5014 16.9348L20.7599 16.6309L20.4567 16.3717L20.1967 16.6757ZM17.3378 14.9096L17.4935 14.5411L17.4933 14.5411L17.3378 14.9096ZM16.7689 14.6876L16.9049 14.3115L16.6976 14.2365L16.5235 14.3718L16.7689 14.6876ZM14.8581 16.7984L14.5251 16.5768L14.525 16.5769L14.8581 16.7984ZM13.4691 19.8396L13.8538 19.9491L13.8539 19.9488L13.4691 19.8396ZM13.0075 24.0765L12.6079 24.0937L12.6243 24.4765H13.0075V24.0765ZM12.0521 14.0864L12.0171 13.6879L11.9203 13.6964L11.8382 13.7484L12.0521 14.0864ZM9.68993 16.3551L10.0072 16.5987L10.0074 16.5984L9.68993 16.3551ZM7.95988 19.472L7.58607 19.3297L7.58591 19.3301L7.95988 19.472ZM7.05297 24.0765L6.6533 24.0604L6.63657 24.4765H7.05297V24.0765ZM12.0036 24.0765V24.4765H12.4203L12.4032 24.0601L12.0036 24.0765ZM12.5136 19.5279L12.1292 19.4175L12.1291 19.4175L12.5136 19.5279ZM14.0541 16.195L13.7222 15.9716L13.7221 15.9718L14.0541 16.195ZM15.6269 14.3466L15.8984 14.6403L16.4481 14.1319L15.72 13.9576L15.6269 14.3466ZM10.203 10.2029L9.92023 9.92003L9.91995 9.9203L10.203 10.2029ZM9.08297 13.7049L8.68816 13.7692L8.76461 14.2392L9.21435 14.0828L9.08297 13.7049ZM17.0013 13.7049L16.8699 14.0828L17.3198 14.2392L17.3961 13.769L17.0013 13.7049ZM15.8797 10.2029L16.1625 9.92003L15.8797 10.2029ZM2.87116 20.784L3.23957 20.9398L3.23958 20.9397L2.87116 20.784ZM5.2377 17.2753L5.52044 17.5583L5.52075 17.558L5.2377 17.2753ZM2.04953 24.0765L1.65111 24.0409L1.61224 24.4765H2.04953V24.0765ZM6.04762 24.0765V24.4765H6.43241L6.44732 24.092L6.04762 24.0765ZM7.03538 19.0818L6.66188 18.9386L6.66183 18.9388L7.03538 19.0818ZM8.92568 15.7018L8.60946 15.4569L8.60908 15.4574L8.92568 15.7018ZM10.0266 14.4583L10.3076 14.7429L9.91707 14.0736L10.0266 14.4583ZM8.74633 14.9095L8.90211 15.278L8.90264 15.2777L8.74633 14.9095ZM13.0413 7.42065C13.5396 7.42065 13.944 7.0171 13.944 6.51868H13.144C13.144 6.57444 13.0986 6.62065 13.0413 6.62065V7.42065ZM12.14 6.51868C12.14 7.0163 12.5436 7.42065 13.0413 7.42065V6.62065C12.9862 6.62065 12.94 6.57525 12.94 6.51868H12.14ZM12.14 1.5016V6.51868H12.94V1.5016H12.14ZM13.0413 0.6C12.544 0.6 12.14 1.00359 12.14 1.5016H12.94C12.94 1.44542 12.9858 1.4 13.0413 1.4V0.6ZM13.944 1.5016C13.944 1.00281 13.5392 0.6 13.0413 0.6V1.4C13.099 1.4 13.144 1.4462 13.144 1.5016H13.944ZM13.944 6.51868V1.5016H13.144V6.51868H13.944ZM8.99954 7.84312C9.24812 8.27481 9.80034 8.4228 10.2314 8.1735L9.83091 7.48097C9.78278 7.5088 9.7206 7.49217 9.6928 7.4439L8.99954 7.84312ZM6.49067 3.49856L8.99978 7.84354L9.69256 7.44348L7.18346 3.09849L6.49067 3.49856ZM6.82059 2.26691C6.38991 2.5159 6.24214 3.06706 6.49045 3.49817L7.18368 3.09889C7.1556 3.05013 7.17246 2.98756 7.22099 2.9595L6.82059 2.26691ZM8.05296 2.59574C7.80297 2.16616 7.25392 2.01782 6.82144 2.26642L7.22013 2.95999C7.26978 2.93146 7.3322 2.94775 7.36151 2.99812L8.05296 2.59574ZM10.5613 6.94197L8.05368 2.59699L7.36079 2.99687L9.86844 7.34186L10.5613 6.94197ZM10.2305 8.17405C10.6632 7.92537 10.8122 7.3729 10.5606 6.9407L9.86918 7.34313C9.89692 7.39079 9.88123 7.45205 9.83187 7.48042L10.2305 8.17405ZM7.34264 9.86835L2.99765 7.35962L2.59763 8.05243L6.94262 10.5612L7.34264 9.86835ZM7.481 9.83139C7.45321 9.87963 7.39099 9.8963 7.34283 9.86846L6.94242 10.561C7.37346 10.8102 7.92564 10.6623 8.17423 10.2307L7.481 9.83139ZM7.44369 9.692C7.49222 9.72006 7.50908 9.78263 7.481 9.83139L8.17423 10.2307C8.42254 9.79956 8.27477 9.2484 7.8441 8.99941L7.44369 9.692ZM3.0989 7.18338L7.44388 9.69211L7.8439 8.9993L3.49892 6.49057L3.0989 7.18338ZM2.96054 7.22034C2.98832 7.1721 3.05054 7.15542 3.09871 7.18327L3.49911 6.49068C3.06807 6.24149 2.5159 6.38944 2.2673 6.82106L2.96054 7.22034ZM2.9979 7.35976C2.94927 7.33164 2.93248 7.26906 2.96054 7.22034L2.2673 6.82106C2.01898 7.2522 2.16681 7.80327 2.59739 8.05228L2.9979 7.35976ZM1.50272 13.9429H6.51943V13.1429H1.50272V13.9429ZM0.6 13.0413C0.6 13.54 1.00472 13.9429 1.50272 13.9429V13.1429C1.44504 13.1429 1.4 13.0967 1.4 13.0413H0.6ZM1.50272 12.1393C1.00433 12.1393 0.6 12.543 0.6 13.0413H1.4C1.4 12.9855 1.44543 12.9393 1.50272 12.9393V12.1393ZM6.51943 12.1393H1.50272V12.9393H6.51943V12.1393ZM7.42065 13.0413C7.42065 12.5445 7.01929 12.1393 6.51943 12.1393V12.9393C6.57517 12.9393 6.62065 12.984 6.62065 13.0413H7.42065ZM6.51943 13.9429C7.0189 13.9429 7.42065 13.5386 7.42065 13.0413H6.62065C6.62065 13.0982 6.57556 13.1429 6.51943 13.1429V13.9429ZM19.5647 13.1429C19.507 13.1429 19.462 13.0967 19.462 13.0413H18.662C18.662 13.5401 19.0668 13.9429 19.5647 13.9429V13.1429ZM24.5814 13.1429H19.5647V13.9429H24.5814V13.1429ZM24.6827 13.0413C24.6827 13.0975 24.6369 13.1429 24.5814 13.1429V13.9429C25.0787 13.9429 25.4827 13.5393 25.4827 13.0413H24.6827ZM24.5814 12.9393C24.6365 12.9393 24.6827 12.9847 24.6827 13.0413H25.4827C25.4827 12.5437 25.0791 12.1393 24.5814 12.1393V12.9393ZM19.5647 12.9393H24.5814V12.1393H19.5647V12.9393ZM19.462 13.0413C19.462 12.9855 19.5074 12.9393 19.5647 12.9393V12.1393C19.0663 12.1393 18.662 12.543 18.662 13.0413H19.462ZM17.9099 10.2306C18.1588 10.6627 18.7112 10.8096 19.1418 10.5606L18.7413 9.86807C18.6927 9.89617 18.6307 9.87918 18.6032 9.83137L17.9099 10.2306ZM18.2386 8.99937C17.8079 9.24837 17.6595 9.80039 17.9108 10.2322L18.6022 9.82977C18.5743 9.78171 18.5905 9.72 18.639 9.69196L18.2386 8.99937ZM22.5853 6.4905L18.2388 8.99923L18.6388 9.6921L22.9852 7.18336L22.5853 6.4905ZM23.8169 6.82101C23.5683 6.38945 23.0161 6.24134 22.585 6.49067L22.9855 7.18319C23.0336 7.15538 23.0958 7.17199 23.1236 7.22029L23.8169 6.82101ZM23.4867 8.05227C23.9174 7.80328 24.0652 7.25212 23.8169 6.82102L23.1236 7.22029C23.1517 7.26905 23.1348 7.33162 23.0863 7.35968L23.4867 8.05227ZM19.1415 10.5607L23.4865 8.05239L23.0865 7.35956L18.7415 9.86791L19.1415 10.5607ZM16.3923 7.44234C16.363 7.49269 16.3005 7.50901 16.2508 7.48046L15.8523 8.1741C16.2847 8.42259 16.8337 8.27429 17.0837 7.84477L16.3923 7.44234ZM18.8992 3.09863L16.3916 7.44361L17.0844 7.8435L19.5921 3.49852L18.8992 3.09863ZM18.8626 2.96007C18.912 2.98843 18.9277 3.04966 18.8999 3.09739L19.5914 3.49976C19.8429 3.06753 19.694 2.51512 19.2612 2.26644L18.8626 2.96007ZM18.7235 2.99662C18.7513 2.94837 18.8136 2.9317 18.8617 2.95955L19.2621 2.26696C18.8311 2.01776 18.2789 2.16572 18.0303 2.59734L18.7235 2.99662ZM16.2142 7.34199L18.7233 2.99701L18.0305 2.59695L15.5214 6.94193L16.2142 7.34199ZM16.2518 7.48102C16.2032 7.45289 16.1864 7.39032 16.2144 7.3416L15.5212 6.94232C15.2729 7.37347 15.4207 7.92453 15.8513 8.17354L16.2518 7.48102ZM18.3422 14.1642C18.4182 13.8023 18.4595 13.4268 18.4595 13.0413H17.6595C17.6595 13.3695 17.6244 13.6899 17.5593 13.9998L18.3422 14.1642ZM25.4826 25.0797C25.4826 20.0142 22.4566 15.6574 18.1139 13.7168L17.7875 14.4472C21.8526 16.2637 24.6826 20.341 24.6826 25.0797H25.4826ZM1.00146 25.4797H25.0826V24.6797H1.00146V25.4797ZM7.97021 13.7168C3.62743 15.6574 0.601465 20.015 0.601465 25.0797H1.40146C1.40146 20.3418 4.23152 16.2637 8.29659 14.4472L7.97021 13.7168ZM7.6246 13.0413C7.6246 13.4268 7.66593 13.8023 7.74194 14.1642L8.52486 13.9998C8.45976 13.6899 8.4246 13.3695 8.4246 13.0413H7.6246ZM13.0413 7.62385C10.0496 7.62385 7.6246 10.0494 7.6246 13.0413H8.4246C8.4246 10.4911 10.4915 8.42385 13.0413 8.42385V7.62385ZM18.4595 13.0413C18.4595 10.0492 16.0329 7.62385 13.0413 7.62385V8.42385C15.5913 8.42385 17.6595 10.4912 17.6595 13.0413H18.4595ZM22.8445 20.9398C23.2737 21.9546 23.5385 23.0172 23.6362 24.1121L24.433 24.0409C24.3279 22.8634 24.0429 21.7197 23.5813 20.6282L22.8445 20.9398ZM20.6472 17.6426C21.5856 18.6014 22.3247 19.7096 22.8445 20.9397L23.5814 20.6283C23.0223 19.3051 22.2269 18.1129 21.219 17.0831L20.6472 17.6426ZM20.4791 18.8008C20.7548 18.2528 21.0372 17.8641 21.2411 17.618L20.6251 17.1076C20.3881 17.3936 20.0708 17.8324 19.7644 18.4412L20.4791 18.8008ZM19.4926 24.0256C19.4068 21.4849 19.9901 19.7746 20.4792 18.8005L19.7643 18.4416C19.2186 19.5284 18.6025 21.3707 18.6931 24.0526L19.4926 24.0256ZM18.1023 24.4727L19.1063 24.4388L19.0794 23.6393L18.0754 23.6731L18.1023 24.4727ZM19.892 16.4165C19.0705 17.3826 17.5443 19.7766 17.6891 24.0863L18.4887 24.0595C18.3513 19.9702 19.7943 17.7664 20.5014 16.9348L19.892 16.4165ZM17.1821 15.2781C18.188 15.7031 19.1112 16.2737 19.9368 16.9797L20.4567 16.3717C19.5685 15.6121 18.5749 14.9981 17.4935 14.5411L17.1821 15.2781ZM16.6329 15.0638C16.8184 15.1308 17.0014 15.2018 17.1823 15.2781L17.4933 14.5411C17.2979 14.4586 17.1018 14.3826 16.9049 14.3115L16.6329 15.0638ZM15.1911 17.0199C15.8513 16.0276 16.5834 15.3384 17.0144 15.0035L16.5235 14.3718C16.0315 14.7541 15.2378 15.5054 14.5251 16.5768L15.1911 17.0199ZM13.8539 19.9488C14.1561 18.8838 14.6066 17.8989 15.1912 17.0199L14.525 16.5769C13.8926 17.5278 13.4082 18.589 13.0843 19.7304L13.8539 19.9488ZM13.4071 24.0593C13.3441 22.5913 13.4948 21.2102 13.8538 19.9491L13.0843 19.7301C12.6994 21.0824 12.5416 22.5499 12.6079 24.0937L13.4071 24.0593ZM24.0346 23.6765H13.0075V24.4765H24.0346V23.6765ZM12.0871 14.4849C12.4025 14.4572 12.7215 14.4423 13.0413 14.4423V13.6423C12.6968 13.6423 12.3544 13.6583 12.0171 13.6879L12.0871 14.4849ZM10.0074 16.5984C10.8984 15.4358 11.8449 14.6908 12.2659 14.4244L11.8382 13.7484C11.3391 14.0641 10.3219 14.8728 9.37243 16.1118L10.0074 16.5984ZM8.33369 19.6144C8.75255 18.5146 9.31594 17.4994 10.0072 16.5987L9.37261 16.1116C8.63232 17.0761 8.03156 18.16 7.58607 19.3297L8.33369 19.6144ZM7.45265 24.0925C7.51721 22.4863 7.8154 20.9799 8.33385 19.614L7.58591 19.3301C7.03428 20.7834 6.72101 22.3756 6.6533 24.0604L7.45265 24.0925ZM12.0036 23.6765H7.05297V24.4765H12.0036V23.6765ZM12.1291 19.4175C11.712 20.8707 11.5362 22.4425 11.6039 24.0929L12.4032 24.0601C12.3387 22.487 12.5068 21.0015 12.8981 19.6383L12.1291 19.4175ZM13.7221 15.9718C13.0233 17.0116 12.4872 18.1713 12.1292 19.4175L12.8981 19.6384C13.2339 18.4695 13.7354 17.3862 14.386 16.4181L13.7221 15.9718ZM15.3553 14.0529C14.8877 14.4852 14.2976 15.1169 13.7222 15.9716L14.3859 16.4183C14.9218 15.6223 15.4694 15.0369 15.8984 14.6403L15.3553 14.0529ZM13.0413 14.4423C13.8904 14.4423 14.7235 14.5415 15.5337 14.7356L15.72 13.9576C14.8487 13.7489 13.9531 13.6423 13.0413 13.6423V14.4423ZM9.42855 13.0413C9.42855 12.075 9.8039 11.1687 10.486 10.4856L9.91995 9.9203C9.08809 10.7534 8.62855 11.863 8.62855 13.0413H9.42855ZM9.47778 13.6407C9.44572 13.4436 9.42855 13.2432 9.42855 13.0413H8.62855C8.62855 13.2885 8.64957 13.5319 8.68816 13.7692L9.47778 13.6407ZM13.0414 12.6387C11.6098 12.6387 10.2337 12.8813 8.95159 13.3271L9.21435 14.0828C10.4134 13.6658 11.7007 13.4387 13.0414 13.4387V12.6387ZM17.1326 13.3271C15.8505 12.8813 14.4744 12.6387 13.0414 12.6387V13.4387C14.3835 13.4387 15.6709 13.6658 16.8699 14.0828L17.1326 13.3271ZM16.6556 13.0413C16.6556 13.2431 16.6385 13.4432 16.6064 13.6409L17.3961 13.769C17.4346 13.5316 17.4556 13.2885 17.4556 13.0413H16.6556ZM15.597 10.4859C16.2803 11.1689 16.6556 12.0751 16.6556 13.0413H17.4556C17.4556 11.863 16.9961 10.7532 16.1625 9.92003L15.597 10.4859ZM13.0414 9.42741C14.0082 9.42741 14.9134 9.80267 15.597 10.4859L16.1625 9.92003C15.3291 9.08705 14.2206 8.62741 13.0414 8.62741V9.42741ZM10.4858 10.4859C11.1692 9.80273 12.0759 9.42741 13.0414 9.42741V8.62741C11.8638 8.62741 10.7537 9.08699 9.92023 9.92003L10.4858 10.4859ZM3.23958 20.9397C3.77502 19.6734 4.54249 18.5355 5.52044 17.5583L4.95496 16.9924C3.90442 18.0422 3.07858 19.2663 2.50274 20.6282L3.23958 20.9397ZM2.44795 24.1121C2.54567 23.0172 2.81044 21.9546 3.23957 20.9398L2.50275 20.6282C2.0412 21.7196 1.75621 22.8633 1.65111 24.0409L2.44795 24.1121ZM6.04762 23.6765H2.04953V24.4765H6.04762V23.6765ZM6.66183 18.9388C6.05839 20.5147 5.71856 22.239 5.64792 24.061L6.44732 24.092C6.51487 22.3495 6.83939 20.7122 7.40893 19.2249L6.66183 18.9388ZM8.60908 15.4574C7.80275 16.5016 7.14736 17.6722 6.66188 18.9386L7.40888 19.225C7.86714 18.0295 8.48465 16.9275 9.24228 15.9463L8.60908 15.4574ZM9.7456 14.1736C9.38863 14.526 9.0004 14.9522 8.60946 15.4569L9.2419 15.9468C9.60938 15.4724 9.97372 15.0726 10.3076 14.7429L9.7456 14.1736ZM8.90264 15.2777C9.30583 15.1066 9.71793 14.9621 10.1362 14.843L9.91707 14.0736C9.46804 14.2014 9.02464 14.3568 8.59002 14.5414L8.90264 15.2777ZM5.52075 17.558C6.49701 16.5803 7.63559 15.8135 8.90211 15.278L8.59055 14.5411C7.22887 15.1169 6.00387 15.9419 4.95465 16.9927L5.52075 17.558Z" fill="#FF9E0A" mask="url(#path-1-outside-1_720_7266)"/>
</svg>
