<svg width="28" height="24" viewBox="0 0 28 24" fill="none" xmlns="http://www.w3.org/2000/svg">
<mask id="path-1-outside-1_720_7254" maskUnits="userSpaceOnUse" x="0" y="-0.138382" width="28" height="24" fill="black">
<rect fill="white" y="-0.138382" width="28" height="24"/>
<path d="M22.6661 8.87165V11.0052H21.3347L22.8153 7.7369C23.1438 7.0115 22.9264 6.1584 22.3328 5.4951L24.4807 3.3877C24.6926 3.1795 24.6934 2.842 24.4816 2.6334C24.2705 2.4248 23.9277 2.424 23.7166 2.63185L21.9869 4.32875L23.0707 1.93615L23.0684 1.93535C23.0755 1.92285 23.0819 1.90995 23.0882 1.8967C23.2104 1.62795 23.0874 1.3127 22.8137 1.1928C22.5407 1.0725 22.2202 1.1936 22.0988 1.46235C22.0933 1.47565 22.0885 1.4889 22.0837 1.5026L22.0805 1.5018L21.03 3.8233L21.1561 1.4225C21.1712 1.12835 20.9418 0.877596 20.6427 0.862346C20.3444 0.847096 20.0897 1.0733 20.0746 1.36745L19.9127 4.4194C19.9127 4.4194 19.9111 4.4194 19.9103 4.4194C19.0018 4.4194 18.2004 4.8323 17.8688 5.5643L15.4043 11.0053H14.7243C13.9523 9.1764 12.1448 8.04515 10.2183 8.04515C9.96751 8.04515 9.71442 8.0643 9.46132 8.10375L9.27247 6.93265C9.22484 6.642 8.94793 6.4436 8.65197 6.4897C8.35678 6.5362 8.15528 6.8096 8.20286 7.10025L8.41076 8.38815C7.14519 8.88345 6.2002 9.8483 5.71062 11.0053H5.33291V8.87175H1V22.7385H27V8.87165H22.6661ZM17.9752 7.94705L18.9646 8.3818C19.2376 8.5017 19.5582 8.38065 19.6795 8.1119C19.8017 7.84275 19.6795 7.5275 19.4058 7.4076L18.4163 6.97285L18.8575 5.999C19.0011 5.6826 19.4042 5.4861 19.9104 5.4861C20.1985 5.4861 20.4999 5.5521 20.7833 5.67635C21.2141 5.8654 21.5664 6.17675 21.7521 6.53025C21.837 6.69195 21.96 7.0076 21.8258 7.30215L20.5047 10.2189L19.5153 9.78455C19.2415 9.66465 18.9218 9.78535 18.8004 10.0544C18.6782 10.3232 18.8004 10.6388 19.0742 10.7587H19.0734L19.6351 11.0052H16.5898L17.9752 7.94705ZM8.95047 9.3271C9.36149 9.18415 9.78836 9.11145 10.2184 9.11145C10.996 9.11145 11.7466 9.34385 12.3893 9.7837C12.8599 10.1052 13.2431 10.5212 13.5208 11.0052H6.91444C7.36513 10.2212 8.07921 9.63025 8.95047 9.3271ZM2.08306 9.93845H4.25V11.0052H2.08306V9.93845ZM25.9161 21.672H2.08306V17.4048H25.9161V21.672ZM25.9161 16.3385H2.08306V12.0717H25.9161V16.3385ZM25.9161 11.0052H23.75V9.93845H25.9161V11.0052Z"/>
</mask>
<path d="M22.6661 8.87165V11.0052H21.3347L22.8153 7.7369C23.1438 7.0115 22.9264 6.1584 22.3328 5.4951L24.4807 3.3877C24.6926 3.1795 24.6934 2.842 24.4816 2.6334C24.2705 2.4248 23.9277 2.424 23.7166 2.63185L21.9869 4.32875L23.0707 1.93615L23.0684 1.93535C23.0755 1.92285 23.0819 1.90995 23.0882 1.8967C23.2104 1.62795 23.0874 1.3127 22.8137 1.1928C22.5407 1.0725 22.2202 1.1936 22.0988 1.46235C22.0933 1.47565 22.0885 1.4889 22.0837 1.5026L22.0805 1.5018L21.03 3.8233L21.1561 1.4225C21.1712 1.12835 20.9418 0.877596 20.6427 0.862346C20.3444 0.847096 20.0897 1.0733 20.0746 1.36745L19.9127 4.4194C19.9127 4.4194 19.9111 4.4194 19.9103 4.4194C19.0018 4.4194 18.2004 4.8323 17.8688 5.5643L15.4043 11.0053H14.7243C13.9523 9.1764 12.1448 8.04515 10.2183 8.04515C9.96751 8.04515 9.71442 8.0643 9.46132 8.10375L9.27247 6.93265C9.22484 6.642 8.94793 6.4436 8.65197 6.4897C8.35678 6.5362 8.15528 6.8096 8.20286 7.10025L8.41076 8.38815C7.14519 8.88345 6.2002 9.8483 5.71062 11.0053H5.33291V8.87175H1V22.7385H27V8.87165H22.6661ZM17.9752 7.94705L18.9646 8.3818C19.2376 8.5017 19.5582 8.38065 19.6795 8.1119C19.8017 7.84275 19.6795 7.5275 19.4058 7.4076L18.4163 6.97285L18.8575 5.999C19.0011 5.6826 19.4042 5.4861 19.9104 5.4861C20.1985 5.4861 20.4999 5.5521 20.7833 5.67635C21.2141 5.8654 21.5664 6.17675 21.7521 6.53025C21.837 6.69195 21.96 7.0076 21.8258 7.30215L20.5047 10.2189L19.5153 9.78455C19.2415 9.66465 18.9218 9.78535 18.8004 10.0544C18.6782 10.3232 18.8004 10.6388 19.0742 10.7587H19.0734L19.6351 11.0052H16.5898L17.9752 7.94705ZM8.95047 9.3271C9.36149 9.18415 9.78836 9.11145 10.2184 9.11145C10.996 9.11145 11.7466 9.34385 12.3893 9.7837C12.8599 10.1052 13.2431 10.5212 13.5208 11.0052H6.91444C7.36513 10.2212 8.07921 9.63025 8.95047 9.3271ZM2.08306 9.93845H4.25V11.0052H2.08306V9.93845ZM25.9161 21.672H2.08306V17.4048H25.9161V21.672ZM25.9161 16.3385H2.08306V12.0717H25.9161V16.3385ZM25.9161 11.0052H23.75V9.93845H25.9161V11.0052Z" fill="#FF9E0A"/>
<path d="M22.6661 8.87165V8.47165H22.2661V8.87165H22.6661ZM22.6661 11.0052V11.4052H23.0661V11.0052H22.6661ZM21.3347 11.0052L20.9703 10.8402L20.7144 11.4052H21.3347V11.0052ZM22.8153 7.7369L23.1796 7.90195L23.1796 7.90191L22.8153 7.7369ZM22.3328 5.4951L22.0527 5.20957L21.78 5.47713L22.0348 5.76183L22.3328 5.4951ZM24.4807 3.3877L24.7609 3.67322L24.7611 3.67299L24.4807 3.3877ZM24.4816 2.6334L24.2004 2.91788L24.2009 2.91842L24.4816 2.6334ZM23.7166 2.63185L23.9968 2.91739L23.9973 2.91687L23.7166 2.63185ZM21.9869 4.32875L21.6225 4.16369L22.267 4.61429L21.9869 4.32875ZM23.0707 1.93615L23.4351 2.1012L23.6179 1.69771L23.1979 1.55689L23.0707 1.93615ZM23.0684 1.93535L22.7213 1.73653L22.4789 2.1596L22.9412 2.3146L23.0684 1.93535ZM23.0882 1.8967L23.449 2.06955L23.4524 2.06224L23.0882 1.8967ZM22.8137 1.1928L22.6524 1.55882L22.6532 1.55918L22.8137 1.1928ZM22.0988 1.46235L21.7341 1.29764L21.7295 1.30865L22.0988 1.46235ZM22.0837 1.5026L21.9867 1.89066L22.3412 1.97925L22.4614 1.63422L22.0837 1.5026ZM22.0805 1.5018L22.1775 1.11373L21.8537 1.03281L21.7161 1.33688L22.0805 1.5018ZM21.03 3.8233L20.6305 3.80231L21.3944 3.98821L21.03 3.8233ZM21.1561 1.4225L21.5555 1.44348L21.5556 1.44298L21.1561 1.4225ZM20.6427 0.862346L20.6223 1.26182L20.6224 1.26183L20.6427 0.862346ZM20.0746 1.36745L20.474 1.38863L20.4741 1.38793L20.0746 1.36745ZM19.9127 4.4194V4.8194H20.2921L20.3122 4.44058L19.9127 4.4194ZM17.8688 5.5643L17.5044 5.39922L17.5044 5.39926L17.8688 5.5643ZM15.4043 11.0053V11.4053H15.6622L15.7687 11.1703L15.4043 11.0053ZM14.7243 11.0053L14.3558 11.1609L14.459 11.4053H14.7243V11.0053ZM9.46132 8.10375L9.06643 8.16743L9.12977 8.56026L9.52293 8.49897L9.46132 8.10375ZM9.27247 6.93265L9.66737 6.86896L9.6672 6.86796L9.27247 6.93265ZM8.65197 6.4897L8.59041 6.09446L8.58973 6.09457L8.65197 6.4897ZM8.20286 7.10025L8.59775 7.0365L8.59761 7.03562L8.20286 7.10025ZM8.41076 8.38815L8.55654 8.76064L8.85708 8.64302L8.80565 8.3244L8.41076 8.38815ZM5.71062 11.0053V11.4053H5.9757L6.079 11.1612L5.71062 11.0053ZM5.33291 11.0053H4.93291V11.4053H5.33291V11.0053ZM5.33291 8.87175H5.73291V8.47175H5.33291V8.87175ZM1 8.87175V8.47175H0.6V8.87175H1ZM1 22.7385H0.6V23.1385H1V22.7385ZM27 22.7385V23.1385H27.4V22.7385H27ZM27 8.87165H27.4V8.47165H27V8.87165ZM17.9752 7.94705L18.1361 7.58084L17.774 7.42174L17.6108 7.78199L17.9752 7.94705ZM18.9646 8.3818L18.8037 8.748L18.8038 8.74802L18.9646 8.3818ZM19.6795 8.1119L19.3153 7.94656L19.315 7.94727L19.6795 8.1119ZM19.4058 7.4076L19.2449 7.7738L19.2453 7.774L19.4058 7.4076ZM18.4163 6.97285L18.052 6.80778L17.885 7.1763L18.2554 7.33905L18.4163 6.97285ZM18.8575 5.999L18.4933 5.83368L18.4932 5.83393L18.8575 5.999ZM20.7833 5.67635L20.944 5.31006L20.9439 5.31003L20.7833 5.67635ZM21.7521 6.53025L22.1062 6.34429L22.1062 6.34426L21.7521 6.53025ZM21.8258 7.30215L21.4618 7.13639L21.4615 7.13711L21.8258 7.30215ZM20.5047 10.2189L20.3439 10.5852L20.706 10.7442L20.8691 10.384L20.5047 10.2189ZM19.5153 9.78455L19.6761 9.41829L19.6758 9.41815L19.5153 9.78455ZM18.8004 10.0544L19.1645 10.22L19.165 10.2189L18.8004 10.0544ZM19.0742 10.7587V11.1587L19.2346 10.3923L19.0742 10.7587ZM19.0734 10.7587V10.3587L18.9126 11.125L19.0734 10.7587ZM19.6351 11.0052V11.4052L19.7959 10.639L19.6351 11.0052ZM16.5898 11.0052L16.2255 10.8402L15.9695 11.4052H16.5898V11.0052ZM8.95047 9.3271L8.81907 8.94929L8.81902 8.94931L8.95047 9.3271ZM12.3893 9.7837L12.1634 10.1138L12.1637 10.114L12.3893 9.7837ZM13.5208 11.0052V11.4052H14.2114L13.8677 10.8061L13.5208 11.0052ZM6.91444 11.0052L6.56766 10.8058L6.2231 11.4052H6.91444V11.0052ZM2.08306 9.93845V9.53845H1.68306V9.93845H2.08306ZM4.25 9.93845H4.65V9.53845H4.25V9.93845ZM4.25 11.0052V11.4052H4.65V11.0052H4.25ZM2.08306 11.0052H1.68306V11.4052H2.08306V11.0052ZM25.9161 21.672V22.072H26.3161V21.672H25.9161ZM2.08306 21.672H1.68306V22.072H2.08306V21.672ZM2.08306 17.4048V17.0048H1.68306V17.4048H2.08306ZM25.9161 17.4048H26.3161V17.0048H25.9161V17.4048ZM25.9161 16.3385V16.7385H26.3161V16.3385H25.9161ZM2.08306 16.3385H1.68306V16.7385H2.08306V16.3385ZM2.08306 12.0717V11.6717H1.68306V12.0717H2.08306ZM25.9161 12.0717H26.3161V11.6717H25.9161V12.0717ZM25.9161 11.0052V11.4052H26.3161V11.0052H25.9161ZM23.75 11.0052H23.35V11.4052H23.75V11.0052ZM23.75 9.93845V9.53845H23.35V9.93845H23.75ZM25.9161 9.93845H26.3161V9.53845H25.9161V9.93845ZM22.2661 8.87165V11.0052H23.0661V8.87165H22.2661ZM22.6661 10.6052H21.3347V11.4052H22.6661V10.6052ZM21.699 11.1703L23.1796 7.90195L22.4509 7.57184L20.9703 10.8402L21.699 11.1703ZM23.1796 7.90191C23.5909 6.99377 23.2988 5.97477 22.6309 5.22836L22.0348 5.76183C22.5539 6.34202 22.6966 7.02922 22.4509 7.57189L23.1796 7.90191ZM22.613 5.78062L24.7609 3.67322L24.2006 3.10217L22.0527 5.20957L22.613 5.78062ZM24.7611 3.67299C25.1318 3.30868 25.1339 2.71431 24.7622 2.34837L24.2009 2.91842C24.253 2.96968 24.2534 3.05031 24.2004 3.1024L24.7611 3.67299ZM24.7627 2.34891C24.3967 1.98711 23.8036 1.98485 23.436 2.34682L23.9973 2.91687C24.0519 2.86314 24.1443 2.86248 24.2004 2.91788L24.7627 2.34891ZM23.4365 2.3463L21.7068 4.0432L22.267 4.61429L23.9968 2.91739L23.4365 2.3463ZM22.3512 4.4938L23.4351 2.1012L22.7064 1.77109L21.6225 4.16369L22.3512 4.4938ZM23.1979 1.55689L23.1955 1.55609L22.9412 2.3146L22.9436 2.3154L23.1979 1.55689ZM23.4155 2.13417C23.4304 2.10815 23.442 2.08409 23.449 2.06952L22.7275 1.72388C22.7248 1.7295 22.7232 1.73276 22.722 1.73505C22.7209 1.73721 22.7207 1.73746 22.7213 1.73653L23.4155 2.13417ZM23.4524 2.06224C23.6688 1.58609 23.4479 1.0339 22.9742 0.826408L22.6532 1.55918C22.727 1.5915 22.752 1.6698 22.7241 1.73115L23.4524 2.06224ZM22.975 0.82677C22.5046 0.619458 21.9475 0.825514 21.7342 1.29771L22.4633 1.62698C22.4928 1.56168 22.5768 1.52553 22.6524 1.55882L22.975 0.82677ZM21.7295 1.30865C21.7193 1.33315 21.7114 1.35539 21.706 1.37097L22.4614 1.63422C22.4656 1.6224 22.4672 1.61814 22.4681 1.61604L21.7295 1.30865ZM22.1807 1.11453L22.1775 1.11373L21.9835 1.88986L21.9867 1.89066L22.1807 1.11453ZM21.7161 1.33688L20.6655 3.65838L21.3944 3.98821L22.4449 1.66671L21.7161 1.33688ZM21.4294 3.84428L21.5555 1.44348L20.7566 1.40151L20.6305 3.80231L21.4294 3.84428ZM21.5556 1.44298C21.5822 0.922755 21.1774 0.489088 20.6631 0.462865L20.6224 1.26183C20.7063 1.2661 20.7601 1.33394 20.7566 1.40201L21.5556 1.44298ZM20.6632 0.462868C20.15 0.436639 19.7018 0.826441 19.6751 1.34696L20.4741 1.38793C20.4776 1.32015 20.5388 1.25755 20.6223 1.26182L20.6632 0.462868ZM19.6752 1.34626L19.5133 4.39821L20.3122 4.44058L20.474 1.38863L19.6752 1.34626ZM19.9127 4.4194C19.9127 4.0194 19.9127 4.0194 19.9127 4.0194C19.9127 4.0194 19.9127 4.0194 19.9127 4.0194C19.9127 4.0194 19.9127 4.0194 19.9127 4.0194C19.9127 4.0194 19.9127 4.0194 19.9127 4.0194C19.9127 4.0194 19.9127 4.0194 19.9127 4.0194C19.9127 4.0194 19.9127 4.0194 19.9127 4.0194C19.9127 4.0194 19.9127 4.0194 19.9127 4.0194C19.9127 4.0194 19.9127 4.0194 19.9127 4.0194C19.9127 4.0194 19.9127 4.0194 19.9127 4.0194C19.9127 4.0194 19.9127 4.0194 19.9127 4.0194C19.9127 4.0194 19.9127 4.0194 19.9127 4.0194C19.9127 4.0194 19.9127 4.0194 19.9127 4.0194C19.9127 4.0194 19.9127 4.0194 19.9127 4.0194C19.9127 4.0194 19.9127 4.0194 19.9127 4.0194C19.9127 4.0194 19.9127 4.0194 19.9127 4.0194C19.9127 4.0194 19.9127 4.0194 19.9127 4.0194C19.9127 4.0194 19.9127 4.0194 19.9127 4.0194C19.9127 4.0194 19.9127 4.0194 19.9127 4.0194C19.9127 4.0194 19.9127 4.0194 19.9127 4.0194C19.9127 4.0194 19.9127 4.0194 19.9127 4.0194C19.9127 4.0194 19.9127 4.0194 19.9127 4.0194C19.9127 4.0194 19.9127 4.0194 19.9127 4.0194C19.9127 4.0194 19.9127 4.0194 19.9127 4.0194C19.9127 4.0194 19.9127 4.0194 19.9127 4.0194C19.9127 4.0194 19.9127 4.0194 19.9127 4.0194C19.9127 4.0194 19.9127 4.0194 19.9127 4.0194C19.9127 4.0194 19.9127 4.0194 19.9127 4.0194C19.9127 4.0194 19.9127 4.0194 19.9127 4.0194C19.9127 4.0194 19.9127 4.0194 19.9127 4.0194C19.9127 4.0194 19.9127 4.0194 19.9127 4.0194C19.9127 4.0194 19.9127 4.0194 19.9127 4.0194C19.9127 4.0194 19.9127 4.0194 19.9127 4.0194C19.9127 4.0194 19.9127 4.0194 19.9127 4.0194C19.9127 4.0194 19.9127 4.0194 19.9127 4.0194C19.9127 4.0194 19.9127 4.0194 19.9127 4.0194C19.9127 4.0194 19.9127 4.0194 19.9127 4.0194C19.9127 4.0194 19.9127 4.0194 19.9127 4.0194C19.9127 4.0194 19.9127 4.0194 19.9127 4.0194C19.9127 4.0194 19.9127 4.0194 19.9127 4.0194C19.9127 4.0194 19.9127 4.0194 19.9127 4.0194C19.9127 4.0194 19.9127 4.0194 19.9127 4.0194C19.9127 4.0194 19.9127 4.0194 19.9127 4.0194C19.9127 4.0194 19.9127 4.0194 19.9127 4.0194C19.9127 4.0194 19.9127 4.0194 19.9127 4.0194C19.9127 4.0194 19.9127 4.0194 19.9127 4.0194C19.9127 4.0194 19.9127 4.0194 19.9127 4.0194C19.9127 4.0194 19.9127 4.0194 19.9127 4.0194C19.9127 4.0194 19.9127 4.0194 19.9127 4.0194C19.9127 4.0194 19.9127 4.0194 19.9127 4.0194C19.9127 4.0194 19.9127 4.0194 19.9127 4.0194C19.9127 4.0194 19.9127 4.0194 19.9127 4.0194C19.9127 4.0194 19.9127 4.0194 19.9127 4.0194C19.9127 4.0194 19.9127 4.0194 19.9127 4.0194C19.9127 4.0194 19.9127 4.0194 19.9127 4.0194C19.9127 4.0194 19.9127 4.0194 19.9127 4.0194C19.9127 4.0194 19.9127 4.0194 19.9127 4.0194C19.9127 4.0194 19.9127 4.0194 19.9127 4.0194C19.9127 4.0194 19.9127 4.0194 19.9127 4.0194C19.9127 4.0194 19.9127 4.0194 19.9127 4.0194C19.9127 4.0194 19.9127 4.0194 19.9127 4.0194C19.9127 4.0194 19.9127 4.0194 19.9127 4.0194C19.9127 4.0194 19.9126 4.0194 19.9126 4.0194C19.9126 4.0194 19.9126 4.0194 19.9126 4.0194C19.9126 4.0194 19.9126 4.0194 19.9126 4.0194C19.9126 4.0194 19.9126 4.0194 19.9126 4.0194C19.9126 4.0194 19.9126 4.0194 19.9126 4.0194C19.9126 4.0194 19.9126 4.0194 19.9126 4.0194C19.9126 4.0194 19.9126 4.0194 19.9126 4.0194C19.9126 4.0194 19.9126 4.0194 19.9126 4.0194C19.9126 4.0194 19.9126 4.0194 19.9126 4.0194C19.9126 4.0194 19.9126 4.0194 19.9126 4.0194C19.9126 4.0194 19.9126 4.0194 19.9126 4.0194C19.9126 4.0194 19.9126 4.0194 19.9126 4.0194C19.9126 4.0194 19.9126 4.0194 19.9126 4.0194C19.9126 4.0194 19.9126 4.0194 19.9126 4.0194C19.9126 4.0194 19.9126 4.0194 19.9126 4.0194C19.9126 4.0194 19.9126 4.0194 19.9126 4.0194C19.9126 4.0194 19.9126 4.0194 19.9126 4.0194C19.9126 4.0194 19.9126 4.0194 19.9126 4.0194C19.9126 4.0194 19.9126 4.0194 19.9126 4.0194C19.9126 4.0194 19.9126 4.0194 19.9126 4.0194C19.9126 4.0194 19.9126 4.0194 19.9126 4.0194C19.9126 4.0194 19.9126 4.0194 19.9126 4.0194C19.9126 4.0194 19.9126 4.0194 19.9126 4.0194C19.9126 4.0194 19.9126 4.0194 19.9126 4.0194C19.9126 4.0194 19.9126 4.0194 19.9126 4.0194C19.9126 4.0194 19.9126 4.0194 19.9126 4.0194C19.9126 4.0194 19.9126 4.0194 19.9126 4.0194C19.9126 4.0194 19.9126 4.0194 19.9126 4.0194C19.9126 4.0194 19.9126 4.0194 19.9126 4.0194C19.9126 4.0194 19.9126 4.0194 19.9126 4.0194C19.9126 4.0194 19.9126 4.0194 19.9126 4.0194C19.9126 4.0194 19.9126 4.0194 19.9126 4.0194C19.9126 4.0194 19.9126 4.0194 19.9126 4.0194C19.9126 4.0194 19.9126 4.0194 19.9126 4.0194C19.9126 4.0194 19.9126 4.0194 19.9126 4.0194C19.9126 4.0194 19.9126 4.0194 19.9126 4.0194C19.9126 4.0194 19.9126 4.0194 19.9126 4.0194C19.9126 4.0194 19.9126 4.0194 19.9126 4.0194C19.9126 4.0194 19.9126 4.0194 19.9126 4.0194C19.9126 4.0194 19.9125 4.0194 19.9125 4.0194C19.9125 4.0194 19.9125 4.0194 19.9125 4.0194C19.9125 4.0194 19.9125 4.0194 19.9125 4.0194C19.9125 4.0194 19.9125 4.0194 19.9125 4.0194C19.9125 4.0194 19.9125 4.0194 19.9125 4.0194C19.9125 4.0194 19.9125 4.0194 19.9125 4.0194C19.9125 4.0194 19.9125 4.0194 19.9125 4.0194C19.9125 4.0194 19.9125 4.0194 19.9125 4.0194C19.9125 4.0194 19.9125 4.0194 19.9125 4.0194C19.9125 4.0194 19.9125 4.0194 19.9125 4.0194C19.9125 4.0194 19.9125 4.0194 19.9125 4.0194C19.9125 4.0194 19.9125 4.0194 19.9125 4.0194C19.9125 4.0194 19.9125 4.0194 19.9125 4.0194C19.9125 4.0194 19.9125 4.0194 19.9125 4.0194C19.9125 4.0194 19.9125 4.0194 19.9125 4.0194C19.9125 4.0194 19.9125 4.0194 19.9125 4.0194C19.9125 4.0194 19.9125 4.0194 19.9125 4.0194C19.9125 4.0194 19.9125 4.0194 19.9125 4.0194C19.9125 4.0194 19.9125 4.0194 19.9125 4.0194C19.9125 4.0194 19.9125 4.0194 19.9125 4.0194C19.9125 4.0194 19.9125 4.0194 19.9125 4.0194C19.9125 4.0194 19.9125 4.0194 19.9125 4.0194C19.9125 4.0194 19.9125 4.0194 19.9125 4.0194C19.9125 4.0194 19.9125 4.0194 19.9125 4.0194C19.9125 4.0194 19.9125 4.0194 19.9125 4.0194C19.9125 4.0194 19.9125 4.0194 19.9125 4.0194C19.9125 4.0194 19.9125 4.0194 19.9125 4.0194C19.9125 4.0194 19.9125 4.0194 19.9125 4.0194C19.9125 4.0194 19.9125 4.0194 19.9125 4.0194C19.9125 4.0194 19.9124 4.0194 19.9124 4.0194C19.9124 4.0194 19.9124 4.0194 19.9124 4.0194C19.9124 4.0194 19.9124 4.0194 19.9124 4.0194C19.9124 4.0194 19.9124 4.0194 19.9124 4.0194C19.9124 4.0194 19.9124 4.0194 19.9124 4.0194C19.9124 4.0194 19.9124 4.0194 19.9124 4.0194C19.9124 4.0194 19.9124 4.0194 19.9124 4.0194C19.9124 4.0194 19.9124 4.0194 19.9124 4.0194C19.9124 4.0194 19.9124 4.0194 19.9124 4.0194C19.9124 4.0194 19.9124 4.0194 19.9124 4.0194C19.9124 4.0194 19.9124 4.0194 19.9124 4.0194C19.9124 4.0194 19.9124 4.0194 19.9124 4.0194C19.9124 4.0194 19.9124 4.0194 19.9124 4.0194C19.9124 4.0194 19.9124 4.0194 19.9124 4.0194C19.9124 4.0194 19.9124 4.0194 19.9124 4.0194C19.9124 4.0194 19.9124 4.0194 19.9124 4.0194C19.9124 4.0194 19.9124 4.0194 19.9124 4.0194C19.9124 4.0194 19.9124 4.0194 19.9124 4.0194C19.9124 4.0194 19.9124 4.0194 19.9124 4.0194C19.9124 4.0194 19.9124 4.0194 19.9124 4.0194C19.9124 4.0194 19.9124 4.0194 19.9124 4.0194C19.9124 4.0194 19.9124 4.0194 19.9124 4.0194C19.9124 4.0194 19.9124 4.0194 19.9124 4.0194C19.9124 4.0194 19.9124 4.0194 19.9124 4.0194C19.9124 4.0194 19.9124 4.0194 19.9124 4.0194C19.9123 4.0194 19.9123 4.0194 19.9123 4.0194C19.9123 4.0194 19.9123 4.0194 19.9123 4.0194C19.9123 4.0194 19.9123 4.0194 19.9123 4.0194C19.9123 4.0194 19.9123 4.0194 19.9123 4.0194C19.9123 4.0194 19.9123 4.0194 19.9123 4.0194C19.9123 4.0194 19.9123 4.0194 19.9123 4.0194C19.9123 4.0194 19.9123 4.0194 19.9123 4.0194C19.9123 4.0194 19.9123 4.0194 19.9123 4.0194C19.9123 4.0194 19.9123 4.0194 19.9123 4.0194C19.9123 4.0194 19.9123 4.0194 19.9123 4.0194C19.9123 4.0194 19.9123 4.0194 19.9123 4.0194C19.9123 4.0194 19.9123 4.0194 19.9123 4.0194C19.9123 4.0194 19.9123 4.0194 19.9123 4.0194C19.9123 4.0194 19.9123 4.0194 19.9123 4.0194C19.9123 4.0194 19.9123 4.0194 19.9123 4.0194C19.9123 4.0194 19.9123 4.0194 19.9123 4.0194C19.9123 4.0194 19.9123 4.0194 19.9123 4.0194C19.9123 4.0194 19.9123 4.0194 19.9123 4.0194C19.9123 4.0194 19.9123 4.0194 19.9123 4.0194C19.9123 4.0194 19.9123 4.0194 19.9123 4.0194C19.9123 4.0194 19.9123 4.0194 19.9123 4.0194C19.9123 4.0194 19.9123 4.0194 19.9123 4.0194C19.9122 4.0194 19.9122 4.0194 19.9122 4.0194C19.9122 4.0194 19.9122 4.0194 19.9122 4.0194C19.9122 4.0194 19.9122 4.0194 19.9122 4.0194C19.9122 4.0194 19.9122 4.0194 19.9122 4.0194C19.9122 4.0194 19.9122 4.0194 19.9122 4.0194C19.9122 4.0194 19.9122 4.0194 19.9122 4.0194C19.9122 4.0194 19.9122 4.0194 19.9122 4.0194C19.9122 4.0194 19.9122 4.0194 19.9122 4.0194C19.9122 4.0194 19.9122 4.0194 19.9122 4.0194C19.9122 4.0194 19.9122 4.0194 19.9122 4.0194C19.9122 4.0194 19.9122 4.0194 19.9122 4.0194C19.9122 4.0194 19.9122 4.0194 19.9122 4.0194C19.9122 4.0194 19.9122 4.0194 19.9122 4.0194C19.9122 4.0194 19.9122 4.0194 19.9122 4.0194C19.9122 4.0194 19.9122 4.0194 19.9122 4.0194C19.9122 4.0194 19.9122 4.0194 19.9122 4.0194C19.9122 4.0194 19.9122 4.0194 19.9122 4.0194C19.9122 4.0194 19.9122 4.0194 19.9122 4.0194C19.9122 4.0194 19.9122 4.0194 19.9122 4.0194C19.9122 4.0194 19.9122 4.0194 19.9122 4.0194C19.9122 4.0194 19.9121 4.0194 19.9121 4.0194C19.9121 4.0194 19.9121 4.0194 19.9121 4.0194C19.9121 4.0194 19.9121 4.0194 19.9121 4.0194C19.9121 4.0194 19.9121 4.0194 19.9121 4.0194C19.9121 4.0194 19.9121 4.0194 19.9121 4.0194C19.9121 4.0194 19.9121 4.0194 19.9121 4.0194C19.9121 4.0194 19.9121 4.0194 19.9121 4.0194C19.9121 4.0194 19.9121 4.0194 19.9121 4.0194C19.9121 4.0194 19.9121 4.0194 19.9121 4.0194C19.9121 4.0194 19.9121 4.0194 19.9121 4.0194C19.9121 4.0194 19.9121 4.0194 19.9121 4.0194C19.9121 4.0194 19.9121 4.0194 19.9121 4.0194C19.9121 4.0194 19.9121 4.0194 19.9121 4.0194C19.9121 4.0194 19.9121 4.0194 19.9121 4.0194C19.9121 4.0194 19.9121 4.0194 19.9121 4.0194C19.9121 4.0194 19.9121 4.0194 19.9121 4.0194C19.9121 4.0194 19.9121 4.0194 19.9121 4.0194C19.9121 4.0194 19.9121 4.0194 19.9121 4.0194C19.9121 4.0194 19.9121 4.0194 19.9121 4.0194C19.9121 4.0194 19.9121 4.0194 19.912 4.0194C19.912 4.0194 19.912 4.0194 19.912 4.0194C19.912 4.0194 19.912 4.0194 19.912 4.0194C19.912 4.0194 19.912 4.0194 19.912 4.0194C19.912 4.0194 19.912 4.0194 19.912 4.0194C19.912 4.0194 19.912 4.0194 19.912 4.0194C19.912 4.0194 19.912 4.0194 19.912 4.0194C19.912 4.0194 19.912 4.0194 19.912 4.0194C19.912 4.0194 19.912 4.0194 19.912 4.0194C19.912 4.0194 19.912 4.0194 19.912 4.0194C19.912 4.0194 19.912 4.0194 19.912 4.0194C19.912 4.0194 19.912 4.0194 19.912 4.0194C19.912 4.0194 19.912 4.0194 19.912 4.0194C19.912 4.0194 19.912 4.0194 19.912 4.0194C19.912 4.0194 19.912 4.0194 19.912 4.0194C19.912 4.0194 19.912 4.0194 19.912 4.0194C19.912 4.0194 19.912 4.0194 19.912 4.0194C19.912 4.0194 19.912 4.0194 19.912 4.0194C19.912 4.0194 19.912 4.0194 19.912 4.0194C19.9119 4.0194 19.9119 4.0194 19.9119 4.0194C19.9119 4.0194 19.9119 4.0194 19.9119 4.0194C19.9119 4.0194 19.9119 4.0194 19.9119 4.0194C19.9119 4.0194 19.9119 4.0194 19.9119 4.0194C19.9119 4.0194 19.9119 4.0194 19.9119 4.0194C19.9119 4.0194 19.9119 4.0194 19.9119 4.0194C19.9119 4.0194 19.9119 4.0194 19.9119 4.0194C19.9119 4.0194 19.9119 4.0194 19.9119 4.0194C19.9119 4.0194 19.9119 4.0194 19.9119 4.0194C19.9119 4.0194 19.9119 4.0194 19.9119 4.0194C19.9119 4.0194 19.9119 4.0194 19.9119 4.0194C19.9119 4.0194 19.9119 4.0194 19.9119 4.0194C19.9119 4.0194 19.9119 4.0194 19.9119 4.0194C19.9119 4.0194 19.9119 4.0194 19.9119 4.0194C19.9119 4.0194 19.9119 4.0194 19.9119 4.0194C19.9119 4.0194 19.9119 4.0194 19.9119 4.0194C19.9119 4.0194 19.9119 4.0194 19.9119 4.0194C19.9119 4.0194 19.9119 4.0194 19.9118 4.0194C19.9118 4.0194 19.9118 4.0194 19.9118 4.0194C19.9118 4.0194 19.9118 4.0194 19.9118 4.0194C19.9118 4.0194 19.9118 4.0194 19.9118 4.0194C19.9118 4.0194 19.9118 4.0194 19.9118 4.0194C19.9118 4.0194 19.9118 4.0194 19.9118 4.0194C19.9118 4.0194 19.9118 4.0194 19.9118 4.0194C19.9118 4.0194 19.9118 4.0194 19.9118 4.0194C19.9118 4.0194 19.9118 4.0194 19.9118 4.0194C19.9118 4.0194 19.9118 4.0194 19.9118 4.0194C19.9118 4.0194 19.9118 4.0194 19.9118 4.0194C19.9118 4.0194 19.9118 4.0194 19.9118 4.0194C19.9118 4.0194 19.9118 4.0194 19.9118 4.0194C19.9118 4.0194 19.9118 4.0194 19.9118 4.0194C19.9118 4.0194 19.9118 4.0194 19.9118 4.0194C19.9118 4.0194 19.9118 4.0194 19.9118 4.0194C19.9118 4.0194 19.9118 4.0194 19.9118 4.0194C19.9118 4.0194 19.9118 4.0194 19.9117 4.0194C19.9117 4.0194 19.9117 4.0194 19.9117 4.0194C19.9117 4.0194 19.9117 4.0194 19.9117 4.0194C19.9117 4.0194 19.9117 4.0194 19.9117 4.0194C19.9117 4.0194 19.9117 4.0194 19.9117 4.0194C19.9117 4.0194 19.9117 4.0194 19.9117 4.0194C19.9117 4.0194 19.9117 4.0194 19.9117 4.0194C19.9117 4.0194 19.9117 4.0194 19.9117 4.0194C19.9117 4.0194 19.9117 4.0194 19.9117 4.0194C19.9117 4.0194 19.9117 4.0194 19.9117 4.0194C19.9117 4.0194 19.9117 4.0194 19.9117 4.0194C19.9117 4.0194 19.9117 4.0194 19.9117 4.0194C19.9117 4.0194 19.9117 4.0194 19.9117 4.0194C19.9117 4.0194 19.9117 4.0194 19.9117 4.0194C19.9117 4.0194 19.9117 4.0194 19.9117 4.0194C19.9117 4.0194 19.9117 4.0194 19.9117 4.0194C19.9117 4.0194 19.9117 4.0194 19.9117 4.0194C19.9117 4.0194 19.9116 4.0194 19.9116 4.0194C19.9116 4.0194 19.9116 4.0194 19.9116 4.0194C19.9116 4.0194 19.9116 4.0194 19.9116 4.0194C19.9116 4.0194 19.9116 4.0194 19.9116 4.0194C19.9116 4.0194 19.9116 4.0194 19.9116 4.0194C19.9116 4.0194 19.9116 4.0194 19.9116 4.0194C19.9116 4.0194 19.9116 4.0194 19.9116 4.0194C19.9116 4.0194 19.9116 4.0194 19.9116 4.0194C19.9116 4.0194 19.9116 4.0194 19.9116 4.0194C19.9116 4.0194 19.9116 4.0194 19.9116 4.0194C19.9116 4.0194 19.9116 4.0194 19.9116 4.0194C19.9116 4.0194 19.9116 4.0194 19.9116 4.0194C19.9116 4.0194 19.9116 4.0194 19.9116 4.0194C19.9116 4.0194 19.9116 4.0194 19.9116 4.0194C19.9116 4.0194 19.9116 4.0194 19.9116 4.0194C19.9116 4.0194 19.9116 4.0194 19.9116 4.0194C19.9116 4.0194 19.9116 4.0194 19.9116 4.0194C19.9115 4.0194 19.9115 4.0194 19.9115 4.0194C19.9115 4.0194 19.9115 4.0194 19.9115 4.0194C19.9115 4.0194 19.9115 4.0194 19.9115 4.0194C19.9115 4.0194 19.9115 4.0194 19.9115 4.0194C19.9115 4.0194 19.9115 4.0194 19.9115 4.0194C19.9115 4.0194 19.9115 4.0194 19.9115 4.0194C19.9115 4.0194 19.9115 4.0194 19.9115 4.0194C19.9115 4.0194 19.9115 4.0194 19.9115 4.0194C19.9115 4.0194 19.9115 4.0194 19.9115 4.0194C19.9115 4.0194 19.9115 4.0194 19.9115 4.0194C19.9115 4.0194 19.9115 4.0194 19.9115 4.0194C19.9115 4.0194 19.9115 4.0194 19.9115 4.0194C19.9115 4.0194 19.9115 4.0194 19.9115 4.0194C19.9115 4.0194 19.9115 4.0194 19.9115 4.0194C19.9115 4.0194 19.9115 4.0194 19.9115 4.0194C19.9115 4.0194 19.9115 4.0194 19.9115 4.0194C19.9115 4.0194 19.9114 4.0194 19.9114 4.0194C19.9114 4.0194 19.9114 4.0194 19.9114 4.0194C19.9114 4.0194 19.9114 4.0194 19.9114 4.0194C19.9114 4.0194 19.9114 4.0194 19.9114 4.0194C19.9114 4.0194 19.9114 4.0194 19.9114 4.0194C19.9114 4.0194 19.9114 4.0194 19.9114 4.0194C19.9114 4.0194 19.9114 4.0194 19.9114 4.0194C19.9114 4.0194 19.9114 4.0194 19.9114 4.0194C19.9114 4.0194 19.9114 4.0194 19.9114 4.0194C19.9114 4.0194 19.9114 4.0194 19.9114 4.0194C19.9114 4.0194 19.9114 4.0194 19.9114 4.0194C19.9114 4.0194 19.9114 4.0194 19.9114 4.0194C19.9114 4.0194 19.9114 4.0194 19.9114 4.0194C19.9114 4.0194 19.9114 4.0194 19.9114 4.0194C19.9114 4.0194 19.9114 4.0194 19.9114 4.0194C19.9114 4.0194 19.9114 4.0194 19.9114 4.0194C19.9114 4.0194 19.9113 4.0194 19.9113 4.0194C19.9113 4.0194 19.9113 4.0194 19.9113 4.0194C19.9113 4.0194 19.9113 4.0194 19.9113 4.0194C19.9113 4.0194 19.9113 4.0194 19.9113 4.0194C19.9113 4.0194 19.9113 4.0194 19.9113 4.0194C19.9113 4.0194 19.9113 4.0194 19.9113 4.0194C19.9113 4.0194 19.9113 4.0194 19.9113 4.0194C19.9113 4.0194 19.9113 4.0194 19.9113 4.0194C19.9113 4.0194 19.9113 4.0194 19.9113 4.0194C19.9113 4.0194 19.9113 4.0194 19.9113 4.0194C19.9113 4.0194 19.9113 4.0194 19.9113 4.0194C19.9113 4.0194 19.9113 4.0194 19.9113 4.0194C19.9113 4.0194 19.9113 4.0194 19.9113 4.0194C19.9113 4.0194 19.9113 4.0194 19.9113 4.0194C19.9113 4.0194 19.9113 4.0194 19.9113 4.0194C19.9113 4.0194 19.9113 4.0194 19.9113 4.0194C19.9113 4.0194 19.9112 4.0194 19.9112 4.0194C19.9112 4.0194 19.9112 4.0194 19.9112 4.0194C19.9112 4.0194 19.9112 4.0194 19.9112 4.0194C19.9112 4.0194 19.9112 4.0194 19.9112 4.0194C19.9112 4.0194 19.9112 4.0194 19.9112 4.0194C19.9112 4.0194 19.9112 4.0194 19.9112 4.0194C19.9112 4.0194 19.9112 4.0194 19.9112 4.0194C19.9112 4.0194 19.9112 4.0194 19.9112 4.0194C19.9112 4.0194 19.9112 4.0194 19.9112 4.0194C19.9112 4.0194 19.9112 4.0194 19.9112 4.0194C19.9112 4.0194 19.9112 4.0194 19.9112 4.0194C19.9112 4.0194 19.9112 4.0194 19.9112 4.0194C19.9112 4.0194 19.9112 4.0194 19.9112 4.0194C19.9112 4.0194 19.9112 4.0194 19.9112 4.0194C19.9112 4.0194 19.9112 4.0194 19.9112 4.0194C19.9112 4.0194 19.9112 4.0194 19.9112 4.0194C19.9112 4.0194 19.9112 4.0194 19.9111 4.0194C19.9111 4.0194 19.9111 4.0194 19.9111 4.0194C19.9111 4.0194 19.9111 4.0194 19.9111 4.0194C19.9111 4.0194 19.9111 4.0194 19.9111 4.0194C19.9111 4.0194 19.9111 4.0194 19.9111 4.0194C19.9111 4.0194 19.9111 4.0194 19.9111 4.0194C19.9111 4.0194 19.9111 4.0194 19.9111 4.0194C19.9111 4.0194 19.9111 4.0194 19.9111 4.0194C19.9111 4.0194 19.9111 4.0194 19.9111 4.0194C19.9111 4.0194 19.9111 4.0194 19.9111 4.0194C19.9111 4.0194 19.9111 4.0194 19.9111 4.0194C19.9111 4.0194 19.9111 4.0194 19.9111 4.0194C19.9111 4.0194 19.9111 4.0194 19.9111 4.0194C19.9111 4.0194 19.9111 4.0194 19.9111 4.0194C19.9111 4.0194 19.9111 4.0194 19.9111 4.0194C19.9111 4.0194 19.9111 4.0194 19.9111 4.0194C19.9111 4.0194 19.9111 4.0194 19.911 4.0194C19.911 4.0194 19.911 4.0194 19.911 4.0194C19.911 4.0194 19.911 4.0194 19.911 4.0194C19.911 4.0194 19.911 4.0194 19.911 4.0194C19.911 4.0194 19.911 4.0194 19.911 4.0194C19.911 4.0194 19.911 4.0194 19.911 4.0194C19.911 4.0194 19.911 4.0194 19.911 4.0194C19.911 4.0194 19.911 4.0194 19.911 4.0194C19.911 4.0194 19.911 4.0194 19.911 4.0194C19.911 4.0194 19.911 4.0194 19.911 4.0194C19.911 4.0194 19.911 4.0194 19.911 4.0194C19.911 4.0194 19.911 4.0194 19.911 4.0194C19.911 4.0194 19.911 4.0194 19.911 4.0194C19.911 4.0194 19.911 4.0194 19.911 4.0194C19.911 4.0194 19.911 4.0194 19.911 4.0194C19.911 4.0194 19.911 4.0194 19.911 4.0194C19.911 4.0194 19.911 4.0194 19.911 4.0194C19.9109 4.0194 19.9109 4.0194 19.9109 4.0194C19.9109 4.0194 19.9109 4.0194 19.9109 4.0194C19.9109 4.0194 19.9109 4.0194 19.9109 4.0194C19.9109 4.0194 19.9109 4.0194 19.9109 4.0194C19.9109 4.0194 19.9109 4.0194 19.9109 4.0194C19.9109 4.0194 19.9109 4.0194 19.9109 4.0194C19.9109 4.0194 19.9109 4.0194 19.9109 4.0194C19.9109 4.0194 19.9109 4.0194 19.9109 4.0194C19.9109 4.0194 19.9109 4.0194 19.9109 4.0194C19.9109 4.0194 19.9109 4.0194 19.9109 4.0194C19.9109 4.0194 19.9109 4.0194 19.9109 4.0194C19.9109 4.0194 19.9109 4.0194 19.9109 4.0194C19.9109 4.0194 19.9109 4.0194 19.9109 4.0194C19.9109 4.0194 19.9109 4.0194 19.9109 4.0194C19.9109 4.0194 19.9109 4.0194 19.9109 4.0194C19.9109 4.0194 19.9109 4.0194 19.9109 4.0194C19.9109 4.0194 19.9109 4.0194 19.9108 4.0194C19.9108 4.0194 19.9108 4.0194 19.9108 4.0194C19.9108 4.0194 19.9108 4.0194 19.9108 4.0194C19.9108 4.0194 19.9108 4.0194 19.9108 4.0194C19.9108 4.0194 19.9108 4.0194 19.9108 4.0194C19.9108 4.0194 19.9108 4.0194 19.9108 4.0194C19.9108 4.0194 19.9108 4.0194 19.9108 4.0194C19.9108 4.0194 19.9108 4.0194 19.9108 4.0194C19.9108 4.0194 19.9108 4.0194 19.9108 4.0194C19.9108 4.0194 19.9108 4.0194 19.9108 4.0194C19.9108 4.0194 19.9108 4.0194 19.9108 4.0194C19.9108 4.0194 19.9108 4.0194 19.9108 4.0194C19.9108 4.0194 19.9108 4.0194 19.9108 4.0194C19.9108 4.0194 19.9108 4.0194 19.9108 4.0194C19.9108 4.0194 19.9108 4.0194 19.9108 4.0194C19.9108 4.0194 19.9108 4.0194 19.9108 4.0194C19.9108 4.0194 19.9108 4.0194 19.9108 4.0194C19.9108 4.0194 19.9108 4.0194 19.9107 4.0194C19.9107 4.0194 19.9107 4.0194 19.9107 4.0194C19.9107 4.0194 19.9107 4.0194 19.9107 4.0194C19.9107 4.0194 19.9107 4.0194 19.9107 4.0194C19.9107 4.0194 19.9107 4.0194 19.9107 4.0194C19.9107 4.0194 19.9107 4.0194 19.9107 4.0194C19.9107 4.0194 19.9107 4.0194 19.9107 4.0194C19.9107 4.0194 19.9107 4.0194 19.9107 4.0194C19.9107 4.0194 19.9107 4.0194 19.9107 4.0194C19.9107 4.0194 19.9107 4.0194 19.9107 4.0194C19.9107 4.0194 19.9107 4.0194 19.9107 4.0194C19.9107 4.0194 19.9107 4.0194 19.9107 4.0194C19.9107 4.0194 19.9107 4.0194 19.9107 4.0194C19.9107 4.0194 19.9107 4.0194 19.9107 4.0194C19.9107 4.0194 19.9107 4.0194 19.9107 4.0194C19.9107 4.0194 19.9107 4.0194 19.9107 4.0194C19.9107 4.0194 19.9107 4.0194 19.9107 4.0194C19.9107 4.0194 19.9107 4.0194 19.9107 4.0194C19.9107 4.0194 19.9106 4.0194 19.9106 4.0194C19.9106 4.0194 19.9106 4.0194 19.9106 4.0194C19.9106 4.0194 19.9106 4.0194 19.9106 4.0194C19.9106 4.0194 19.9106 4.0194 19.9106 4.0194C19.9106 4.0194 19.9106 4.0194 19.9106 4.0194C19.9106 4.0194 19.9106 4.0194 19.9106 4.0194C19.9106 4.0194 19.9106 4.0194 19.9106 4.0194C19.9106 4.0194 19.9106 4.0194 19.9106 4.0194C19.9106 4.0194 19.9106 4.0194 19.9106 4.0194C19.9106 4.0194 19.9106 4.0194 19.9106 4.0194C19.9106 4.0194 19.9106 4.0194 19.9106 4.0194C19.9106 4.0194 19.9106 4.0194 19.9106 4.0194C19.9106 4.0194 19.9106 4.0194 19.9106 4.0194C19.9106 4.0194 19.9106 4.0194 19.9106 4.0194C19.9106 4.0194 19.9106 4.0194 19.9106 4.0194C19.9106 4.0194 19.9106 4.0194 19.9106 4.0194C19.9106 4.0194 19.9106 4.0194 19.9106 4.0194C19.9106 4.0194 19.9106 4.0194 19.9106 4.0194C19.9106 4.0194 19.9105 4.0194 19.9105 4.0194C19.9105 4.0194 19.9105 4.0194 19.9105 4.0194C19.9105 4.0194 19.9105 4.0194 19.9105 4.0194C19.9105 4.0194 19.9105 4.0194 19.9105 4.0194C19.9105 4.0194 19.9105 4.0194 19.9105 4.0194C19.9105 4.0194 19.9105 4.0194 19.9105 4.0194C19.9105 4.0194 19.9105 4.0194 19.9105 4.0194C19.9105 4.0194 19.9105 4.0194 19.9105 4.0194C19.9105 4.0194 19.9105 4.0194 19.9105 4.0194C19.9105 4.0194 19.9105 4.0194 19.9105 4.0194C19.9105 4.0194 19.9105 4.0194 19.9105 4.0194C19.9105 4.0194 19.9105 4.0194 19.9105 4.0194C19.9105 4.0194 19.9105 4.0194 19.9105 4.0194C19.9105 4.0194 19.9105 4.0194 19.9105 4.0194C19.9105 4.0194 19.9105 4.0194 19.9105 4.0194C19.9105 4.0194 19.9105 4.0194 19.9105 4.0194C19.9105 4.0194 19.9105 4.0194 19.9105 4.0194C19.9105 4.0194 19.9105 4.0194 19.9105 4.0194C19.9105 4.0194 19.9105 4.0194 19.9105 4.0194C19.9105 4.0194 19.9104 4.0194 19.9104 4.0194C19.9104 4.0194 19.9104 4.0194 19.9104 4.0194C19.9104 4.0194 19.9104 4.0194 19.9104 4.0194C19.9104 4.0194 19.9104 4.0194 19.9104 4.0194C19.9104 4.0194 19.9104 4.0194 19.9104 4.0194C19.9104 4.0194 19.9104 4.0194 19.9104 4.0194C19.9104 4.0194 19.9104 4.0194 19.9104 4.0194C19.9104 4.0194 19.9104 4.0194 19.9104 4.0194C19.9104 4.0194 19.9104 4.0194 19.9104 4.0194C19.9104 4.0194 19.9104 4.0194 19.9104 4.0194C19.9104 4.0194 19.9104 4.0194 19.9104 4.0194C19.9104 4.0194 19.9104 4.0194 19.9104 4.0194C19.9104 4.0194 19.9104 4.0194 19.9104 4.0194C19.9104 4.0194 19.9104 4.0194 19.9104 4.0194C19.9104 4.0194 19.9104 4.0194 19.9104 4.0194C19.9104 4.0194 19.9104 4.0194 19.9104 4.0194C19.9104 4.0194 19.9104 4.0194 19.9104 4.0194C19.9104 4.0194 19.9104 4.0194 19.9104 4.0194C19.9104 4.0194 19.9104 4.0194 19.9104 4.0194C19.9104 4.0194 19.9104 4.0194 19.9104 4.0194C19.9104 4.0194 19.9103 4.0194 19.9103 4.0194C19.9103 4.0194 19.9103 4.0194 19.9103 4.0194C19.9103 4.0194 19.9103 4.0194 19.9103 4.0194C19.9103 4.0194 19.9103 4.0194 19.9103 4.0194C19.9103 4.0194 19.9103 4.0194 19.9103 4.0194V4.8194C19.9103 4.8194 19.9103 4.8194 19.9103 4.8194C19.9103 4.8194 19.9103 4.8194 19.9103 4.8194C19.9103 4.8194 19.9103 4.8194 19.9103 4.8194C19.9103 4.8194 19.9103 4.8194 19.9103 4.8194C19.9103 4.8194 19.9104 4.8194 19.9104 4.8194C19.9104 4.8194 19.9104 4.8194 19.9104 4.8194C19.9104 4.8194 19.9104 4.8194 19.9104 4.8194C19.9104 4.8194 19.9104 4.8194 19.9104 4.8194C19.9104 4.8194 19.9104 4.8194 19.9104 4.8194C19.9104 4.8194 19.9104 4.8194 19.9104 4.8194C19.9104 4.8194 19.9104 4.8194 19.9104 4.8194C19.9104 4.8194 19.9104 4.8194 19.9104 4.8194C19.9104 4.8194 19.9104 4.8194 19.9104 4.8194C19.9104 4.8194 19.9104 4.8194 19.9104 4.8194C19.9104 4.8194 19.9104 4.8194 19.9104 4.8194C19.9104 4.8194 19.9104 4.8194 19.9104 4.8194C19.9104 4.8194 19.9104 4.8194 19.9104 4.8194C19.9104 4.8194 19.9104 4.8194 19.9104 4.8194C19.9104 4.8194 19.9104 4.8194 19.9104 4.8194C19.9104 4.8194 19.9104 4.8194 19.9104 4.8194C19.9104 4.8194 19.9104 4.8194 19.9104 4.8194C19.9104 4.8194 19.9104 4.8194 19.9104 4.8194C19.9104 4.8194 19.9104 4.8194 19.9104 4.8194C19.9104 4.8194 19.9104 4.8194 19.9104 4.8194C19.9104 4.8194 19.9105 4.8194 19.9105 4.8194C19.9105 4.8194 19.9105 4.8194 19.9105 4.8194C19.9105 4.8194 19.9105 4.8194 19.9105 4.8194C19.9105 4.8194 19.9105 4.8194 19.9105 4.8194C19.9105 4.8194 19.9105 4.8194 19.9105 4.8194C19.9105 4.8194 19.9105 4.8194 19.9105 4.8194C19.9105 4.8194 19.9105 4.8194 19.9105 4.8194C19.9105 4.8194 19.9105 4.8194 19.9105 4.8194C19.9105 4.8194 19.9105 4.8194 19.9105 4.8194C19.9105 4.8194 19.9105 4.8194 19.9105 4.8194C19.9105 4.8194 19.9105 4.8194 19.9105 4.8194C19.9105 4.8194 19.9105 4.8194 19.9105 4.8194C19.9105 4.8194 19.9105 4.8194 19.9105 4.8194C19.9105 4.8194 19.9105 4.8194 19.9105 4.8194C19.9105 4.8194 19.9105 4.8194 19.9105 4.8194C19.9105 4.8194 19.9105 4.8194 19.9105 4.8194C19.9105 4.8194 19.9105 4.8194 19.9105 4.8194C19.9105 4.8194 19.9105 4.8194 19.9105 4.8194C19.9105 4.8194 19.9105 4.8194 19.9105 4.8194C19.9105 4.8194 19.9106 4.8194 19.9106 4.8194C19.9106 4.8194 19.9106 4.8194 19.9106 4.8194C19.9106 4.8194 19.9106 4.8194 19.9106 4.8194C19.9106 4.8194 19.9106 4.8194 19.9106 4.8194C19.9106 4.8194 19.9106 4.8194 19.9106 4.8194C19.9106 4.8194 19.9106 4.8194 19.9106 4.8194C19.9106 4.8194 19.9106 4.8194 19.9106 4.8194C19.9106 4.8194 19.9106 4.8194 19.9106 4.8194C19.9106 4.8194 19.9106 4.8194 19.9106 4.8194C19.9106 4.8194 19.9106 4.8194 19.9106 4.8194C19.9106 4.8194 19.9106 4.8194 19.9106 4.8194C19.9106 4.8194 19.9106 4.8194 19.9106 4.8194C19.9106 4.8194 19.9106 4.8194 19.9106 4.8194C19.9106 4.8194 19.9106 4.8194 19.9106 4.8194C19.9106 4.8194 19.9106 4.8194 19.9106 4.8194C19.9106 4.8194 19.9106 4.8194 19.9106 4.8194C19.9106 4.8194 19.9106 4.8194 19.9106 4.8194C19.9106 4.8194 19.9106 4.8194 19.9106 4.8194C19.9106 4.8194 19.9107 4.8194 19.9107 4.8194C19.9107 4.8194 19.9107 4.8194 19.9107 4.8194C19.9107 4.8194 19.9107 4.8194 19.9107 4.8194C19.9107 4.8194 19.9107 4.8194 19.9107 4.8194C19.9107 4.8194 19.9107 4.8194 19.9107 4.8194C19.9107 4.8194 19.9107 4.8194 19.9107 4.8194C19.9107 4.8194 19.9107 4.8194 19.9107 4.8194C19.9107 4.8194 19.9107 4.8194 19.9107 4.8194C19.9107 4.8194 19.9107 4.8194 19.9107 4.8194C19.9107 4.8194 19.9107 4.8194 19.9107 4.8194C19.9107 4.8194 19.9107 4.8194 19.9107 4.8194C19.9107 4.8194 19.9107 4.8194 19.9107 4.8194C19.9107 4.8194 19.9107 4.8194 19.9107 4.8194C19.9107 4.8194 19.9107 4.8194 19.9107 4.8194C19.9107 4.8194 19.9107 4.8194 19.9107 4.8194C19.9107 4.8194 19.9107 4.8194 19.9107 4.8194C19.9107 4.8194 19.9107 4.8194 19.9107 4.8194C19.9107 4.8194 19.9107 4.8194 19.9107 4.8194C19.9108 4.8194 19.9108 4.8194 19.9108 4.8194C19.9108 4.8194 19.9108 4.8194 19.9108 4.8194C19.9108 4.8194 19.9108 4.8194 19.9108 4.8194C19.9108 4.8194 19.9108 4.8194 19.9108 4.8194C19.9108 4.8194 19.9108 4.8194 19.9108 4.8194C19.9108 4.8194 19.9108 4.8194 19.9108 4.8194C19.9108 4.8194 19.9108 4.8194 19.9108 4.8194C19.9108 4.8194 19.9108 4.8194 19.9108 4.8194C19.9108 4.8194 19.9108 4.8194 19.9108 4.8194C19.9108 4.8194 19.9108 4.8194 19.9108 4.8194C19.9108 4.8194 19.9108 4.8194 19.9108 4.8194C19.9108 4.8194 19.9108 4.8194 19.9108 4.8194C19.9108 4.8194 19.9108 4.8194 19.9108 4.8194C19.9108 4.8194 19.9108 4.8194 19.9108 4.8194C19.9108 4.8194 19.9108 4.8194 19.9108 4.8194C19.9108 4.8194 19.9108 4.8194 19.9108 4.8194C19.9108 4.8194 19.9108 4.8194 19.9108 4.8194C19.9109 4.8194 19.9109 4.8194 19.9109 4.8194C19.9109 4.8194 19.9109 4.8194 19.9109 4.8194C19.9109 4.8194 19.9109 4.8194 19.9109 4.8194C19.9109 4.8194 19.9109 4.8194 19.9109 4.8194C19.9109 4.8194 19.9109 4.8194 19.9109 4.8194C19.9109 4.8194 19.9109 4.8194 19.9109 4.8194C19.9109 4.8194 19.9109 4.8194 19.9109 4.8194C19.9109 4.8194 19.9109 4.8194 19.9109 4.8194C19.9109 4.8194 19.9109 4.8194 19.9109 4.8194C19.9109 4.8194 19.9109 4.8194 19.9109 4.8194C19.9109 4.8194 19.9109 4.8194 19.9109 4.8194C19.9109 4.8194 19.9109 4.8194 19.9109 4.8194C19.9109 4.8194 19.9109 4.8194 19.9109 4.8194C19.9109 4.8194 19.9109 4.8194 19.9109 4.8194C19.9109 4.8194 19.9109 4.8194 19.9109 4.8194C19.9109 4.8194 19.9109 4.8194 19.9109 4.8194C19.9109 4.8194 19.9109 4.8194 19.911 4.8194C19.911 4.8194 19.911 4.8194 19.911 4.8194C19.911 4.8194 19.911 4.8194 19.911 4.8194C19.911 4.8194 19.911 4.8194 19.911 4.8194C19.911 4.8194 19.911 4.8194 19.911 4.8194C19.911 4.8194 19.911 4.8194 19.911 4.8194C19.911 4.8194 19.911 4.8194 19.911 4.8194C19.911 4.8194 19.911 4.8194 19.911 4.8194C19.911 4.8194 19.911 4.8194 19.911 4.8194C19.911 4.8194 19.911 4.8194 19.911 4.8194C19.911 4.8194 19.911 4.8194 19.911 4.8194C19.911 4.8194 19.911 4.8194 19.911 4.8194C19.911 4.8194 19.911 4.8194 19.911 4.8194C19.911 4.8194 19.911 4.8194 19.911 4.8194C19.911 4.8194 19.911 4.8194 19.911 4.8194C19.911 4.8194 19.911 4.8194 19.911 4.8194C19.911 4.8194 19.911 4.8194 19.911 4.8194C19.9111 4.8194 19.9111 4.8194 19.9111 4.8194C19.9111 4.8194 19.9111 4.8194 19.9111 4.8194C19.9111 4.8194 19.9111 4.8194 19.9111 4.8194C19.9111 4.8194 19.9111 4.8194 19.9111 4.8194C19.9111 4.8194 19.9111 4.8194 19.9111 4.8194C19.9111 4.8194 19.9111 4.8194 19.9111 4.8194C19.9111 4.8194 19.9111 4.8194 19.9111 4.8194C19.9111 4.8194 19.9111 4.8194 19.9111 4.8194C19.9111 4.8194 19.9111 4.8194 19.9111 4.8194C19.9111 4.8194 19.9111 4.8194 19.9111 4.8194C19.9111 4.8194 19.9111 4.8194 19.9111 4.8194C19.9111 4.8194 19.9111 4.8194 19.9111 4.8194C19.9111 4.8194 19.9111 4.8194 19.9111 4.8194C19.9111 4.8194 19.9111 4.8194 19.9111 4.8194C19.9111 4.8194 19.9111 4.8194 19.9111 4.8194C19.9111 4.8194 19.9111 4.8194 19.9111 4.8194C19.9112 4.8194 19.9112 4.8194 19.9112 4.8194C19.9112 4.8194 19.9112 4.8194 19.9112 4.8194C19.9112 4.8194 19.9112 4.8194 19.9112 4.8194C19.9112 4.8194 19.9112 4.8194 19.9112 4.8194C19.9112 4.8194 19.9112 4.8194 19.9112 4.8194C19.9112 4.8194 19.9112 4.8194 19.9112 4.8194C19.9112 4.8194 19.9112 4.8194 19.9112 4.8194C19.9112 4.8194 19.9112 4.8194 19.9112 4.8194C19.9112 4.8194 19.9112 4.8194 19.9112 4.8194C19.9112 4.8194 19.9112 4.8194 19.9112 4.8194C19.9112 4.8194 19.9112 4.8194 19.9112 4.8194C19.9112 4.8194 19.9112 4.8194 19.9112 4.8194C19.9112 4.8194 19.9112 4.8194 19.9112 4.8194C19.9112 4.8194 19.9112 4.8194 19.9112 4.8194C19.9112 4.8194 19.9112 4.8194 19.9112 4.8194C19.9112 4.8194 19.9112 4.8194 19.9112 4.8194C19.9112 4.8194 19.9113 4.8194 19.9113 4.8194C19.9113 4.8194 19.9113 4.8194 19.9113 4.8194C19.9113 4.8194 19.9113 4.8194 19.9113 4.8194C19.9113 4.8194 19.9113 4.8194 19.9113 4.8194C19.9113 4.8194 19.9113 4.8194 19.9113 4.8194C19.9113 4.8194 19.9113 4.8194 19.9113 4.8194C19.9113 4.8194 19.9113 4.8194 19.9113 4.8194C19.9113 4.8194 19.9113 4.8194 19.9113 4.8194C19.9113 4.8194 19.9113 4.8194 19.9113 4.8194C19.9113 4.8194 19.9113 4.8194 19.9113 4.8194C19.9113 4.8194 19.9113 4.8194 19.9113 4.8194C19.9113 4.8194 19.9113 4.8194 19.9113 4.8194C19.9113 4.8194 19.9113 4.8194 19.9113 4.8194C19.9113 4.8194 19.9113 4.8194 19.9113 4.8194C19.9113 4.8194 19.9113 4.8194 19.9113 4.8194C19.9113 4.8194 19.9113 4.8194 19.9113 4.8194C19.9113 4.8194 19.9114 4.8194 19.9114 4.8194C19.9114 4.8194 19.9114 4.8194 19.9114 4.8194C19.9114 4.8194 19.9114 4.8194 19.9114 4.8194C19.9114 4.8194 19.9114 4.8194 19.9114 4.8194C19.9114 4.8194 19.9114 4.8194 19.9114 4.8194C19.9114 4.8194 19.9114 4.8194 19.9114 4.8194C19.9114 4.8194 19.9114 4.8194 19.9114 4.8194C19.9114 4.8194 19.9114 4.8194 19.9114 4.8194C19.9114 4.8194 19.9114 4.8194 19.9114 4.8194C19.9114 4.8194 19.9114 4.8194 19.9114 4.8194C19.9114 4.8194 19.9114 4.8194 19.9114 4.8194C19.9114 4.8194 19.9114 4.8194 19.9114 4.8194C19.9114 4.8194 19.9114 4.8194 19.9114 4.8194C19.9114 4.8194 19.9114 4.8194 19.9114 4.8194C19.9114 4.8194 19.9114 4.8194 19.9114 4.8194C19.9114 4.8194 19.9114 4.8194 19.9114 4.8194C19.9114 4.8194 19.9115 4.8194 19.9115 4.8194C19.9115 4.8194 19.9115 4.8194 19.9115 4.8194C19.9115 4.8194 19.9115 4.8194 19.9115 4.8194C19.9115 4.8194 19.9115 4.8194 19.9115 4.8194C19.9115 4.8194 19.9115 4.8194 19.9115 4.8194C19.9115 4.8194 19.9115 4.8194 19.9115 4.8194C19.9115 4.8194 19.9115 4.8194 19.9115 4.8194C19.9115 4.8194 19.9115 4.8194 19.9115 4.8194C19.9115 4.8194 19.9115 4.8194 19.9115 4.8194C19.9115 4.8194 19.9115 4.8194 19.9115 4.8194C19.9115 4.8194 19.9115 4.8194 19.9115 4.8194C19.9115 4.8194 19.9115 4.8194 19.9115 4.8194C19.9115 4.8194 19.9115 4.8194 19.9115 4.8194C19.9115 4.8194 19.9115 4.8194 19.9115 4.8194C19.9115 4.8194 19.9115 4.8194 19.9115 4.8194C19.9115 4.8194 19.9115 4.8194 19.9115 4.8194C19.9115 4.8194 19.9115 4.8194 19.9116 4.8194C19.9116 4.8194 19.9116 4.8194 19.9116 4.8194C19.9116 4.8194 19.9116 4.8194 19.9116 4.8194C19.9116 4.8194 19.9116 4.8194 19.9116 4.8194C19.9116 4.8194 19.9116 4.8194 19.9116 4.8194C19.9116 4.8194 19.9116 4.8194 19.9116 4.8194C19.9116 4.8194 19.9116 4.8194 19.9116 4.8194C19.9116 4.8194 19.9116 4.8194 19.9116 4.8194C19.9116 4.8194 19.9116 4.8194 19.9116 4.8194C19.9116 4.8194 19.9116 4.8194 19.9116 4.8194C19.9116 4.8194 19.9116 4.8194 19.9116 4.8194C19.9116 4.8194 19.9116 4.8194 19.9116 4.8194C19.9116 4.8194 19.9116 4.8194 19.9116 4.8194C19.9116 4.8194 19.9116 4.8194 19.9116 4.8194C19.9116 4.8194 19.9116 4.8194 19.9116 4.8194C19.9116 4.8194 19.9116 4.8194 19.9116 4.8194C19.9116 4.8194 19.9116 4.8194 19.9116 4.8194C19.9116 4.8194 19.9117 4.8194 19.9117 4.8194C19.9117 4.8194 19.9117 4.8194 19.9117 4.8194C19.9117 4.8194 19.9117 4.8194 19.9117 4.8194C19.9117 4.8194 19.9117 4.8194 19.9117 4.8194C19.9117 4.8194 19.9117 4.8194 19.9117 4.8194C19.9117 4.8194 19.9117 4.8194 19.9117 4.8194C19.9117 4.8194 19.9117 4.8194 19.9117 4.8194C19.9117 4.8194 19.9117 4.8194 19.9117 4.8194C19.9117 4.8194 19.9117 4.8194 19.9117 4.8194C19.9117 4.8194 19.9117 4.8194 19.9117 4.8194C19.9117 4.8194 19.9117 4.8194 19.9117 4.8194C19.9117 4.8194 19.9117 4.8194 19.9117 4.8194C19.9117 4.8194 19.9117 4.8194 19.9117 4.8194C19.9117 4.8194 19.9117 4.8194 19.9117 4.8194C19.9117 4.8194 19.9117 4.8194 19.9117 4.8194C19.9117 4.8194 19.9117 4.8194 19.9117 4.8194C19.9117 4.8194 19.9117 4.8194 19.9117 4.8194C19.9118 4.8194 19.9118 4.8194 19.9118 4.8194C19.9118 4.8194 19.9118 4.8194 19.9118 4.8194C19.9118 4.8194 19.9118 4.8194 19.9118 4.8194C19.9118 4.8194 19.9118 4.8194 19.9118 4.8194C19.9118 4.8194 19.9118 4.8194 19.9118 4.8194C19.9118 4.8194 19.9118 4.8194 19.9118 4.8194C19.9118 4.8194 19.9118 4.8194 19.9118 4.8194C19.9118 4.8194 19.9118 4.8194 19.9118 4.8194C19.9118 4.8194 19.9118 4.8194 19.9118 4.8194C19.9118 4.8194 19.9118 4.8194 19.9118 4.8194C19.9118 4.8194 19.9118 4.8194 19.9118 4.8194C19.9118 4.8194 19.9118 4.8194 19.9118 4.8194C19.9118 4.8194 19.9118 4.8194 19.9118 4.8194C19.9118 4.8194 19.9118 4.8194 19.9118 4.8194C19.9118 4.8194 19.9118 4.8194 19.9118 4.8194C19.9118 4.8194 19.9118 4.8194 19.9118 4.8194C19.9118 4.8194 19.9118 4.8194 19.9118 4.8194C19.9119 4.8194 19.9119 4.8194 19.9119 4.8194C19.9119 4.8194 19.9119 4.8194 19.9119 4.8194C19.9119 4.8194 19.9119 4.8194 19.9119 4.8194C19.9119 4.8194 19.9119 4.8194 19.9119 4.8194C19.9119 4.8194 19.9119 4.8194 19.9119 4.8194C19.9119 4.8194 19.9119 4.8194 19.9119 4.8194C19.9119 4.8194 19.9119 4.8194 19.9119 4.8194C19.9119 4.8194 19.9119 4.8194 19.9119 4.8194C19.9119 4.8194 19.9119 4.8194 19.9119 4.8194C19.9119 4.8194 19.9119 4.8194 19.9119 4.8194C19.9119 4.8194 19.9119 4.8194 19.9119 4.8194C19.9119 4.8194 19.9119 4.8194 19.9119 4.8194C19.9119 4.8194 19.9119 4.8194 19.9119 4.8194C19.9119 4.8194 19.9119 4.8194 19.9119 4.8194C19.9119 4.8194 19.9119 4.8194 19.9119 4.8194C19.9119 4.8194 19.9119 4.8194 19.9119 4.8194C19.9119 4.8194 19.9119 4.8194 19.9119 4.8194C19.9119 4.8194 19.9119 4.8194 19.912 4.8194C19.912 4.8194 19.912 4.8194 19.912 4.8194C19.912 4.8194 19.912 4.8194 19.912 4.8194C19.912 4.8194 19.912 4.8194 19.912 4.8194C19.912 4.8194 19.912 4.8194 19.912 4.8194C19.912 4.8194 19.912 4.8194 19.912 4.8194C19.912 4.8194 19.912 4.8194 19.912 4.8194C19.912 4.8194 19.912 4.8194 19.912 4.8194C19.912 4.8194 19.912 4.8194 19.912 4.8194C19.912 4.8194 19.912 4.8194 19.912 4.8194C19.912 4.8194 19.912 4.8194 19.912 4.8194C19.912 4.8194 19.912 4.8194 19.912 4.8194C19.912 4.8194 19.912 4.8194 19.912 4.8194C19.912 4.8194 19.912 4.8194 19.912 4.8194C19.912 4.8194 19.912 4.8194 19.912 4.8194C19.912 4.8194 19.912 4.8194 19.912 4.8194C19.912 4.8194 19.912 4.8194 19.912 4.8194C19.912 4.8194 19.912 4.8194 19.912 4.8194C19.912 4.8194 19.912 4.8194 19.912 4.8194C19.9121 4.8194 19.9121 4.8194 19.9121 4.8194C19.9121 4.8194 19.9121 4.8194 19.9121 4.8194C19.9121 4.8194 19.9121 4.8194 19.9121 4.8194C19.9121 4.8194 19.9121 4.8194 19.9121 4.8194C19.9121 4.8194 19.9121 4.8194 19.9121 4.8194C19.9121 4.8194 19.9121 4.8194 19.9121 4.8194C19.9121 4.8194 19.9121 4.8194 19.9121 4.8194C19.9121 4.8194 19.9121 4.8194 19.9121 4.8194C19.9121 4.8194 19.9121 4.8194 19.9121 4.8194C19.9121 4.8194 19.9121 4.8194 19.9121 4.8194C19.9121 4.8194 19.9121 4.8194 19.9121 4.8194C19.9121 4.8194 19.9121 4.8194 19.9121 4.8194C19.9121 4.8194 19.9121 4.8194 19.9121 4.8194C19.9121 4.8194 19.9121 4.8194 19.9121 4.8194C19.9121 4.8194 19.9121 4.8194 19.9121 4.8194C19.9121 4.8194 19.9121 4.8194 19.9121 4.8194C19.9121 4.8194 19.9121 4.8194 19.9121 4.8194C19.9121 4.8194 19.9121 4.8194 19.9121 4.8194C19.9121 4.8194 19.9121 4.8194 19.9121 4.8194C19.9121 4.8194 19.9122 4.8194 19.9122 4.8194C19.9122 4.8194 19.9122 4.8194 19.9122 4.8194C19.9122 4.8194 19.9122 4.8194 19.9122 4.8194C19.9122 4.8194 19.9122 4.8194 19.9122 4.8194C19.9122 4.8194 19.9122 4.8194 19.9122 4.8194C19.9122 4.8194 19.9122 4.8194 19.9122 4.8194C19.9122 4.8194 19.9122 4.8194 19.9122 4.8194C19.9122 4.8194 19.9122 4.8194 19.9122 4.8194C19.9122 4.8194 19.9122 4.8194 19.9122 4.8194C19.9122 4.8194 19.9122 4.8194 19.9122 4.8194C19.9122 4.8194 19.9122 4.8194 19.9122 4.8194C19.9122 4.8194 19.9122 4.8194 19.9122 4.8194C19.9122 4.8194 19.9122 4.8194 19.9122 4.8194C19.9122 4.8194 19.9122 4.8194 19.9122 4.8194C19.9122 4.8194 19.9122 4.8194 19.9122 4.8194C19.9122 4.8194 19.9122 4.8194 19.9122 4.8194C19.9122 4.8194 19.9122 4.8194 19.9122 4.8194C19.9122 4.8194 19.9122 4.8194 19.9122 4.8194C19.9122 4.8194 19.9122 4.8194 19.9122 4.8194C19.9122 4.8194 19.9122 4.8194 19.9122 4.8194C19.9122 4.8194 19.9122 4.8194 19.9123 4.8194C19.9123 4.8194 19.9123 4.8194 19.9123 4.8194C19.9123 4.8194 19.9123 4.8194 19.9123 4.8194C19.9123 4.8194 19.9123 4.8194 19.9123 4.8194C19.9123 4.8194 19.9123 4.8194 19.9123 4.8194C19.9123 4.8194 19.9123 4.8194 19.9123 4.8194C19.9123 4.8194 19.9123 4.8194 19.9123 4.8194C19.9123 4.8194 19.9123 4.8194 19.9123 4.8194C19.9123 4.8194 19.9123 4.8194 19.9123 4.8194C19.9123 4.8194 19.9123 4.8194 19.9123 4.8194C19.9123 4.8194 19.9123 4.8194 19.9123 4.8194C19.9123 4.8194 19.9123 4.8194 19.9123 4.8194C19.9123 4.8194 19.9123 4.8194 19.9123 4.8194C19.9123 4.8194 19.9123 4.8194 19.9123 4.8194C19.9123 4.8194 19.9123 4.8194 19.9123 4.8194C19.9123 4.8194 19.9123 4.8194 19.9123 4.8194C19.9123 4.8194 19.9123 4.8194 19.9123 4.8194C19.9123 4.8194 19.9123 4.8194 19.9123 4.8194C19.9123 4.8194 19.9123 4.8194 19.9123 4.8194C19.9123 4.8194 19.9123 4.8194 19.9123 4.8194C19.9123 4.8194 19.9123 4.8194 19.9123 4.8194C19.9123 4.8194 19.9123 4.8194 19.9123 4.8194C19.9123 4.8194 19.9123 4.8194 19.9124 4.8194C19.9124 4.8194 19.9124 4.8194 19.9124 4.8194C19.9124 4.8194 19.9124 4.8194 19.9124 4.8194C19.9124 4.8194 19.9124 4.8194 19.9124 4.8194C19.9124 4.8194 19.9124 4.8194 19.9124 4.8194C19.9124 4.8194 19.9124 4.8194 19.9124 4.8194C19.9124 4.8194 19.9124 4.8194 19.9124 4.8194C19.9124 4.8194 19.9124 4.8194 19.9124 4.8194C19.9124 4.8194 19.9124 4.8194 19.9124 4.8194C19.9124 4.8194 19.9124 4.8194 19.9124 4.8194C19.9124 4.8194 19.9124 4.8194 19.9124 4.8194C19.9124 4.8194 19.9124 4.8194 19.9124 4.8194C19.9124 4.8194 19.9124 4.8194 19.9124 4.8194C19.9124 4.8194 19.9124 4.8194 19.9124 4.8194C19.9124 4.8194 19.9124 4.8194 19.9124 4.8194C19.9124 4.8194 19.9124 4.8194 19.9124 4.8194C19.9124 4.8194 19.9124 4.8194 19.9124 4.8194C19.9124 4.8194 19.9124 4.8194 19.9124 4.8194C19.9124 4.8194 19.9124 4.8194 19.9124 4.8194C19.9124 4.8194 19.9124 4.8194 19.9124 4.8194C19.9124 4.8194 19.9124 4.8194 19.9124 4.8194C19.9124 4.8194 19.9124 4.8194 19.9124 4.8194C19.9124 4.8194 19.9124 4.8194 19.9124 4.8194C19.9124 4.8194 19.9124 4.8194 19.9124 4.8194C19.9124 4.8194 19.9124 4.8194 19.9124 4.8194C19.9124 4.8194 19.9125 4.8194 19.9125 4.8194C19.9125 4.8194 19.9125 4.8194 19.9125 4.8194C19.9125 4.8194 19.9125 4.8194 19.9125 4.8194C19.9125 4.8194 19.9125 4.8194 19.9125 4.8194C19.9125 4.8194 19.9125 4.8194 19.9125 4.8194C19.9125 4.8194 19.9125 4.8194 19.9125 4.8194C19.9125 4.8194 19.9125 4.8194 19.9125 4.8194C19.9125 4.8194 19.9125 4.8194 19.9125 4.8194C19.9125 4.8194 19.9125 4.8194 19.9125 4.8194C19.9125 4.8194 19.9125 4.8194 19.9125 4.8194C19.9125 4.8194 19.9125 4.8194 19.9125 4.8194C19.9125 4.8194 19.9125 4.8194 19.9125 4.8194C19.9125 4.8194 19.9125 4.8194 19.9125 4.8194C19.9125 4.8194 19.9125 4.8194 19.9125 4.8194C19.9125 4.8194 19.9125 4.8194 19.9125 4.8194C19.9125 4.8194 19.9125 4.8194 19.9125 4.8194C19.9125 4.8194 19.9125 4.8194 19.9125 4.8194C19.9125 4.8194 19.9125 4.8194 19.9125 4.8194C19.9125 4.8194 19.9125 4.8194 19.9125 4.8194C19.9125 4.8194 19.9125 4.8194 19.9125 4.8194C19.9125 4.8194 19.9125 4.8194 19.9125 4.8194C19.9125 4.8194 19.9125 4.8194 19.9125 4.8194C19.9125 4.8194 19.9125 4.8194 19.9125 4.8194C19.9125 4.8194 19.9125 4.8194 19.9125 4.8194C19.9125 4.8194 19.9125 4.8194 19.9125 4.8194C19.9125 4.8194 19.9125 4.8194 19.9125 4.8194C19.9125 4.8194 19.9125 4.8194 19.9125 4.8194C19.9125 4.8194 19.9125 4.8194 19.9125 4.8194C19.9125 4.8194 19.9125 4.8194 19.9125 4.8194C19.9125 4.8194 19.9126 4.8194 19.9126 4.8194C19.9126 4.8194 19.9126 4.8194 19.9126 4.8194C19.9126 4.8194 19.9126 4.8194 19.9126 4.8194C19.9126 4.8194 19.9126 4.8194 19.9126 4.8194C19.9126 4.8194 19.9126 4.8194 19.9126 4.8194C19.9126 4.8194 19.9126 4.8194 19.9126 4.8194C19.9126 4.8194 19.9126 4.8194 19.9126 4.8194C19.9126 4.8194 19.9126 4.8194 19.9126 4.8194C19.9126 4.8194 19.9126 4.8194 19.9126 4.8194C19.9126 4.8194 19.9126 4.8194 19.9126 4.8194C19.9126 4.8194 19.9126 4.8194 19.9126 4.8194C19.9126 4.8194 19.9126 4.8194 19.9126 4.8194C19.9126 4.8194 19.9126 4.8194 19.9126 4.8194C19.9126 4.8194 19.9126 4.8194 19.9126 4.8194C19.9126 4.8194 19.9126 4.8194 19.9126 4.8194C19.9126 4.8194 19.9126 4.8194 19.9126 4.8194C19.9126 4.8194 19.9126 4.8194 19.9126 4.8194C19.9126 4.8194 19.9126 4.8194 19.9126 4.8194C19.9126 4.8194 19.9126 4.8194 19.9126 4.8194C19.9126 4.8194 19.9126 4.8194 19.9126 4.8194C19.9126 4.8194 19.9126 4.8194 19.9126 4.8194C19.9126 4.8194 19.9126 4.8194 19.9126 4.8194C19.9126 4.8194 19.9126 4.8194 19.9126 4.8194C19.9126 4.8194 19.9126 4.8194 19.9126 4.8194C19.9126 4.8194 19.9126 4.8194 19.9126 4.8194C19.9126 4.8194 19.9126 4.8194 19.9126 4.8194C19.9126 4.8194 19.9126 4.8194 19.9126 4.8194C19.9126 4.8194 19.9126 4.8194 19.9126 4.8194C19.9126 4.8194 19.9126 4.8194 19.9126 4.8194C19.9126 4.8194 19.9126 4.8194 19.9126 4.8194C19.9126 4.8194 19.9126 4.8194 19.9126 4.8194C19.9126 4.8194 19.9126 4.8194 19.9126 4.8194C19.9126 4.8194 19.9126 4.8194 19.9126 4.8194C19.9126 4.8194 19.9126 4.8194 19.9126 4.8194C19.9126 4.8194 19.9126 4.8194 19.9126 4.8194C19.9126 4.8194 19.9126 4.8194 19.9126 4.8194C19.9126 4.8194 19.9126 4.8194 19.9126 4.8194C19.9126 4.8194 19.9126 4.8194 19.9126 4.8194C19.9126 4.8194 19.9126 4.8194 19.9126 4.8194C19.9126 4.8194 19.9127 4.8194 19.9127 4.8194C19.9127 4.8194 19.9127 4.8194 19.9127 4.8194C19.9127 4.8194 19.9127 4.8194 19.9127 4.8194C19.9127 4.8194 19.9127 4.8194 19.9127 4.8194C19.9127 4.8194 19.9127 4.8194 19.9127 4.8194C19.9127 4.8194 19.9127 4.8194 19.9127 4.8194C19.9127 4.8194 19.9127 4.8194 19.9127 4.8194C19.9127 4.8194 19.9127 4.8194 19.9127 4.8194C19.9127 4.8194 19.9127 4.8194 19.9127 4.8194C19.9127 4.8194 19.9127 4.8194 19.9127 4.8194C19.9127 4.8194 19.9127 4.8194 19.9127 4.8194C19.9127 4.8194 19.9127 4.8194 19.9127 4.8194C19.9127 4.8194 19.9127 4.8194 19.9127 4.8194C19.9127 4.8194 19.9127 4.8194 19.9127 4.8194C19.9127 4.8194 19.9127 4.8194 19.9127 4.8194C19.9127 4.8194 19.9127 4.8194 19.9127 4.8194C19.9127 4.8194 19.9127 4.8194 19.9127 4.8194C19.9127 4.8194 19.9127 4.8194 19.9127 4.8194C19.9127 4.8194 19.9127 4.8194 19.9127 4.8194C19.9127 4.8194 19.9127 4.8194 19.9127 4.8194C19.9127 4.8194 19.9127 4.8194 19.9127 4.8194C19.9127 4.8194 19.9127 4.8194 19.9127 4.8194C19.9127 4.8194 19.9127 4.8194 19.9127 4.8194C19.9127 4.8194 19.9127 4.8194 19.9127 4.8194C19.9127 4.8194 19.9127 4.8194 19.9127 4.8194C19.9127 4.8194 19.9127 4.8194 19.9127 4.8194C19.9127 4.8194 19.9127 4.8194 19.9127 4.8194C19.9127 4.8194 19.9127 4.8194 19.9127 4.8194C19.9127 4.8194 19.9127 4.8194 19.9127 4.8194C19.9127 4.8194 19.9127 4.8194 19.9127 4.8194C19.9127 4.8194 19.9127 4.8194 19.9127 4.8194C19.9127 4.8194 19.9127 4.8194 19.9127 4.8194C19.9127 4.8194 19.9127 4.8194 19.9127 4.8194C19.9127 4.8194 19.9127 4.8194 19.9127 4.8194C19.9127 4.8194 19.9127 4.8194 19.9127 4.8194C19.9127 4.8194 19.9127 4.8194 19.9127 4.8194C19.9127 4.8194 19.9127 4.8194 19.9127 4.8194C19.9127 4.8194 19.9127 4.8194 19.9127 4.8194C19.9127 4.8194 19.9127 4.8194 19.9127 4.8194C19.9127 4.8194 19.9127 4.8194 19.9127 4.8194C19.9127 4.8194 19.9127 4.8194 19.9127 4.8194C19.9127 4.8194 19.9127 4.8194 19.9127 4.8194C19.9127 4.8194 19.9127 4.8194 19.9127 4.8194C19.9127 4.8194 19.9127 4.8194 19.9127 4.8194C19.9127 4.8194 19.9127 4.8194 19.9127 4.8194C19.9127 4.8194 19.9127 4.8194 19.9127 4.8194C19.9127 4.8194 19.9127 4.8194 19.9127 4.8194C19.9127 4.8194 19.9127 4.8194 19.9127 4.8194C19.9127 4.8194 19.9127 4.8194 19.9127 4.8194C19.9127 4.8194 19.9127 4.8194 19.9127 4.8194C19.9127 4.8194 19.9127 4.8194 19.9127 4.8194C19.9127 4.8194 19.9127 4.8194 19.9127 4.8194C19.9127 4.8194 19.9127 4.8194 19.9127 4.8194C19.9127 4.8194 19.9127 4.8194 19.9127 4.8194C19.9127 4.8194 19.9127 4.8194 19.9127 4.8194C19.9127 4.8194 19.9127 4.8194 19.9127 4.8194C19.9127 4.8194 19.9127 4.8194 19.9127 4.8194C19.9127 4.8194 19.9127 4.8194 19.9127 4.8194C19.9127 4.8194 19.9127 4.8194 19.9127 4.8194C19.9127 4.8194 19.9127 4.8194 19.9127 4.8194C19.9127 4.8194 19.9127 4.8194 19.9127 4.8194C19.9127 4.8194 19.9127 4.8194 19.9127 4.4194ZM19.9103 4.0194C18.8926 4.0194 17.9185 4.48522 17.5044 5.39922L18.2331 5.72937C18.4823 5.17937 19.111 4.8194 19.9103 4.8194V4.0194ZM17.5044 5.39926L15.0399 10.8403L15.7687 11.1703L18.2331 5.72933L17.5044 5.39926ZM15.4043 10.6053H14.7243V11.4053H15.4043V10.6053ZM15.0928 10.8497C14.2556 8.86644 12.2987 7.64515 10.2183 7.64515V8.44515C11.9908 8.44515 13.6489 9.48635 14.3558 11.1609L15.0928 10.8497ZM10.2183 7.64515C9.94715 7.64515 9.67345 7.66585 9.39972 7.70852L9.52293 8.49897C9.75538 8.46274 9.98788 8.44515 10.2183 8.44515V7.64515ZM9.85622 8.04006L9.66737 6.86896L8.87757 6.99633L9.06643 8.16743L9.85622 8.04006ZM9.6672 6.86796C9.58327 6.35578 9.09865 6.0153 8.59041 6.09446L8.71354 6.88493C8.7972 6.8719 8.86641 6.92821 8.87774 6.99734L9.6672 6.86796ZM8.58973 6.09457C8.08165 6.1746 7.72368 6.64907 7.80812 7.16487L8.59761 7.03562C8.58689 6.97013 8.63191 6.89779 8.71422 6.88482L8.58973 6.09457ZM7.80798 7.16399L8.01587 8.45189L8.80565 8.3244L8.59775 7.0365L7.80798 7.16399ZM8.26498 8.01566C6.89644 8.55126 5.87271 9.59581 5.34224 10.8495L6.079 11.1612C6.5277 10.1008 7.39394 9.21564 8.55654 8.76064L8.26498 8.01566ZM5.71062 10.6053H5.33291V11.4053H5.71062V10.6053ZM5.73291 11.0053V8.87175H4.93291V11.0053H5.73291ZM5.33291 8.47175H1V9.27175H5.33291V8.47175ZM0.6 8.87175V22.7385H1.4V8.87175H0.6ZM1 23.1385H27V22.3385H1V23.1385ZM27.4 22.7385V8.87165H26.6V22.7385H27.4ZM27 8.47165H22.6661V9.27165H27V8.47165ZM17.8143 8.31325L18.8037 8.748L19.1255 8.01559L18.1361 7.58084L17.8143 8.31325ZM18.8038 8.74802C19.2738 8.95451 19.8308 8.7488 20.0441 8.27653L19.315 7.94727C19.2855 8.0125 19.2013 8.04889 19.1255 8.01557L18.8038 8.74802ZM20.0438 8.27724C20.2595 7.80193 20.0411 7.24919 19.5662 7.0412L19.2453 7.774C19.3179 7.8058 19.3439 7.88356 19.3153 7.94656L20.0438 8.27724ZM19.5667 7.04139L18.5773 6.60664L18.2554 7.33905L19.2449 7.7738L19.5667 7.04139ZM18.7807 7.13791L19.2219 6.16406L18.4932 5.83393L18.052 6.80778L18.7807 7.13791ZM19.2218 6.16432C19.2723 6.05306 19.4789 5.8861 19.9104 5.8861V5.0861C19.3296 5.0861 18.73 5.31213 18.4933 5.83368L19.2218 6.16432ZM19.9104 5.8861C20.1388 5.8861 20.3858 5.9388 20.6226 6.04267L20.9439 5.31003C20.6141 5.16539 20.2581 5.0861 19.9104 5.0861V5.8861ZM20.6225 6.04263C20.9851 6.20175 21.2614 6.45626 21.3979 6.71623L22.1062 6.34426C21.8714 5.89723 21.443 5.52904 20.944 5.31006L20.6225 6.04263ZM21.3979 6.7162C21.4291 6.77557 21.4626 6.85514 21.4775 6.9376C21.4921 7.01845 21.4859 7.08348 21.4618 7.13639L22.1899 7.4679C22.4065 6.99218 22.2007 6.52418 22.1062 6.34429L21.3979 6.7162ZM21.4615 7.13711L20.1404 10.0539L20.8691 10.384L22.1902 7.46718L21.4615 7.13711ZM20.6655 9.85269L19.6761 9.41829L19.3545 10.1508L20.3439 10.5852L20.6655 9.85269ZM19.6758 9.41815C19.2055 9.21217 18.6492 9.41685 18.4358 9.89L19.165 10.2189C19.1944 10.1538 19.2776 10.1171 19.3548 10.1509L19.6758 9.41815ZM18.4363 9.8889C18.2203 10.3639 18.4388 10.9172 18.9137 11.1251L19.2346 10.3923C19.162 10.3605 19.1361 10.2825 19.1645 10.22L18.4363 9.8889ZM19.0742 10.3587H19.0734V11.1587H19.0742V10.3587ZM18.9126 11.125L19.4744 11.3715L19.7959 10.639L19.2341 10.3925L18.9126 11.125ZM19.6351 10.6052H16.5898V11.4052H19.6351V10.6052ZM16.9542 11.1703L18.3396 8.1121L17.6108 7.78199L16.2255 10.8402L16.9542 11.1703ZM9.08186 9.7049C9.45123 9.57644 9.83372 9.51145 10.2184 9.51145V8.71145C9.74299 8.71145 9.27174 8.79186 8.81907 8.94929L9.08186 9.7049ZM10.2184 9.51145C10.9153 9.51145 11.5872 9.71942 12.1634 10.1138L12.6152 9.4536C11.9061 8.96828 11.0768 8.71145 10.2184 8.71145V9.51145ZM12.1637 10.114C12.5845 10.4015 12.9263 10.7727 13.1738 11.2042L13.8677 10.8061C13.56 10.2697 13.1352 9.80886 12.615 9.45343L12.1637 10.114ZM13.5208 10.6052H6.91444V11.4052H13.5208V10.6052ZM7.26122 11.2046C7.66334 10.5051 8.30044 9.97679 9.08191 9.70488L8.81902 8.94931C7.85798 9.2837 7.06691 9.93741 6.56766 10.8058L7.26122 11.2046ZM2.08306 10.3384H4.25V9.53845H2.08306V10.3384ZM3.85 9.93845V11.0052H4.65V9.93845H3.85ZM4.25 10.6052H2.08306V11.4052H4.25V10.6052ZM2.48306 11.0052V9.93845H1.68306V11.0052H2.48306ZM25.9161 21.272H2.08306V22.072H25.9161V21.272ZM2.48306 21.672V17.4048H1.68306V21.672H2.48306ZM2.08306 17.8048H25.9161V17.0048H2.08306V17.8048ZM25.5161 17.4048V21.672H26.3161V17.4048H25.5161ZM25.9161 15.9385H2.08306V16.7385H25.9161V15.9385ZM2.48306 16.3385V12.0717H1.68306V16.3385H2.48306ZM2.08306 12.4717H25.9161V11.6717H2.08306V12.4717ZM25.5161 12.0717V16.3385H26.3161V12.0717H25.5161ZM25.9161 10.6052H23.75V11.4052H25.9161V10.6052ZM24.15 11.0052V9.93845H23.35V11.0052H24.15ZM23.75 10.3384H25.9161V9.53845H23.75V10.3384ZM25.5161 9.93845V11.0052H26.3161V9.93845H25.5161Z" fill="#FF9E0A" mask="url(#path-1-outside-1_720_7254)"/>
</svg>
