<svg width="30" height="20" viewBox="0 0 30 20" fill="none" xmlns="http://www.w3.org/2000/svg">
<path d="M29.0922 8.78553L29.2001 8.8416L29.2 8.96319L29.1923 16.7507L29.1921 16.9504L28.9924 16.9505L26.7658 16.9513C26.4148 18.2492 25.194 19.2 23.7499 19.2C22.3067 19.2 21.0868 18.2509 20.7351 16.9539L16.2679 16.9562C15.9155 18.2516 14.6956 19.2 13.2541 19.2C11.9238 19.2 10.783 18.3937 10.3373 17.2518C9.89114 18.3933 8.75027 19.2 7.42048 19.2C6.02929 19.2 4.84507 18.3176 4.44669 17.0917L3.47491 18.0198L3.41693 18.0752H3.33677H0.999794H0.799793V17.8752V5.49978V5.41474L0.861032 5.35574L5.53171 0.855968L5.5898 0.8H5.67047H24.337C24.7627 0.8 25.1206 1.13488 25.1206 1.56279C25.1206 1.99108 24.7623 2.32473 24.337 2.32473H21.0342L21.0337 3.05031H24.3335H24.4551L24.5111 3.15826L26.8147 7.60182L29.0922 8.78553ZM19.4662 3.24916L19.4676 2.32473H6.23382L2.36607 6.0512V13.3754V14.5002V16.5505H2.77626L3.54204 15.8182L3.54216 15.8181L3.88308 15.4926L3.94105 15.4372H4.02119H4.40199C4.74763 14.1326 5.972 13.1754 7.42037 13.1754C8.75054 13.1754 9.89157 13.9823 10.3372 15.1243C10.7826 13.9823 11.9231 13.1754 13.254 13.1754C14.7008 13.1754 15.9225 14.1294 16.2711 15.4314L20.7329 15.429C21.0822 14.1286 22.3039 13.1754 23.7498 13.1754C25.1948 13.1754 26.4156 14.127 26.7657 15.4264L27.6249 15.4258V14.5001V13.3754V12.2498V11.1251V10.9251H27.6335V9.75592L26.0204 8.91798L26.0204 8.91794L25.6956 8.74903L25.6395 8.71983L25.6104 8.66367L25.4454 8.34562L25.4454 8.3456L23.4907 4.57504H21.0335V12.8127C21.0335 13.2406 20.6755 13.5754 20.2498 13.5754C19.8241 13.5754 19.4662 13.2406 19.4662 12.8127V4.57504H19.4652L19.4653 4.37489L19.4662 3.24931V3.24916ZM8.9705 16.1877C8.9705 15.3746 8.28169 14.7002 7.42048 14.7002C6.55927 14.7002 5.87047 15.3746 5.87047 16.1877C5.87047 17.0007 6.55927 17.6752 7.42048 17.6752C8.28169 17.6752 8.9705 17.0007 8.9705 16.1877ZM14.8042 16.1877C14.8042 15.3746 14.1154 14.7002 13.2542 14.7002C12.3922 14.7002 11.7041 15.3746 11.7041 16.1877C11.7041 17.0008 12.3922 17.6752 13.2542 17.6752C14.1154 17.6752 14.8042 17.0007 14.8042 16.1877ZM25.3 16.1877C25.3 15.3746 24.6112 14.7002 23.75 14.7002C22.8888 14.7002 22.1999 15.3746 22.1999 16.1877C22.1999 17.0007 22.8888 17.6752 23.75 17.6752C24.6112 17.6752 25.3 17.0007 25.3 16.1877Z" fill="#FF9E0A" stroke="#FF9E0A" stroke-width="0.4"/>
</svg>
