<svg width="19" height="19" viewBox="0 0 19 19" fill="none" xmlns="http://www.w3.org/2000/svg">
<path fill-rule="evenodd" clip-rule="evenodd" d="M9.5 0C4.256 0 0 4.256 0 9.5C0 14.744 4.256 19 9.5 19C14.744 19 19 14.744 19 9.5C19 4.256 14.744 0 9.5 0C9.5 0 4.256 0 9.5 0ZM8.55 4.75V8.55H4.75V10.45H8.55V14.25H10.45V10.45H14.25V8.55H10.45V4.75H8.55ZM1.9 9.5C1.9 13.6895 5.3105 17.1 9.5 17.1C13.6895 17.1 17.1 13.6895 17.1 9.5C17.1 5.3105 13.6895 1.9 9.5 1.9C5.3105 1.9 1.9 5.3105 1.9 9.5C1.9 9.5 1.9 13.6895 1.9 9.5Z" fill="#386BEE"/>
</svg>
