<svg width="19" height="24" viewBox="0 0 19 24" fill="none" xmlns="http://www.w3.org/2000/svg">
<path id="Shape" fill-rule="evenodd" clip-rule="evenodd" d="M16 8H14.8571V5.71429C14.8571 2.56 12.2971 0 9.14286 0C5.98857 0 3.42857 2.56 3.42857 5.71429V8H2.28571C1.02857 8 0 9.02857 0 10.2857V21.7143C0 22.9714 1.02857 24 2.28571 24H16C17.2571 24 18.2857 22.9714 18.2857 21.7143V10.2857C18.2857 9.02857 17.2571 8 16 8ZM9.14286 18.2857C7.88571 18.2857 6.85714 17.2571 6.85714 16C6.85714 14.7429 7.88571 13.7143 9.14286 13.7143C10.4 13.7143 11.4286 14.7429 11.4286 16C11.4286 17.2571 10.4 18.2857 9.14286 18.2857ZM12.6856 8.00003H5.59989V5.71431C5.59989 3.76003 7.18846 2.17146 9.14275 2.17146C11.097 2.17146 12.6856 3.76003 12.6856 5.71431V8.00003Z" fill="#2D4379" fill-opacity="0.4"/>
</svg>
