<svg width="21" height="23" viewBox="0 0 21 23" fill="none" xmlns="http://www.w3.org/2000/svg">
<path fill-rule="evenodd" clip-rule="evenodd" d="M10.35 9.2C9.0275 9.2 8.05 8.2248 8.05 6.9C8.05 5.5752 9.0275 4.6 10.35 4.6C11.6737 4.6 12.65 5.5752 12.65 6.9C12.65 8.2248 11.6737 9.2 10.35 9.2ZM10.35 10.35C12.8904 10.35 14.95 12.2038 14.95 14.49V14.9339H5.75V14.49C5.75 12.2038 7.80965 10.35 10.35 10.35ZM2.3 0H18.4C19.6685 0 20.7 1.03155 20.7 2.3V17.25C20.7 18.5184 19.6685 19.55 18.4 19.55H13.8L10.35 23L6.9 19.55H2.3C1.03155 19.55 0 18.5184 0 17.25V2.3C0 1.03155 1.03155 0 2.3 0ZM10.35 19.55L12.65 17.25H18.4023L18.4 2.3H2.3V17.25H8.05L10.35 19.55Z" fill="#2D4379"/>
</svg>
