<?xml version="1.0" encoding="utf-8"?><svg xmlns="http://www.w3.org/2000/svg" xmlns:xlink="http://www.w3.org/1999/xlink"><symbol viewBox="0 0 63 36" id="MyTarget" xmlns="http://www.w3.org/2000/svg"><path d="M25.957 19.799c-2.528 3.375-4.723 2.547-6.489-.796a19.309 19.309 0 01-2.416 2.082c-1.863 1.168-3.86.073-3.982-2.144-.044-.82 0-1.654-.039-2.487a2.6 2.6 0 00-.373-.82c-.28.141-.683.212-.82.441-.321.6-.6 1.223-.825 1.863-.33.79-.621 1.605-.97 2.373a1.794 1.794 0 01-2.07 1 1.622 1.622 0 01-1.466-1.63c-.063-1.062.057-2.138 0-3.206a3.816 3.816 0 00-.349-1.013c-.286.237-.697.412-.844.714-.558 1.212-1.057 2.522-1.615 3.765-.17.425-.404.82-.698 1.168a1.647 1.647 0 01-2.857-.782 2.284 2.284 0 01-.093-.539c0-2.487-.082-5.02-.038-7.532.022-.668.24-1.316.62-1.863A3 3 0 012.22 9.336c.957-.256 1.43.198 1.474 1.242.038.8 0 1.61 0 2.416l.417.117a7.4 7.4 0 00.833-.964c.524-.858.976-1.765 1.499-2.629a1.752 1.752 0 012.1-.907 1.622 1.622 0 011.242 1.795v2.697l.354.112c.251-.226.488-.472.703-.733.747-.888 1.441-1.828 2.212-2.691a3.2 3.2 0 011.174-.845 1.813 1.813 0 012.585 1.94 360.404 360.404 0 00-.335 5.407 8.42 8.42 0 00.05.98 3.732 3.732 0 002.541-2.982 37.84 37.84 0 01.54-4.432 1.946 1.946 0 011.77-1.635 2.086 2.086 0 012.114.82c.545.782.567 1.814.05 2.615-.747 1.242-.698 2.59-.53 3.92.082.583.41 1.1.897 1.43.678.33 1.242-.267 1.509-.863.477-1.22.893-2.465 1.242-3.73.262-.877.368-1.803.621-2.672.384-1.212 1.242-1.746 2.275-1.504a2.16 2.16 0 011.615 2.444c-.073.621-.316 1.18-.411 1.784-.3 1.828-.558 3.662-.853 5.593 1.406-.441 2.523-.82 3.667-1.125a5.773 5.773 0 011.635-.106c1.032 0 1.517.515 1.863 1.683 1.136 3.686 3.598 5.892 7.407 6.533 5.48.926 10.7-3.991 10.155-9.527-.038-.367-.087-.732-.111-1.1a1.865 1.865 0 113.685-.444c.752 5.034-.833 9.216-4.86 12.316-5.546 4.227-13.47 3.157-17.698-2.39a12.88 12.88 0 01-.945-1.432c-.853-1.48-1.125-1.567-2.673-.826a2.626 2.626 0 01-.248.125c-1.547.578-2.124 1.665-2.269 3.338a50.183 50.183 0 01-1.242 7.861c-.834 3.3-2.852 3.885-5.593 1.864-3.386-2.468-4.007-6.282-1.416-9.521a21.921 21.921 0 013.773-3.454 1.936 1.936 0 00.92-2.057zm-.256 6.178l-.384-.169a22.94 22.94 0 00-1.465 2.218 1.868 1.868 0 00.416 2.2c.398.429.81.549.921-.211.202-1.365.322-2.69.512-4.038z"/><path d="M51.848 6.015a3.734 3.734 0 011.422-3.4c.77-.689 1.46-1.484 2.225-2.187.286-.191.602-.335.932-.428a3.5 3.5 0 01.286.902c.038 1.1.03 2.2 0 3.307 0 .77.34 1.111 1.111 1.106h3.395c.283.049.558.141.814.272-.073.308-.196.6-.368.864-.901.956-1.863 1.863-2.778 2.803-.63.656-1.54.962-2.436.814a3.417 3.417 0 00-3.263 1.349c-.964 1.106-2.095 2.062-3.108 3.138a1.776 1.776 0 00-.442 1.174 3.888 3.888 0 01-3.59 4.168 3.888 3.888 0 01-4.176-3.993 3.823 3.823 0 014.274-3.662 1.58 1.58 0 001.45-.523c1.037-1.081 2.08-2.163 3.2-3.163.815-.694 1.313-1.44 1.052-2.541z"/><path d="M34.353 10.768c.107-.33.24-.648.398-.956 2.692-4.633 8-7.085 13.275-6.126 1.286.248 2.013 1.12 1.828 2.2-.186 1.082-1.163 1.728-2.487 1.485a8.979 8.979 0 00-9.24 4.084c-.161.297-.35.578-.56.839a1.76 1.76 0 01-2.094.455c-.741-.313-1.133-.915-1.12-1.98z"/></symbol><symbol viewBox="0 0 43 40" id="Shape" xmlns="http://www.w3.org/2000/svg"><path fill-rule="evenodd" clip-rule="evenodd" d="M40 33.333v2.223C40 38 38 40 35.556 40H4.444C1.978 40 0 38 0 35.556V4.444A4.443 4.443 0 014.444 0h31.112C38 0 40 2 40 4.444v2.223H20c-2.467 0-4.444 2-4.444 4.444V28.89A4.443 4.443 0 0020 33.333h20zM20 28.89h22.222V11.11H20v17.78zm8.889-5.556A3.329 3.329 0 0125.556 20a3.329 3.329 0 013.333-3.333A3.329 3.329 0 0132.222 20a3.329 3.329 0 01-3.333 3.333z"/></symbol><symbol viewBox="0 0 36 24" id="arrow" xmlns="http://www.w3.org/2000/svg"><path fill-rule="evenodd" clip-rule="evenodd" d="M0 10h28.34l-7.16-7.18L24 0l12 12-12 12-2.82-2.82L28.34 14H0v-4z"/></symbol><symbol viewBox="0 0 12 22" id="arrowRight" xmlns="http://www.w3.org/2000/svg"><path d="M11.118 10.522L2.118 0 0 2.476l6.882 8.046L0 18.568l2.118 2.476 9-10.522z"/></symbol><symbol viewBox="0 0 10 7" id="arrow_down" xmlns="http://www.w3.org/2000/svg"><path d="M5 6.176l5-5L8.824 0 5 3.824 1.176 0 0 1.176l5 5z"/></symbol><symbol viewBox="0 0 23 19" id="arrows" xmlns="http://www.w3.org/2000/svg"><path d="M18.119 14.518l-2.891 2.902 1.58 1.58 5.602-5.603-5.602-5.602-1.58 1.58 2.89 2.902H0v2.241h18.119z"/><path d="M4.291 4.482L7.182 1.58 5.602 0 0 5.603l5.602 5.602 1.58-1.58-2.89-2.902H22.41v-2.24H4.291z"/></symbol><symbol viewBox="0 0 44 49" id="calendar" xmlns="http://www.w3.org/2000/svg"><path fill-rule="evenodd" clip-rule="evenodd" d="M33.506 26.173l-3.456-3.457L19.556 33.21l-5.606-5.605-3.456 3.457 9.062 9.061 13.95-13.95zm5.605-21.284h-4.889V0h-4.889v4.889H14.667V0h-4.89v4.889H4.89A4.894 4.894 0 000 9.778V44a4.894 4.894 0 004.889 4.889H39.11A4.894 4.894 0 0044 44V9.778a4.894 4.894 0 00-4.889-4.89zM39.116 44H4.889V19.556H39.11L39.116 44zm-.004-29.333v-4.89H4.888v4.89h34.223z"/></symbol><symbol viewBox="0 0 44 49" id="calendar_check" xmlns="http://www.w3.org/2000/svg"><path fill-rule="evenodd" clip-rule="evenodd" d="M33.506 26.173l-3.456-3.457L19.556 33.21l-5.606-5.605-3.456 3.457 9.062 9.061 13.95-13.95zm5.605-21.284h-4.889V0h-4.889v4.889H14.667V0h-4.89v4.889H4.89A4.894 4.894 0 000 9.778V44a4.894 4.894 0 004.889 4.889H39.11A4.894 4.894 0 0044 44V9.778a4.894 4.894 0 00-4.889-4.89zM39.116 44H4.889V19.556H39.11L39.116 44zm-.004-29.333v-4.89H4.888v4.89h34.223z"/></symbol><symbol viewBox="0 0 50 40" id="card" xmlns="http://www.w3.org/2000/svg"><path fill-rule="evenodd" clip-rule="evenodd" d="M5 0C2.243 0 0 2.243 0 5v30c0 2.758 2.243 5 5 5h40c2.758 0 5-2.242 5-5V5c0-2.757-2.242-5-5-5H5zm40 5v5H5V5h40zM5 20h40.002l.003 15H5V20zm22.5 5v5H10v-5h17.5z"/></symbol><symbol viewBox="0 0 8 4" id="caret_down" xmlns="http://www.w3.org/2000/svg"><path d="M4 4l4-4H0l4 4z"/></symbol><symbol viewBox="0 0 10 7" id="chevron_down" xmlns="http://www.w3.org/2000/svg"><path d="M5 6.176l5-5L8.824 0 5 3.824 1.176 0 0 1.176l5 5z"/></symbol><symbol viewBox="0 0 23 23" id="chevron_right" xmlns="http://www.w3.org/2000/svg"><path fill-rule="evenodd" clip-rule="evenodd" d="M9.833 17.25l-1.627-1.626 4.066-4.066-4.066-4.066 1.627-1.626 5.692 5.692-5.692 5.692zM0 11.5C0 5.149 5.149 0 11.5 0S23 5.149 23 11.5 17.851 23 11.5 23 0 17.851 0 11.5c0 0 0-6.351 0 0zm2.3 0a9.2 9.2 0 1118.4 0 9.2 9.2 0 01-18.4 0s0-5.081 0 0z"/></symbol><symbol viewBox="0 0 19 19" id="circle" xmlns="http://www.w3.org/2000/svg"><path fill-rule="evenodd" clip-rule="evenodd" d="M9.5 0C4.256 0 0 4.256 0 9.5S4.256 19 9.5 19 19 14.744 19 9.5 14.744 0 9.5 0c0 0-5.244 0 0 0zm-.95 4.75v3.8h-3.8v1.9h3.8v3.8h1.9v-3.8h3.8v-1.9h-3.8v-3.8h-1.9zM1.9 9.5c0 4.19 3.41 7.6 7.6 7.6 4.19 0 7.6-3.41 7.6-7.6 0-4.19-3.41-7.6-7.6-7.6-4.19 0-7.6 3.41-7.6 7.6 0 0 0 4.19 0 0z"/></symbol><symbol viewBox="0 0 33 24" id="circle_arrow" xmlns="http://www.w3.org/2000/svg"><path fill-rule="evenodd" clip-rule="evenodd" d="M27 6l-6 6h4.5c0 4.965-4.035 9-9 9a8.806 8.806 0 01-4.2-1.05l-2.19 2.19A11.896 11.896 0 0016.5 24c6.63 0 12-5.37 12-12H33l-6-6zM7.5 12c0-4.965 4.035-9 9-9 1.515 0 2.955.375 4.2 1.05l2.19-2.19A11.896 11.896 0 0016.5 0c-6.63 0-12 5.37-12 12H0l6 6 6-6H7.5z"/></symbol><symbol viewBox="0 0 16 16" id="circle_check_active" xmlns="http://www.w3.org/2000/svg"><path fill-rule="evenodd" clip-rule="evenodd" d="M0 8c0-4.416 3.584-8 8-8s8 3.584 8 8-3.584 8-8 8-8-3.584-8-8c0 0 0-4.416 0 0zm6.4 1.736l5.272-5.272L12.8 5.6 6.4 12 3.2 8.8l1.128-1.128L6.4 9.736z"/></symbol><symbol viewBox="0 0 16 16" id="circle_check_outline" xmlns="http://www.w3.org/2000/svg"><path fill-rule="evenodd" clip-rule="evenodd" d="M8 0C3.584 0 0 3.584 0 8s3.584 8 8 8 8-3.584 8-8-3.584-8-8-8c0 0-4.416 0 0 0zm0 14.4A6.408 6.408 0 011.6 8c0-3.528 2.872-6.4 6.4-6.4 3.528 0 6.4 2.872 6.4 6.4 0 3.528-2.872 6.4-6.4 6.4 0 0-3.528 0 0 0zM6.4 9.736l5.272-5.272L12.8 5.6 6.4 12 3.2 8.8l1.128-1.128L6.4 9.736z"/></symbol><symbol viewBox="0 0 15 15" id="circle_chevron_up" xmlns="http://www.w3.org/2000/svg"><path fill-rule="evenodd" clip-rule="evenodd" d="M11.25 8.587l-1.06 1.061-2.652-2.652-2.652 2.652-1.06-1.06 3.712-3.713 3.712 3.712zM7.5 15a7.5 7.5 0 110-15 7.5 7.5 0 010 15s-4.142 0 0 0zm0-1.5a6 6 0 110-12 6 6 0 010 12s-3.314 0 0 0z"/></symbol><symbol viewBox="0 0 20 20" id="close_big" xmlns="http://www.w3.org/2000/svg"><path d="M17.986 0L10 7.986 2.014 0 0 2.014 7.986 10 0 17.986 2.014 20 10 12.014 17.986 20 20 17.986 12.014 10 20 2.014 17.986 0z"/></symbol><symbol viewBox="0 0 50 40" id="credit_card" xmlns="http://www.w3.org/2000/svg"><path fill-rule="evenodd" clip-rule="evenodd" d="M5 0C2.243 0 0 2.243 0 5v30c0 2.758 2.243 5 5 5h40c2.758 0 5-2.242 5-5V5c0-2.757-2.242-5-5-5H5zm40 5v5H5V5h40zM5 20h40.002l.003 15H5V20zm22.5 5v5H10v-5h17.5z"/></symbol><symbol viewBox="0 0 16 19" id="data" xmlns="http://www.w3.org/2000/svg"><path fill-rule="evenodd" clip-rule="evenodd" d="M15.2 4.222C15.2 1.934 11.72 0 7.6 0 3.48 0 0 1.934 0 4.222v10.556C0 17.066 3.48 19 7.6 19c4.12 0 7.6-1.934 7.6-4.222V4.222zm-1.9-.006c-.066.527-2.194 2.117-5.7 2.117-3.506 0-5.634-1.59-5.7-2.104.066-.527 2.194-2.118 5.7-2.118 3.507 0 5.634 1.59 5.7 2.105zM7.6 8.444c2.245 0 4.295-.576 5.7-1.47v2.52c-.066.526-2.194 2.117-5.7 2.117-3.506 0-5.634-1.59-5.7-2.111V6.974c1.405.894 3.455 1.47 5.7 1.47zm-5.7 3.808c1.405.894 3.455 1.47 5.7 1.47s4.295-.576 5.7-1.47v2.52c-.066.526-2.194 2.117-5.7 2.117-3.506 0-5.634-1.59-5.7-2.111v-2.526z"/></symbol><symbol viewBox="0 0 14 11" id="done" xmlns="http://www.w3.org/2000/svg"><path fill-rule="evenodd" clip-rule="evenodd" d="M6 9.333l-1.333 1.334L0 6l1.333-1.333L6 9.333zM12.667 0L14 1.333l-8 8L4.667 8l8-8z"/></symbol><symbol viewBox="0 0 13 18" id="download" xmlns="http://www.w3.org/2000/svg"><path fill-rule="evenodd" clip-rule="evenodd" d="M5.4 10.953L2.169 7.731.9 9l5.4 5.4L11.7 9l-1.269-1.269L7.2 10.953V0H5.4v10.953zm7.2 5.247V18H0v-1.8h12.6z"/></symbol><symbol viewBox="0 0 20 20" id="edit" xmlns="http://www.w3.org/2000/svg"><path fill-rule="evenodd" clip-rule="evenodd" d="M.273 15.845l-.268 2.958a1.098 1.098 0 001.192 1.192l2.957-.268 12.42-12.42-3.881-3.88L.273 15.844zM19.678 4.204a1.098 1.098 0 000-1.553L17.35.322a1.098 1.098 0 00-1.553 0L13.47 2.65l3.88 3.881 2.33-2.328z"/></symbol><symbol viewBox="0 0 23 18" id="email" xmlns="http://www.w3.org/2000/svg"><path fill-rule="evenodd" clip-rule="evenodd" d="M20.25 0h-18A2.247 2.247 0 00.011 2.25L0 15.75A2.257 2.257 0 002.25 18h18a2.257 2.257 0 002.25-2.25V2.25A2.257 2.257 0 0020.25 0zm0 15.75h-18V4.5l9 5.625 9-5.625v11.25zm-9-7.875l-9-5.625h18l-9 5.625z" fill-opacity=".4"/></symbol><symbol viewBox="0 0 12 12" id="green_ellipse" xmlns="http://www.w3.org/2000/svg"><circle cx="6" cy="6" r="6"/></symbol><symbol viewBox="0 0 41 44" id="hand" xmlns="http://www.w3.org/2000/svg"><path fill-rule="evenodd" clip-rule="evenodd" d="M40.333 36.667C40.333 40.7 37.033 44 33 44H19.617a7.32 7.32 0 01-5.225-2.182L0 27.188c.917-1.521 2.349-2.274 2.383-2.291a2.172 2.172 0 011.449-.532c.403 0 .77.11 1.1.293.073.019 7.901 4.51 7.901 4.51V7.333a2.746 2.746 0 012.75-2.75 2.746 2.746 0 012.75 2.75v12.834h1.834V2.75A2.746 2.746 0 0122.917 0a2.746 2.746 0 012.75 2.75v17.417H27.5V4.583a2.746 2.746 0 012.75-2.75A2.746 2.746 0 0133 4.583v15.584h1.833V10.083a2.746 2.746 0 012.75-2.75 2.746 2.746 0 012.75 2.75v26.584z"/></symbol><symbol viewBox="0 0 43 40" id="hands" xmlns="http://www.w3.org/2000/svg"><path fill-rule="evenodd" clip-rule="evenodd" d="M40 33.333v2.223C40 38 38 40 35.556 40H4.444C1.978 40 0 38 0 35.556V4.444A4.443 4.443 0 014.444 0h31.112C38 0 40 2 40 4.444v2.223H20c-2.467 0-4.444 2-4.444 4.444V28.89A4.443 4.443 0 0020 33.333h20zM20 28.89h22.222V11.11H20v17.78zm8.889-5.556A3.329 3.329 0 0125.556 20a3.329 3.329 0 013.333-3.333A3.329 3.329 0 0132.222 20a3.329 3.329 0 01-3.333 3.333z"/></symbol><symbol viewBox="0 0 19 19" id="line_chart_up" xmlns="http://www.w3.org/2000/svg"><path fill-rule="evenodd" clip-rule="evenodd" d="M0 17.944C0 18.528.472 19 1.056 19H19v-2.111H2.111V0H0v17.944zm13.874-6.229L19 6.697l-1.45-1.42-4.401 4.31-2.35-2.302a1.04 1.04 0 00-1.45 0l-5.127 5.018 1.45 1.42 4.401-4.31 2.351 2.302a1.04 1.04 0 001.45 0z"/></symbol><symbol viewBox="0 0 19 24" id="lock" xmlns="http://www.w3.org/2000/svg"><path fill-rule="evenodd" clip-rule="evenodd" d="M16 8h-1.143V5.714A5.716 5.716 0 009.143 0a5.716 5.716 0 00-5.714 5.714V8H2.286A2.292 2.292 0 000 10.286v11.428A2.292 2.292 0 002.286 24H16a2.292 2.292 0 002.286-2.286V10.286A2.292 2.292 0 0016 8zM9.143 18.286A2.292 2.292 0 016.857 16a2.292 2.292 0 012.286-2.286A2.292 2.292 0 0111.429 16a2.292 2.292 0 01-2.286 2.286zM12.686 8H5.6V5.714a3.546 3.546 0 013.543-3.543 3.546 3.546 0 013.543 3.543V8z" fill-opacity=".4"/></symbol><symbol viewBox="0 0 30 24" id="mail" xmlns="http://www.w3.org/2000/svg"><path fill-rule="evenodd" clip-rule="evenodd" d="M0 3a3 3 0 013-3h24a3 3 0 013 3v18a3 3 0 01-3 3H3a3 3 0 01-3-3V3c0-1.657 0 0 0 0zm27 2.803V21H3V5.803l12 8 12-8zM25.796 3H4.204L15 10.197 25.796 3z" fill-opacity=".3"/></symbol><symbol viewBox="0 0 21 21" id="note" xmlns="http://www.w3.org/2000/svg"><path fill-rule="evenodd" clip-rule="evenodd" d="M9.45 13.65h2.1v2.1h-2.1v-2.1zm0-8.4h2.1v6.3h-2.1v-6.3zM10.49 0C4.693 0 0 4.704 0 10.5S4.694 21 10.49 21C16.296 21 21 16.296 21 10.5S16.296 0 10.49 0zm.01 18.9a8.398 8.398 0 01-8.4-8.4c0-4.641 3.759-8.4 8.4-8.4s8.4 3.759 8.4 8.4-3.759 8.4-8.4 8.4z"/></symbol><symbol viewBox="0 0 12 15" id="notification" xmlns="http://www.w3.org/2000/svg"><path fill-rule="evenodd" clip-rule="evenodd" d="M6.75 0a3.733 3.733 0 00-.708 2.813H6c-2.25 0-3 1.702-3 3.562v4.875h6V6.375c0-.152-.005-.304-.016-.453a3.766 3.766 0 001.505.005c.007.148.011.297.011.448V10.5l1.5.75v1.5H0v-1.5l1.5-.75V6.375c0-2.31.855-4.23 3-4.74V0h2.25zm.83 1.655a2.251 2.251 0 114.34 1.192 2.251 2.251 0 01-4.34-1.192zM7.5 13.5h-3c0 .825.675 1.5 1.5 1.5s1.5-.675 1.5-1.5z"/></symbol><symbol viewBox="0 0 28 29" id="phone" xmlns="http://www.w3.org/2000/svg"><path fill-rule="evenodd" clip-rule="evenodd" d="M19.592 15.165l-2.349 2.348c-1.088-.324-3.12-1.06-4.408-2.348-1.287-1.288-2.024-3.32-2.348-4.408l2.348-2.349a1.472 1.472 0 000-2.083L6.942.432a1.472 1.472 0 00-2.083 0L.864 4.428A2.944 2.944 0 000 6.542c.034 2.098.59 9.384 6.332 15.127 5.743 5.743 13.03 6.297 15.13 6.332h.04c.778 0 1.514-.306 2.07-.863l3.996-3.996a1.472 1.472 0 000-2.083l-5.893-5.894a1.472 1.472 0 00-2.083 0zm-11.176 4.42c-4.96-4.96-5.44-11.273-5.47-13.074l2.955-2.954 3.81 3.81-1.905 1.905a1.47 1.47 0 00-.401 1.343c.035.17.9 4.187 3.346 6.633 2.445 2.445 6.463 3.31 6.632 3.346a1.46 1.46 0 001.344-.4l1.906-1.905 3.81 3.81-2.955 2.954c-1.839-.03-8.13-.524-13.072-5.469z" fill-opacity=".3"/></symbol><symbol viewBox="0 0 50 50" id="pie" xmlns="http://www.w3.org/2000/svg"><path fill-rule="evenodd" clip-rule="evenodd" d="M50 25c0 13.807-11.193 25-25 25S0 38.807 0 25 11.193 0 25 0s25 11.193 25 25zm-9.86 13.069A19.918 19.918 0 0044.845 27.5H29.571L40.14 38.069c2.515-2.911 0 0 0 0zm-3.72 3.352A19.908 19.908 0 0125 45C13.954 45 5 36.046 5 25 5 14.801 12.634 6.385 22.5 5.155v20.792a3.75 3.75 0 001.098 2.651l12.823 12.823c-3.238 2.256 0 0 0 0zM27.5 22.5h17.345C43.717 13.453 36.547 6.283 27.5 5.155V22.5z"/></symbol><symbol viewBox="0 0 50 50" id="pie_chart_outline" xmlns="http://www.w3.org/2000/svg"><path fill-rule="evenodd" clip-rule="evenodd" d="M50 25c0 13.807-11.193 25-25 25S0 38.807 0 25 11.193 0 25 0s25 11.193 25 25zm-9.86 13.069A19.918 19.918 0 0044.845 27.5H29.571L40.14 38.069c2.515-2.911 0 0 0 0zm-3.72 3.352A19.908 19.908 0 0125 45C13.954 45 5 36.046 5 25 5 14.801 12.634 6.385 22.5 5.155v20.792a3.75 3.75 0 001.098 2.651l12.823 12.823c-3.238 2.256 0 0 0 0zM27.5 22.5h17.345C43.717 13.453 36.547 6.283 27.5 5.155V22.5z"/></symbol><symbol viewBox="0 0 41 50" id="protect" xmlns="http://www.w3.org/2000/svg"><path fill-rule="evenodd" clip-rule="evenodd" d="M20.454 0L0 9.09v13.637C0 35.341 8.727 47.137 20.454 50 32.182 47.136 40.91 35.34 40.91 22.727V9.091L20.455 0zM15.91 36.364l-9.09-9.091 3.204-3.205 5.886 5.864 14.977-14.978 3.205 3.228L15.91 36.364z"/></symbol><symbol viewBox="0 0 19 16" id="rightArrow" xmlns="http://www.w3.org/2000/svg"><path d="M13.88 9.333L9.796 14.12 11.405 16l6.842-8-6.842-8-1.608 1.88 4.082 4.787H0v2.666h13.88z"/></symbol><symbol viewBox="0 0 22 22" id="search_mob" xmlns="http://www.w3.org/2000/svg"><path fill-rule="evenodd" clip-rule="evenodd" d="M14.428 12.555a7.949 7.949 0 10-1.873 1.873L20.126 22 22 20.127l-7.572-7.572s2.212-3.104 0 0zm-2.732-8.353A5.3 5.3 0 114.2 11.696a5.3 5.3 0 017.495-7.494s2.07 2.069 0 0z"/></symbol><symbol viewBox="0 0 10 9" id="short_right" xmlns="http://www.w3.org/2000/svg"><path d="M7.606 5.115L5.37 7.738l.881 1.03L10 4.384 6.25 0l-.881 1.03 2.237 2.623H0v1.462h7.606z"/></symbol><symbol viewBox="0 0 23 20" id="swap" xmlns="http://www.w3.org/2000/svg"><path d="M18.596 14.9l-2.967 2.978L17.25 19.5 23 13.75 17.25 8l-1.621 1.621 2.967 2.979H0v2.3h18.596z"/><path d="M4.404 4.6l2.968-2.978L5.75 0 0 5.75l5.75 5.75 1.622-1.621L4.404 6.9H23V4.6H4.404z"/></symbol><symbol viewBox="0 0 20 19" id="tools" xmlns="http://www.w3.org/2000/svg"><path fill-rule="evenodd" clip-rule="evenodd" d="M18.865 15.53L10.97 7.635c.78-1.996.347-4.338-1.301-5.986C7.933-.087 5.33-.434 3.249.52l3.73 3.73-2.603 2.603L.56 3.124c-1.041 2.082-.607 4.684 1.128 6.42 1.648 1.648 3.99 2.082 5.986 1.3l7.895 7.896a.839.839 0 001.215 0l1.995-1.996c.434-.347.434-.954.087-1.214z"/></symbol><symbol viewBox="0 0 19 20" id="user" xmlns="http://www.w3.org/2000/svg"><path fill-rule="evenodd" clip-rule="evenodd" d="M4.21 5.263a5.27 5.27 0 005.264 5.263 5.27 5.27 0 005.263-5.263A5.27 5.27 0 009.474 0 5.27 5.27 0 004.21 5.263zm2.106 0a3.162 3.162 0 013.158-3.158 3.162 3.162 0 013.158 3.158 3.162 3.162 0 01-3.158 3.158 3.162 3.162 0 01-3.158-3.158zm12.631 13.684c0-4.062-3.306-7.368-7.368-7.368h-4.21C3.304 11.579 0 14.885 0 18.947V20h2.105v-1.053a5.27 5.27 0 015.263-5.263h4.21a5.27 5.27 0 015.264 5.263V20h2.105v-1.053z"/></symbol><symbol viewBox="0 0 16 16" id="user-fill" xmlns="http://www.w3.org/2000/svg"><circle cx="8" cy="4.444" r="3.556"/><path fill-rule="evenodd" clip-rule="evenodd" d="M8 9.778c-2.373 0-7.111 1.19-7.111 3.555v1.778H15.11v-1.778c0-2.364-4.738-3.555-7.111-3.555z"/></symbol><symbol viewBox="0 0 21 23" id="user_pin" xmlns="http://www.w3.org/2000/svg"><path fill-rule="evenodd" clip-rule="evenodd" d="M10.35 9.2c-1.322 0-2.3-.975-2.3-2.3 0-1.325.977-2.3 2.3-2.3 1.324 0 2.3.975 2.3 2.3 0 1.325-.976 2.3-2.3 2.3zm0 1.15c2.54 0 4.6 1.854 4.6 4.14v.444h-9.2v-.444c0-2.286 2.06-4.14 4.6-4.14zM2.3 0h16.1c1.269 0 2.3 1.032 2.3 2.3v14.95c0 1.268-1.031 2.3-2.3 2.3h-4.6L10.35 23 6.9 19.55H2.3a2.302 2.302 0 01-2.3-2.3V2.3C0 1.032 1.032 0 2.3 0zm8.05 19.55l2.3-2.3h5.752L18.4 2.3H2.3v14.95h5.75l2.3 2.3z"/></symbol><symbol viewBox="0 0 50 28" id="vk" xmlns="http://www.w3.org/2000/svg"><path fill-rule="evenodd" clip-rule="evenodd" d="M24.008 27.883h2.937s.884-.097 1.339-.584c.415-.45.403-1.29.403-1.29s-.058-3.936 1.767-4.514c1.825-.58 4.114 3.801 6.566 5.486 1.854 1.271 3.262.993 3.262.993l6.552-.091s3.428-.211 1.803-2.907c-.133-.22-.947-1.994-4.873-5.638-4.109-3.813-3.558-3.196 1.39-9.793 3.01-4.009 4.215-6.47 3.838-7.52-.357-1-2.574-.736-2.574-.736l-7.378.045a1.683 1.683 0 00-.954.173c-.395.238-.651.793-.651.793a42.775 42.775 0 01-2.725 5.752c-3.283 5.58-4.6 5.875-5.135 5.53-1.251-.81-.939-3.244-.939-4.975 0-5.407.821-7.662-1.596-8.244-.802-.2-1.393-.328-3.444-.356-2.633-.028-4.86 0-6.122.625-.84.412-1.487 1.327-1.092 1.383.488.065 1.592.299 2.177 1.095.756 1.028.73 3.338.73 3.338s.433 6.364-1.015 7.155c-.995.546-2.358-.561-5.289-5.622a47.11 47.11 0 01-2.633-5.458 2.186 2.186 0 00-.608-.823 3.046 3.046 0 00-1.134-.458L1.6 1.29s-1.052.03-1.439.487c-.345.406-.028 1.25-.028 1.25s5.49 12.841 11.705 19.312c5.702 5.935 12.17 5.545 12.17 5.545z"/></symbol></svg>