<svg width="1818" height="289" viewBox="0 0 1818 289" fill="none" xmlns="http://www.w3.org/2000/svg">
<path d="M54.5551 284.051V62.0508H0.555115V42.0508H38.5551C49.2218 42.0508 54.5551 36.7174 54.5551 26.0508V4.05076H76.5551V284.051H54.5551ZM163.127 248.051C176.994 261.384 194.86 268.051 216.727 268.051C238.594 268.051 256.327 261.384 269.927 248.051C283.794 234.451 290.727 217.117 290.727 196.051C290.727 174.984 283.794 157.784 269.927 144.451C256.327 130.851 238.594 124.051 216.727 124.051C194.86 124.051 176.994 130.851 163.127 144.451C149.527 157.784 142.727 174.984 142.727 196.051C142.727 217.117 149.527 234.451 163.127 248.051ZM216.727 288.051C187.66 288.051 164.327 279.384 146.727 262.051C129.394 244.451 120.727 221.117 120.727 192.051C120.727 166.984 130.994 138.317 151.527 106.051L216.727 4.05076H240.727L166.727 120.051H168.727C181.26 109.384 197.927 104.051 218.727 104.051C245.66 104.051 268.06 112.851 285.927 130.451C303.794 148.051 312.727 169.917 312.727 196.051C312.727 222.184 303.66 244.051 285.527 261.651C267.394 279.251 244.46 288.051 216.727 288.051ZM380.946 284.051V62.0508H326.946V42.0508H364.946C375.612 42.0508 380.946 36.7174 380.946 26.0508V4.05076H402.946V284.051H380.946ZM492.718 250.451C505.784 262.184 522.584 268.051 543.118 268.051C563.651 268.051 580.451 262.184 593.518 250.451C606.584 238.717 613.118 224.584 613.118 208.051C613.118 191.517 606.584 177.384 593.518 165.651C580.451 153.917 563.651 148.051 543.118 148.051C522.584 148.051 505.784 153.917 492.718 165.651C479.651 177.384 473.118 191.517 473.118 208.051C473.118 224.584 479.651 238.717 492.718 250.451ZM609.518 265.251C592.718 280.451 570.584 288.051 543.118 288.051C515.651 288.051 493.384 280.451 476.318 265.251C459.518 249.784 451.118 230.717 451.118 208.051C451.118 193.117 455.784 179.651 465.118 167.651C474.451 155.384 487.118 146.184 503.118 140.051C490.584 135.517 479.784 127.651 470.718 116.451C461.651 105.251 457.118 91.7841 457.118 76.0508C457.118 54.4508 464.984 36.4508 480.718 22.0508C496.718 7.3841 517.518 0.050766 543.118 0.050766C568.718 0.050766 589.384 7.3841 605.118 22.0508C621.118 36.4508 629.118 54.4508 629.118 76.0508C629.118 91.7841 624.584 105.251 615.518 116.451C606.451 127.651 595.651 135.517 583.118 140.051C599.118 146.184 611.784 155.384 621.118 167.651C630.451 179.651 635.118 193.117 635.118 208.051C635.118 230.717 626.584 249.784 609.518 265.251ZM495.918 114.851C507.118 124.984 522.851 130.051 543.118 130.051C563.384 130.051 579.118 124.984 590.318 114.851C601.518 104.717 607.118 91.7841 607.118 76.0508C607.118 59.7841 601.384 46.4508 589.918 36.0508C578.451 25.3841 562.851 20.0508 543.118 20.0508C523.384 20.0508 507.784 25.3841 496.318 36.0508C484.851 46.4508 479.118 59.7841 479.118 76.0508C479.118 91.7841 484.718 104.717 495.918 114.851ZM755.133 284.051V4.05076H857.133C884.867 4.05076 906.467 11.3841 921.933 26.0508C937.4 40.7174 945.133 60.7174 945.133 86.0508C945.133 111.117 937.533 131.117 922.333 146.051C907.133 160.717 886.067 168.051 859.133 168.051L943.133 284.051H917.133L833.133 168.051H777.133V284.051H755.133ZM777.133 148.051H855.133C876.733 148.051 893.4 142.584 905.133 131.651C917.133 120.451 923.133 105.251 923.133 86.0508C923.133 66.8508 917.133 51.7841 905.133 40.8508C893.4 29.6508 876.733 24.0508 855.133 24.0508H777.133V148.051ZM1190.78 250.051C1167.85 275.384 1137.98 288.051 1101.18 288.051C1064.38 288.051 1034.51 275.384 1011.58 250.051C988.647 224.451 977.18 189.117 977.18 144.051C977.18 98.9841 988.647 63.7841 1011.58 38.4508C1034.51 12.8508 1064.38 0.050766 1101.18 0.050766C1137.98 0.050766 1167.85 12.8508 1190.78 38.4508C1213.71 63.7841 1225.18 98.9841 1225.18 144.051C1225.18 189.117 1213.71 224.451 1190.78 250.051ZM1027.58 235.251C1046.78 257.117 1071.31 268.051 1101.18 268.051C1131.05 268.051 1155.45 257.117 1174.38 235.251C1193.58 213.384 1203.18 182.984 1203.18 144.051C1203.18 105.117 1193.58 74.7174 1174.38 52.8508C1155.45 30.9841 1131.05 20.0508 1101.18 20.0508C1071.31 20.0508 1046.78 30.9841 1027.58 52.8508C1008.65 74.7174 999.18 105.117 999.18 144.051C999.18 182.984 1008.65 213.384 1027.58 235.251ZM1470.97 250.051C1448.03 275.384 1418.17 288.051 1381.37 288.051C1344.57 288.051 1314.7 275.384 1291.77 250.051C1268.83 224.451 1257.37 189.117 1257.37 144.051C1257.37 98.9841 1268.83 63.7841 1291.77 38.4508C1314.7 12.8508 1344.57 0.050766 1381.37 0.050766C1418.17 0.050766 1448.03 12.8508 1470.97 38.4508C1493.9 63.7841 1505.37 98.9841 1505.37 144.051C1505.37 189.117 1493.9 224.451 1470.97 250.051ZM1307.77 235.251C1326.97 257.117 1351.5 268.051 1381.37 268.051C1411.23 268.051 1435.63 257.117 1454.57 235.251C1473.77 213.384 1483.37 182.984 1483.37 144.051C1483.37 105.117 1473.77 74.7174 1454.57 52.8508C1435.63 30.9841 1411.23 20.0508 1381.37 20.0508C1351.5 20.0508 1326.97 30.9841 1307.77 52.8508C1288.83 74.7174 1279.37 105.117 1279.37 144.051C1279.37 182.984 1288.83 213.384 1307.77 235.251ZM1551.56 284.051V4.05076H1585.56L1683.56 252.051H1685.56L1783.56 4.05076H1817.56V284.051H1795.56V36.0508H1793.56L1695.56 284.051H1673.56L1575.56 36.0508H1573.56V284.051H1551.56Z" fill="#292828"/>
</svg>
