<svg width="1284" height="214" viewBox="0 0 1284 214" fill="none" xmlns="http://www.w3.org/2000/svg">
<path d="M0.720703 210.43L80.2207 0.429673H99.7207L179.221 210.43H162.721L141.721 154.93H38.2207L17.2207 210.43H0.720703ZM43.9207 139.93H136.021L90.7207 19.9297H89.2207L43.9207 139.93ZM224.291 210.43V43.9297H183.791V28.9297H212.291C220.291 28.9297 224.291 24.9297 224.291 16.9297V0.429673H240.791V210.43H224.291ZM305.72 183.43C316.12 193.43 329.52 198.43 345.92 198.43C362.32 198.43 375.62 193.43 385.82 183.43C396.22 173.23 401.42 160.23 401.42 144.43C401.42 128.63 396.22 115.73 385.82 105.73C375.62 95.5297 362.32 90.4297 345.92 90.4297C329.52 90.4297 316.12 95.5297 305.72 105.73C295.52 115.73 290.42 128.63 290.42 144.43C290.42 160.23 295.52 173.23 305.72 183.43ZM345.92 213.43C324.12 213.43 306.62 206.93 293.42 193.93C280.42 180.73 273.92 163.23 273.92 141.43C273.92 122.63 281.62 101.13 297.02 76.9297L345.92 0.429673H363.92L308.42 87.4297H309.92C319.32 79.4297 331.82 75.4297 347.42 75.4297C367.62 75.4297 384.42 82.0297 397.82 95.2297C411.22 108.43 417.92 124.83 417.92 144.43C417.92 164.03 411.12 180.43 397.52 193.63C383.92 206.83 366.72 213.43 345.92 213.43ZM504.932 210.43V0.429673H521.432V96.4297H644.432V0.429673H660.932V210.43H644.432V111.43H521.432V210.43H504.932ZM815.19 191.83C802.19 206.23 785.29 213.43 764.49 213.43C743.69 213.43 726.69 206.23 713.49 191.83C700.49 177.23 693.99 157.43 693.99 132.43C693.99 107.43 700.49 87.7297 713.49 73.3297C726.69 58.7297 743.69 51.4297 764.49 51.4297C785.29 51.4297 802.19 58.7297 815.19 73.3297C828.39 87.7297 834.99 107.43 834.99 132.43C834.99 157.43 828.39 177.23 815.19 191.83ZM724.59 180.73C734.99 192.53 748.29 198.43 764.49 198.43C780.69 198.43 793.99 192.53 804.39 180.73C814.79 168.93 819.99 152.83 819.99 132.43C819.99 112.03 814.79 95.9297 804.39 84.1297C793.99 72.3297 780.69 66.4297 764.49 66.4297C748.29 66.4297 734.99 72.3297 724.59 84.1297C714.19 95.9297 708.99 112.03 708.99 132.43C708.99 152.83 714.19 168.93 724.59 180.73ZM920.584 213.43C903.784 213.43 890.084 207.73 879.484 196.33C868.884 184.93 863.584 169.63 863.584 150.43V54.4297H878.584V150.43C878.584 164.43 882.784 175.93 891.184 184.93C899.584 193.93 909.884 198.43 922.084 198.43C935.684 198.43 947.084 193.83 956.284 184.63C965.484 175.43 970.084 164.03 970.084 150.43V54.4297H985.084V210.43H973.084L970.084 186.43H968.584C957.984 204.43 941.984 213.43 920.584 213.43ZM1070.49 213.43C1055.09 213.43 1041.99 209.43 1031.19 201.43C1020.39 193.43 1013.49 182.93 1010.49 169.93H1026.99C1029.39 178.13 1034.19 184.93 1041.39 190.33C1048.79 195.73 1058.49 198.43 1070.49 198.43C1084.89 198.43 1095.49 195.93 1102.29 190.93C1109.09 185.73 1112.49 178.73 1112.49 169.93C1112.49 161.73 1109.09 155.43 1102.29 151.03C1095.69 146.63 1087.59 143.53 1077.99 141.73C1068.59 139.73 1059.09 137.53 1049.49 135.13C1039.89 132.73 1031.69 128.33 1024.89 121.93C1018.29 115.33 1014.99 106.33 1014.99 94.9297C1014.99 82.5297 1019.79 72.2297 1029.39 64.0297C1038.99 55.6297 1052.19 51.4297 1068.99 51.4297C1082.79 51.4297 1094.59 54.8297 1104.39 61.6297C1114.19 68.2297 1120.89 77.8297 1124.49 90.4297H1107.99C1101.19 74.4297 1088.19 66.4297 1068.99 66.4297C1055.99 66.4297 1046.19 69.0297 1039.59 74.2297C1033.19 79.4297 1029.99 86.3297 1029.99 94.9297C1029.99 103.13 1033.29 109.43 1039.89 113.83C1046.69 118.23 1054.89 121.43 1064.49 123.43C1074.09 125.23 1083.59 127.33 1092.99 129.73C1102.59 132.13 1110.69 136.63 1117.29 143.23C1124.09 149.63 1127.49 158.53 1127.49 169.93C1127.49 182.53 1122.49 192.93 1112.49 201.13C1102.49 209.33 1088.49 213.43 1070.49 213.43ZM1215.91 213.43C1195.11 213.43 1178.11 206.23 1164.91 191.83C1151.91 177.23 1145.41 157.43 1145.41 132.43C1145.41 107.63 1151.91 87.9297 1164.91 73.3297C1177.91 58.7297 1194.41 51.4297 1214.41 51.4297C1234.21 51.4297 1250.61 58.3297 1263.61 72.1297C1276.81 85.7297 1283.41 103.33 1283.41 124.93L1282.51 136.93H1160.41C1161.21 155.13 1166.61 169.93 1176.61 181.33C1186.81 192.73 1199.91 198.43 1215.91 198.43C1236.91 198.43 1252.91 188.93 1263.91 169.93H1280.41C1275.21 183.93 1266.91 194.73 1255.51 202.33C1244.31 209.73 1231.11 213.43 1215.91 213.43ZM1160.41 123.43H1268.41C1267.61 106.43 1262.21 92.7297 1252.21 82.3297C1242.21 71.7297 1229.61 66.4297 1214.41 66.4297C1199.01 66.4297 1186.51 71.7297 1176.91 82.3297C1167.51 92.7297 1162.01 106.43 1160.41 123.43Z" fill="#292828"/>
</svg>
